<?xml version="1.0" standalone="no"?><!DOCTYPE svg PUBLIC "-//W3C//DTD SVG 1.1//EN" "http://www.w3.org/Graphics/SVG/1.1/DTD/svg11.dtd" ><svg xmlns="http://www.w3.org/2000/svg"><metadata></metadata><defs><font id="1.001;ADBO;SourceHanSerifCN-Bold;ADOBE" horiz-adv-x="1088"><font-face font-family="Source Han Serif CN" font-weight="700" font-stretch="normal" units-per-em="1000" panose-1="2 2 7 0 0 0 0 0 0 0" ascent="1151" descent="-286" x-height="0" bbox="-109 -279 1076 880" underline-thickness="50" underline-position="-125" unicode-range="U+0023-ff0c" /><missing-glyph horiz-adv-x="1000" d="M100 -120 l0 1000 l800 0 l0 -1000 l-800 0 ZM500 421 l318 409 l-636 0 l318 -409 ZM532 380 l318 -409 l0 818 l-318 -409 ZM182 -70 l636 0 l-318 409 l-318 -409 ZM150 789 l0 -818 l318 409 l-318 409 Z" /><glyph glyph-name="numbersign" unicode="#" d="M384 290 l22 147 l-181 0 l-22 -147 l181 0 ZM589 437 l-137 0 l-23 -147 l123 0 l0 -96 l-137 0 l-30 -194 l-45 0 l29 194 l-180 0 l-29 -194 l-46 0 l29 194 l-120 0 l0 96 l135 0 l22 147 l-120 0 l0 96 l134 0 l29 189 l45 0 l-28 -189 l180 0 l29 189 l46 0 l-29 -189 l123 0 l0 -96 Z" /><glyph glyph-name="quotesingle" unicode="&#39;" d="M116 820 q31 0 49 -18.5 q18 -18.5 18 -56.5 q0 -23 -5 -54 q-5 -31 -11.5 -61 q-6.5 -30 -10.5 -51 l-24 -113 l-33 0 l-24 113 q-3 21 -9.5 51.5 q-6.5 30.5 -12 61.5 q-5.5 31 -5.5 53 q0 38 18.5 56.5 q18.5 18.5 49.5 18.5 Z" /><glyph glyph-name="parenleft" unicode="(" d="M191 311 q0 -93 16 -173 q16 -80 53 -157 q37 -77 101 -163 l-23 -20 q-124 109 -187.5 232.5 q-63.5 123.5 -63.5 280.5 q0 156 63.5 280 q63.5 124 187.5 232 l23 -20 q-66 -87 -103 -164 q-37 -77 -52 -156 q-15 -79 -15 -172 Z" /><glyph glyph-name="parenright" unicode=")" d="M207 311 q0 93 -16 172.5 q-16 79.5 -53 157 q-37 77.5 -101 162.5 l22 20 q125 -109 188.5 -232.5 q63.5 -123.5 63.5 -279.5 q0 -157 -63.5 -281 q-63.5 -124 -188.5 -232 l-22 20 q67 87 103.5 164.5 q36.5 77.5 51.5 156.5 q15 79 15 172 Z" /><glyph glyph-name="asterisk" unicode="*" d="M245 830 q16 0 29 -12.5 q13 -12.5 13 -32.5 q0 -16 -7 -46.5 q-7 -30.5 -15 -68.5 l-13 -58 l52 30 q44 26 73 42 q29 16 46 16 q18 0 30 -12 q12 -12 12 -29 q0 -30 -33 -40.5 q-33 -10.5 -115 -16.5 l-60 -6 l46 -40 q45 -39 70 -63 q25 -24 25 -45 q0 -18 -12.5 -29.5 q-12.5 -11.5 -29.5 -11.5 q-26 0 -43 29 q-17 29 -45 96 l-23 56 l-25 -57 q-27 -67 -43.5 -95.5 q-16.5 -28.5 -43.5 -28.5 q-18 0 -29 11.5 q-11 11.5 -11 28.5 q0 25 25.5 48 q25.5 23 68.5 61 l44 40 l-59 5 q-81 7 -115 16.5 q-34 9.5 -34 39.5 q0 18 12.5 30 q12.5 12 31.5 12 q19 0 48 -16.5 q29 -16.5 69 -40.5 l52 -30 l-13 58 q-9 39 -15 69 q-6 30 -6 46 q0 21 12.5 33 q12.5 12 30.5 12 Z" /><glyph glyph-name="plus" unicode="+" d="M566 392 l0 -54 l-236 0 l0 -251 l-57 0 l0 251 l-237 0 l0 54 l237 0 l0 245 l57 0 l0 -245 l236 0 Z" /><glyph glyph-name="comma" unicode="," d="M182 -35 l-46 28 q-28 17 -39.5 37.5 q-11.5 20.5 -11.5 40.5 q0 33 22 56 q22 23 57 23 q19 0 36 -6 q17 -6 33 -22 q9 -21 12 -39 q3 -18 3 -41 q0 -67 -30.5 -122 q-30.5 -55 -77 -93 q-46.5 -38 -96.5 -57 l-13 29 q60 32 97.5 70 q37.5 38 53.5 96 Z" /><glyph glyph-name="cid00014" unicode="-­&#x2011;" d="M45 248 l0 68 l277 0 l0 -68 l-277 0 Z" /><glyph glyph-name="period" unicode="." d="M168 -16 q-35 0 -59 24.5 q-24 24.5 -24 57.5 q0 35 24 59.5 q24 24.5 59 24.5 q35 0 58.5 -24.5 q23.5 -24.5 23.5 -59.5 q0 -33 -23.5 -57.5 q-23.5 -24.5 -58.5 -24.5 Z" /><glyph glyph-name="slash" unicode="/" d="M12 -179 l300 972 l73 0 l-298 -972 l-75 0 Z" /><glyph glyph-name="zero" unicode="0" d="M173 373 q0 -104 9.5 -172.5 q9.5 -68.5 26.5 -108 q17 -39.5 38.5 -55.5 q21.5 -16 45.5 -16 q23 0 44.5 16.5 q21.5 16.5 38.5 55.5 q17 39 26.5 107.5 q9.5 68.5 9.5 172.5 q0 102 -9.5 169.5 q-9.5 67.5 -26.5 106 q-17 38.5 -38.5 54.5 q-21.5 16 -44.5 16 q-24 0 -45.5 -16 q-21.5 -16 -38.5 -54.5 q-17 -38.5 -26.5 -105.5 q-9.5 -67 -9.5 -170 ZM293 756 q64 0 120.5 -39 q56.5 -39 91.5 -123.5 q35 -84.5 35 -220.5 q0 -138 -35 -223.5 q-35 -85.5 -91.5 -125.5 q-56.5 -40 -120.5 -40 q-65 0 -121.5 40 q-56.5 40 -91.5 125.5 q-35 85.5 -35 223.5 q0 136 35 220.5 q35 84.5 91.5 123.5 q56.5 39 121.5 39 Z" /><glyph glyph-name="one" unicode="1" d="M370 49 l143 -18 l0 -31 l-429 0 l0 31 l148 18 q3 93 3 186 l0 434 l-130 -13 l0 37 l252 60 l14 -11 l-4 -161 l0 -346 q0 -93 3 -186 Z" /><glyph glyph-name="two" unicode="2" d="M132 106 l405 0 l0 -106 l-480 0 l0 78 q44 50 86.5 98.5 q42.5 48.5 79.5 90.5 q55 62 89.5 110 q34.5 48 51 91.5 q16.5 43.5 16.5 93.5 q0 72 -34 115 q-34 43 -95 43 q-11 0 -23 -1.5 q-12 -1.5 -24 -3.5 l-24 -92 q-8 -44 -26.5 -60 q-18.5 -16 -40.5 -16 q-20 0 -35.5 10.5 q-15.5 10.5 -23.5 27.5 q6 56 40 94.5 q34 38.5 86.5 58 q52.5 19.5 113.5 19.5 q113 0 166.5 -56 q53.5 -56 53.5 -144 q0 -50 -27 -97 q-27 -47 -83 -102 q-56 -55 -144 -133 q-22 -20 -56 -52 q-34 -32 -72 -67 Z" /><glyph glyph-name="three" unicode="3" d="M216 716 l-21 -85 q-6 -35 -23.5 -50 q-17.5 -15 -43.5 -15 q-17 0 -31 8.5 q-14 8.5 -22 24.5 q5 55 36 90 q31 35 79 51.5 q48 16.5 104 16.5 q110 0 166 -49.5 q56 -49.5 56 -127.5 q0 -67 -42 -117 q-42 -50 -134 -72 q107 -17 152.5 -70 q45.5 -53 45.5 -130 q0 -61 -32 -107.5 q-32 -46.5 -90.5 -73 q-58.5 -26.5 -138.5 -26.5 q-101 0 -160 42.5 q-59 42.5 -69 124.5 q8 21 24 30.5 q16 9.5 33 9.5 q28 0 44 -17 q16 -17 23 -61 l18 -86 q24 -6 49 -6 q79 0 121 44.5 q42 44.5 42 125.5 q0 84 -41.5 130 q-41.5 46 -121.5 46 l-44 0 l0 41 l37 0 q70 0 112 42 q42 42 42 124 q0 72 -33 109 q-33 37 -94 37 q-10 0 -21 -1 q-11 -1 -22 -3 Z" /><glyph glyph-name="four" unicode="4" d="M87 290 l241 0 l0 354 l-241 -354 ZM560 290 l0 -87 l-113 0 l0 -203 l-119 0 l0 203 l-294 0 l0 72 l322 472 l91 0 l0 -457 l113 0 Z" /><glyph glyph-name="five" unicode="5" d="M171 634 l-13 -200 q60 18 126 18 q119 0 189 -59.5 q70 -59.5 70 -170.5 q0 -74 -35.5 -127.5 q-35.5 -53.5 -98 -82 q-62.5 -28.5 -144.5 -28.5 q-97 0 -154 44 q-57 44 -67 123 q8 20 24 30 q16 10 35 10 q27 0 42.5 -17 q15.5 -17 22.5 -58 l17 -86 q27 -9 60 -9 q74 0 116.5 51 q42.5 51 42.5 142 q0 89 -43 136.5 q-43 47.5 -116 47.5 q-54 0 -108 -17 l-29 14 l24 347 l387 0 l0 -108 l-348 0 Z" /><glyph glyph-name="six" unicode="6" d="M302 21 q47 0 78.5 46 q31.5 46 31.5 147 q0 92 -30.5 138 q-30.5 46 -86.5 46 q-31 0 -62 -10 q-31 -10 -58 -36 q-1 -9 -1 -17.5 q0 -8.5 0 -17.5 q0 -151 34.5 -223.5 q34.5 -72.5 93.5 -72.5 ZM500 757 l6 -25 q-147 -34 -229 -123 q-82 -89 -99 -221 q68 66 164 66 q95 0 148.5 -61.5 q53.5 -61.5 53.5 -161.5 q0 -74 -30 -129.5 q-30 -55.5 -84.5 -86.5 q-54.5 -31 -129.5 -31 q-79 0 -137.5 37.5 q-58.5 37.5 -90.5 108 q-32 70.5 -32 168.5 q0 88 32.5 166.5 q32.5 78.5 92.5 140.5 q60 62 145 101.5 q85 39.5 190 50.5 Z" /><glyph glyph-name="seven" unicode="7" d="M57 742 l465 0 l0 -67 l-261 -675 l-111 0 l-10 10 l318 624 l-401 0 l0 108 Z" /><glyph glyph-name="eight" unicode="8" d="M292 21 q58 0 89.5 34 q31.5 34 31.5 92 q0 37 -15.5 68.5 q-15.5 31.5 -53 61.5 q-37.5 30 -105.5 60 q-40 -35 -58.5 -72 q-18.5 -37 -18.5 -90 q0 -75 34.5 -114.5 q34.5 -39.5 95.5 -39.5 ZM293 720 q-45 0 -78.5 -31 q-33.5 -31 -33.5 -86 q0 -31 12.5 -62 q12.5 -31 46 -61 q33.5 -30 96.5 -59 q35 38 49.5 77.5 q14.5 39.5 14.5 90.5 q0 56 -27.5 93.5 q-27.5 37.5 -79.5 37.5 ZM362 409 q89 -42 130.5 -95 q41.5 -53 41.5 -124 q0 -93 -66.5 -149.5 q-66.5 -56.5 -184.5 -56.5 q-113 0 -173 48.5 q-60 48.5 -60 127.5 q0 65 42.5 111.5 q42.5 46.5 122.5 77.5 q-75 38 -111 92.5 q-36 54.5 -36 121.5 q0 59 30.5 102.5 q30.5 43.5 82 67.5 q51.5 24 115.5 24 q70 0 116.5 -23 q46.5 -23 70 -62 q23.5 -39 23.5 -87 q0 -47 -32 -92.5 q-32 -45.5 -112 -83.5 Z" /><glyph glyph-name="nine" unicode="9" d="M306 341 q55 0 95 33 q2 20 3 41.5 q1 21.5 1 43.5 q0 95 -15.5 152.5 q-15.5 57.5 -42.5 83 q-27 25.5 -62 25.5 q-48 0 -82 -46.5 q-34 -46.5 -34 -145.5 q0 -90 37.5 -138.5 q37.5 -48.5 99.5 -48.5 ZM106 -20 l-8 30 q134 46 205 126.5 q71 80.5 92 201.5 q-25 -22 -60.5 -34 q-35.5 -12 -78.5 -12 q-62 0 -112 26 q-50 26 -78.5 75.5 q-28.5 49.5 -28.5 119.5 q0 78 33.5 132.5 q33.5 54.5 89.5 83 q56 28.5 125 28.5 q121 0 188 -82.5 q67 -82.5 67 -225.5 q0 -115 -51 -211 q-51 -96 -148 -162.5 q-97 -66.5 -235 -95.5 Z" /><glyph glyph-name="colon" unicode=":" d="M168 389 q-35 0 -59 24.5 q-24 24.5 -24 56.5 q0 35 24 59.5 q24 24.5 59 24.5 q35 0 58.5 -24.5 q23.5 -24.5 23.5 -59.5 q0 -32 -23.5 -56.5 q-23.5 -24.5 -58.5 -24.5 ZM168 -16 q-35 0 -59 24.5 q-24 24.5 -24 57.5 q0 35 24 59.5 q24 24.5 59 24.5 q35 0 58.5 -24.5 q23.5 -24.5 23.5 -59.5 q0 -33 -23.5 -57.5 q-23.5 -24.5 -58.5 -24.5 Z" /><glyph glyph-name="semicolon" unicode=";" d="M168 389 q-35 0 -59 24.5 q-24 24.5 -24 56.5 q0 35 24 59.5 q24 24.5 59 24.5 q35 0 58.5 -24.5 q23.5 -24.5 23.5 -59.5 q0 -32 -23.5 -56.5 q-23.5 -24.5 -58.5 -24.5 ZM182 -35 l-46 28 q-28 17 -39.5 37.5 q-11.5 20.5 -11.5 40.5 q0 33 22 56 q22 23 57 23 q19 0 36 -6 q17 -6 33 -22 q9 -21 12 -39 q3 -18 3 -41 q0 -67 -30.5 -122 q-30.5 -55 -77 -93 q-46.5 -38 -96.5 -57 l-13 29 q60 32 97.5 70 q37.5 38 53.5 96 Z" /><glyph glyph-name="equal" unicode="=" d="M566 223 l-530 0 l0 54 l530 0 l0 -54 ZM566 454 l-530 0 l0 53 l530 0 l0 -53 Z" /><glyph glyph-name="at" unicode="@" d="M537 168 l50 283 q-11 17 -25 24.5 q-14 7.5 -31 7.5 q-23 0 -50 -14.5 q-27 -14.5 -52 -49.5 q-28 -40 -45.5 -90 q-17.5 -50 -17.5 -109 q0 -53 21 -80 q21 -27 55 -27 q21 0 43 11 q22 11 52 44 ZM703 521 l-62 -327 q-10 -61 3 -85 q13 -24 47 -24 q31 0 63.5 19 q32.5 19 60.5 55.5 q28 36.5 45.5 90 q17.5 53.5 17.5 122.5 q0 98 -43.5 170.5 q-43.5 72.5 -118.5 113 q-75 40.5 -171 40.5 q-100 0 -183 -37 q-83 -37 -144 -101.5 q-61 -64.5 -94.5 -147.5 q-33.5 -83 -33.5 -175 q0 -121 50 -204.5 q50 -83.5 134.5 -126.5 q84.5 -43 187.5 -43 q62 0 115.5 13 q53.5 13 99.5 37 l12 -27 q-51 -28 -112 -43 q-61 -15 -127 -15 q-115 0 -207.5 45.5 q-92.5 45.5 -146.5 134.5 q-54 89 -54 221 q0 105 38 196.5 q38 91.5 107 160.5 q69 69 162 108 q93 39 204 39 q114 0 197 -46.5 q83 -46.5 128 -129 q45 -82.5 45 -190.5 q0 -80 -23.5 -139.5 q-23.5 -59.5 -61 -99 q-37.5 -39.5 -81 -59 q-43.5 -19.5 -82.5 -19.5 q-58 0 -90 26 q-32 26 -42 67 q-31 -46 -71 -69.5 q-40 -23.5 -82 -23.5 q-54 0 -90 37 q-36 37 -36 117 q0 68 26.5 131 q26.5 63 64.5 108 q38 46 83.5 69 q45.5 23 85.5 23 q51 0 79 -45 l85 44 l15 -11 Z" /><glyph glyph-name="A" unicode="a" d="M218 277 l216 0 l-110 343 l-106 -343 ZM652 44 l83 -9 l0 -35 l-323 0 l0 35 l97 11 l-63 194 l-239 0 l-59 -193 l98 -12 l0 -35 l-234 0 l0 35 l86 12 l228 698 l87 0 l239 -701 Z" /><glyph glyph-name="B" unicode="b" d="M282 39 l62 0 q89 0 137 42 q48 42 48 122 q0 83 -47 123.5 q-47 40.5 -148 40.5 l-55 0 q0 -88 0.5 -169 q0.5 -81 2.5 -159 ZM341 703 l-59 0 q-2 -73 -2.5 -147 q-0.5 -74 -0.5 -151 l47 0 q86 0 128 40 q42 40 42 116 q0 69 -37 105.5 q-37 36.5 -118 36.5 ZM45 742 l334 0 q133 0 192.5 -49.5 q59.5 -49.5 59.5 -126.5 q0 -38 -18 -72.5 q-18 -34.5 -60.5 -60.5 q-42.5 -26 -114.5 -40 q125 -15 179.5 -64.5 q54.5 -49.5 54.5 -124.5 q0 -37 -15.5 -73.5 q-15.5 -36.5 -52 -66 q-36.5 -29.5 -97.5 -47 q-61 -17.5 -153 -17.5 l-309 0 l0 35 l95 9 q2 77 2 154.5 q0 77.5 0 156.5 l0 43 q0 75 0 150 q0 75 -2 149 l-95 9 l0 36 Z" /><glyph glyph-name="C" unicode="c" d="M657 210 l1 -172 q-48 -27 -103 -42 q-55 -15 -120 -15 q-111 0 -198.5 45.5 q-87.5 45.5 -138 133 q-50.5 87.5 -50.5 211.5 q0 94 30.5 166.5 q30.5 72.5 84.5 122 q54 49.5 125 75 q71 25.5 151 25.5 q59 0 110 -13.5 q51 -13.5 101 -42.5 l-2 -173 l-57 0 l-44 171 q-41 17 -90 17 q-74 0 -133 -38.5 q-59 -38.5 -93 -116 q-34 -77.5 -34 -194.5 q0 -118 34 -195 q34 -77 92.5 -115 q58.5 -38 133.5 -38 q50 0 98 19 l44 169 l58 0 Z" /><glyph glyph-name="D" unicode="d" d="M284 39 l61 0 q120 0 185 87.5 q65 87.5 65 244.5 q0 161 -64 246.5 q-64 85.5 -179 85.5 l-68 0 q-2 -76 -2.5 -153.5 q-0.5 -77.5 -0.5 -157.5 l0 -33 q0 -85 0.5 -164 q0.5 -79 2.5 -156 ZM45 742 l322 0 q117 0 201 -44 q84 -44 129 -127 q45 -83 45 -199 q0 -117 -48 -200 q-48 -83 -136.5 -127.5 q-88.5 -44.5 -208.5 -44.5 l-304 0 l0 35 l95 9 q2 74 2 152 q0 78 0 163 l0 33 q0 77 0 153 q0 76 -2 152 l-95 9 l0 36 Z" /><glyph glyph-name="E" unicode="e" d="M572 201 l55 0 l-3 -201 l-579 0 l0 35 l95 9 q2 74 2 150 q0 76 0 152 l0 49 q0 75 0 150.5 q0 75.5 -2 151.5 l-95 9 l0 36 l559 0 l1 -196 l-54 0 l-38 154 l-229 0 q-2 -73 -2.5 -148.5 q-0.5 -75.5 -0.5 -154.5 l150 0 l15 109 l47 0 l0 -252 l-47 0 l-14 105 l-151 0 q0 -85 0.5 -163 q0.5 -78 2.5 -155 l249 0 l39 160 Z" /><glyph glyph-name="F" unicode="f" d="M518 700 l-234 0 q-2 -73 -2.5 -148.5 q-0.5 -75.5 -0.5 -154.5 l153 0 l15 109 l47 0 l0 -260 l-47 0 l-15 113 l-153 0 q0 -83 0.5 -161 q0.5 -78 2.5 -153 l107 -10 l0 -35 l-346 0 l0 35 l95 9 q2 74 2 150 q0 76 0 152 l0 49 q0 75 0 150.5 q0 75.5 -2 151.5 l-95 9 l0 36 l564 0 l1 -196 l-54 0 l-38 154 Z" /><glyph glyph-name="G" unicode="g" d="M743 360 l0 -35 l-66 -8 q-1 -52 -1.5 -107 q-0.5 -55 -0.5 -114 l0 -49 q-58 -33 -115 -49.5 q-57 -16.5 -127 -16.5 q-115 0 -201.5 48 q-86.5 48 -135 135.5 q-48.5 87.5 -48.5 207.5 q0 118 49.5 205 q49.5 87 137.5 135 q88 48 204 48 q66 0 119 -14 q53 -14 99 -41 l-2 -173 l-59 0 l-42 166 q-22 11 -46 16 q-24 5 -51 5 q-75 0 -133.5 -39 q-58.5 -39 -92.5 -116.5 q-34 -77.5 -34 -192.5 q0 -109 32.5 -187 q32.5 -78 90 -120 q57.5 -42 131.5 -42 q48 0 91 12 l0 65 q0 107 -3 215 l-110 11 l0 35 l314 0 Z" /><glyph glyph-name="H" unicode="h" d="M822 706 l-95 -9 q-1 -75 -1 -150 q0 -75 0 -152 l0 -49 q0 -75 0 -151 q0 -76 1 -151 l95 -9 l0 -35 l-329 0 l0 35 l91 8 q2 74 2 152 q0 78 0 165 l-306 0 q0 -86 0.5 -164 q0.5 -78 2.5 -153 l91 -8 l0 -35 l-329 0 l0 35 l95 9 q1 74 1 150 q0 76 0 152 l0 49 q0 75 0 150.5 q0 75.5 -1 150.5 l-95 10 l0 36 l329 0 l0 -36 l-91 -9 q-2 -73 -2.5 -148 q-0.5 -75 -0.5 -150 l306 0 q0 74 0 149 q0 75 -2 149 l-91 9 l0 36 l329 0 l0 -36 Z" /><glyph glyph-name="I" unicode="i" d="M379 706 l-95 -9 q-2 -75 -2.5 -150 q-0.5 -75 -0.5 -152 l0 -49 q0 -75 0.5 -151 q0.5 -76 2.5 -151 l95 -9 l0 -35 l-334 0 l0 35 l95 9 q2 74 2 150 q0 76 0 152 l0 49 q0 75 0 150.5 q0 75.5 -2 151.5 l-95 9 l0 36 l334 0 l0 -36 Z" /><glyph glyph-name="J" unicode="j" d="M393 742 l0 -36 l-96 -9 q-1 -73 -1 -147.5 q0 -74.5 0 -149.5 l0 -141 q0 -100 -8 -162.5 q-8 -62.5 -26 -107.5 q-24 -83 -85.5 -128 q-61.5 -45 -137.5 -45 q-39 0 -69 13 q-30 13 -44 44 q3 32 24 49 q21 17 51 17 q23 0 42.5 -11 q19.5 -11 42.5 -37 l29 -33 q22 23 34 69 q12 46 12 122 q0 31 -0.5 77.5 q-0.5 46.5 -2 119.5 q-1.5 73 -2.5 183 q-1 110 -3 267 l-105 10 l0 36 l345 0 Z" /><glyph glyph-name="K" unicode="k" d="M693 42 l75 -7 l0 -35 l-306 0 l0 35 l80 8 l-178 333 l-88 -107 q0 -51 0.5 -108 q0.5 -57 1.5 -117 l88 -9 l0 -35 l-321 0 l0 35 l95 9 q2 74 2 150 q0 76 0 152 l0 49 q0 75 0 150.5 q0 75.5 -2 151.5 l-95 9 l0 36 l329 0 l0 -36 l-96 -10 q-1 -74 -1.5 -149.5 q-0.5 -75.5 -0.5 -151.5 l0 -71 l292 368 l-96 14 l0 36 l257 0 l0 -36 l-104 -14 l-174 -210 l242 -440 Z" /><glyph glyph-name="L" unicode="l" d="M555 216 l54 0 l-2 -216 l-562 0 l1 35 l94 9 q2 74 2 147 q0 73 0 137 l0 67 q0 75 0 150.5 q0 75.5 -2 151.5 l-95 9 l0 36 l339 0 l0 -36 l-100 -10 q-2 -74 -2.5 -148 q-0.5 -74 -0.5 -145 l0 -67 q0 -70 0.5 -144.5 q0.5 -74.5 2.5 -150.5 l228 0 l43 175 Z" /><glyph glyph-name="M" unicode="m" d="M957 706 l-96 -9 q-1 -76 -1 -151.5 q0 -75.5 0 -150.5 l0 -49 q0 -76 0 -151.5 q0 -75.5 1 -150.5 l96 -9 l0 -35 l-330 0 l0 35 l92 9 q2 74 2 147.5 q0 73.5 1 138.5 l2 315 l-244 -645 l-49 0 l-251 641 q2 -50 3 -106 q1 -56 1.5 -102 q0.5 -46 0.5 -67 l0 -319 l105 -12 l0 -35 l-260 0 l0 35 l106 12 l4 646 l-105 13 l0 36 l244 0 l222 -564 l216 564 l240 0 l0 -36 Z" /><glyph glyph-name="N" unicode="n" d="M779 742 l0 -36 l-92 -13 l-5 -697 l-69 0 l-442 622 l3 -570 l128 -13 l0 -35 l-270 0 l0 35 l93 12 l5 629 l-16 21 l-76 9 l0 36 l211 0 l392 -544 l-3 494 l-129 14 l0 36 l270 0 Z" /><glyph glyph-name="O" unicode="o" d="M197 371 q0 -97 21 -176.5 q21 -79.5 64.5 -126 q43.5 -46.5 110.5 -46.5 q67 0 110.5 46.5 q43.5 46.5 65 126 q21.5 79.5 21.5 176.5 q0 96 -21.5 175 q-21.5 79 -65 126 q-43.5 47 -110.5 47 q-67 0 -110.5 -47 q-43.5 -47 -64.5 -126 q-21 -79 -21 -175 ZM393 760 q68 0 130 -25 q62 -25 110.5 -74.5 q48.5 -49.5 76.5 -122 q28 -72.5 28 -167.5 q0 -94 -28 -166.5 q-28 -72.5 -76.5 -122.5 q-48.5 -50 -110.5 -75.5 q-62 -25.5 -130 -25.5 q-68 0 -130.5 25 q-62.5 25 -111 74.5 q-48.5 49.5 -76.5 122 q-28 72.5 -28 168.5 q0 94 28 166.5 q28 72.5 77 122 q49 49.5 111 75 q62 25.5 130 25.5 Z" /><glyph glyph-name="P" unicode="p" d="M337 703 l-53 0 q-2 -76 -2.5 -153 q-0.5 -77 -0.5 -155 l0 -59 l49 0 q95 0 137.5 52 q42.5 52 42.5 134 q0 89 -42.5 135 q-42.5 46 -130.5 46 ZM328 297 l-47 0 q0 -58 0.5 -122 q0.5 -64 2.5 -130 l107 -10 l0 -35 l-346 0 l0 35 l95 9 q2 74 2 150 q0 76 0 152 l0 49 q0 75 0 150.5 q0 75.5 -2 151.5 l-95 9 l0 36 l298 0 q158 0 229 -59 q71 -59 71 -161 q0 -62 -30.5 -113 q-30.5 -51 -99.5 -81.5 q-69 -30.5 -185 -30.5 Z" /><glyph glyph-name="Q" unicode="q" d="M197 371 q0 -97 21 -176.5 q21 -79.5 64.5 -126 q43.5 -46.5 110.5 -46.5 q67 0 110.5 46.5 q43.5 46.5 65 126 q21.5 79.5 21.5 176.5 q0 96 -21.5 175 q-21.5 79 -65 126 q-43.5 47 -110.5 47 q-67 0 -110.5 -47 q-43.5 -47 -64.5 -126 q-21 -79 -21 -175 ZM682 -165 l12 -28 q-27 -18 -64.5 -27.5 q-37.5 -9.5 -75.5 -9.5 q-75 0 -126 29 q-51 29 -77.5 78.5 q-26.5 49.5 -28.5 110.5 q-75 16 -137.5 64 q-62.5 48 -100 128.5 q-37.5 80.5 -37.5 190.5 q0 94 28 166.5 q28 72.5 77 122 q49 49.5 111 75 q62 25.5 130 25.5 q68 0 130 -25 q62 -25 110.5 -74.5 q48.5 -49.5 76.5 -122 q28 -72.5 28 -167.5 q0 -111 -38.5 -192 q-38.5 -81 -103 -130 q-64.5 -49 -142.5 -63 q-1 -78 39.5 -122.5 q40.5 -44.5 108.5 -44.5 q38 0 80 16 Z" /><glyph glyph-name="R" unicode="r" d="M279 386 l73 0 q86 0 125 47.5 q39 47.5 39 117.5 q0 73 -40.5 112.5 q-40.5 39.5 -120.5 39.5 l-73 0 q-2 -76 -2.5 -153.5 q-0.5 -77.5 -0.5 -163.5 ZM649 42 l88 -7 l0 -35 q-24 -7 -47.5 -10 q-23.5 -3 -56.5 -3 q-61 0 -94 20 q-33 20 -41 71 l-36 154 q-13 62 -39.5 89.5 q-26.5 27.5 -88.5 27.5 l-55 0 q0 -79 0.5 -155 q0.5 -76 2.5 -150 l97 -9 l0 -35 l-334 0 l0 35 l95 9 q2 74 2 150 q0 76 0 152 l0 49 q0 75 0 150.5 q0 75.5 -2 151.5 l-95 9 l0 36 l338 0 q128 0 197.5 -50.5 q69.5 -50.5 69.5 -139.5 q0 -64 -47.5 -116 q-47.5 -52 -157.5 -69 q54 -7 86 -26.5 q32 -19.5 49.5 -51.5 q17.5 -32 27.5 -79 l41 -168 Z" /><glyph glyph-name="S" unicode="s" d="M299 452 l50 -21 q74 -32 118.5 -65 q44.5 -33 64 -73 q19.5 -40 19.5 -94 q0 -65 -33 -114.5 q-33 -49.5 -94.5 -76.5 q-61.5 -27 -148.5 -27 q-62 0 -122.5 16 q-60.5 16 -102.5 43 l6 166 l56 0 l42 -161 q26 -11 51.5 -15.5 q25.5 -4.5 56.5 -4.5 q77 0 120.5 34.5 q43.5 34.5 43.5 96.5 q0 53 -28 83.5 q-28 30.5 -94 58.5 l-46 20 q-94 41 -146 95 q-52 54 -52 140 q0 66 33.5 112.5 q33.5 46.5 92 70.5 q58.5 24 133.5 24 q59 0 107 -15 q48 -15 87 -41 l-7 -157 l-56 0 l-42 154 q-17 8 -35 11.5 q-18 3.5 -40 3.5 q-66 0 -107.5 -32 q-41.5 -32 -41.5 -91 q0 -52 30 -84.5 q30 -32.5 85 -56.5 Z" /><glyph glyph-name="T" unicode="t" d="M573 700 l-155 0 q-1 -75 -1.5 -151.5 q-0.5 -76.5 -0.5 -153.5 l0 -49 q0 -75 0.5 -150.5 q0.5 -75.5 1.5 -151.5 l107 -9 l0 -35 l-357 0 l0 35 l107 9 q1 74 1 150 q0 76 0 152 l0 49 q0 76 0 152.5 q0 76.5 -1 152.5 l-155 0 l-42 -165 l-56 0 l7 207 l635 0 l6 -207 l-56 0 l-41 165 Z" /><glyph glyph-name="U" unicode="u" d="M785 742 l0 -36 l-101 -14 l-4 -386 q-1 -169 -71.5 -247 q-70.5 -78 -196.5 -78 q-83 0 -146.5 30.5 q-63.5 30.5 -99 98 q-35.5 67.5 -35.5 179.5 l0 111 q0 74 -0.5 148.5 q-0.5 74.5 -2.5 148.5 l-88 9 l0 36 l334 0 l0 -36 l-102 -10 q-2 -73 -2.5 -147.5 q-0.5 -74.5 -0.5 -148.5 l0 -93 q0 -92 21.5 -147 q21.5 -55 62 -79 q40.5 -24 97.5 -24 q92 0 140 60.5 q48 60.5 47 199.5 l-3 374 l-116 15 l0 36 l267 0 Z" /><glyph glyph-name="V" unicode="v" d="M732 742 l0 -33 l-89 -15 l-233 -698 l-73 0 l-253 702 l-76 8 l0 36 l330 0 l0 -35 l-104 -11 l186 -551 l168 548 l-103 14 l0 35 l247 0 Z" /><glyph glyph-name="W" unicode="w" d="M1076 742 l0 -36 l-94 -13 l-195 -697 l-72 0 l-178 571 l-172 -571 l-73 0 l-204 702 l-77 8 l0 36 l319 0 l0 -36 l-97 -10 l140 -533 l158 531 l-100 12 l0 36 l312 0 l0 -36 l-108 -12 l156 -535 l139 534 l-97 13 l0 36 l243 0 Z" /><glyph glyph-name="X" unicode="x" d="M624 44 l88 -9 l0 -35 l-336 0 l0 35 l97 9 l-149 268 l-155 -264 l91 -13 l0 -35 l-238 0 l0 35 l93 13 l190 299 l-194 350 l-90 9 l0 36 l335 0 l0 -36 l-95 -9 l134 -241 l140 239 l-92 11 l0 36 l243 0 l0 -36 l-98 -11 l-175 -273 l211 -378 Z" /><glyph glyph-name="bracketleft" unicode="[" d="M342 761 l-123 -12 q-1 -75 -1.5 -151 q-0.5 -76 -0.5 -153 l0 -269 q0 -75 0.5 -151 q0.5 -76 1.5 -153 l123 -12 l0 -38 l-230 0 q2 86 2.5 175.5 q0.5 89.5 0.5 178.5 l0 269 q0 88 -0.5 177 q-0.5 89 -2.5 177 l230 0 l0 -38 Z" /><glyph glyph-name="bracketright" unicode="]" d="M256 445 l0 -269 q0 -88 0.5 -176.5 q0.5 -88.5 2.5 -177.5 l-230 0 l0 38 l123 12 q2 75 2 151.5 q0 76.5 0 152.5 l0 269 q0 75 0 151.5 q0 76.5 -2 152.5 l-123 12 l0 38 l230 0 q-2 -86 -2.5 -175.5 q-0.5 -89.5 -0.5 -178.5 Z" /><glyph glyph-name="a" unicode="a" d="M353 102 l0 197 q-22 -7 -42 -13 q-20 -6 -33 -11 q-59 -23 -84 -57.5 q-25 -34.5 -25 -81.5 q0 -44 22 -65.5 q22 -21.5 58 -21.5 q25 0 47.5 12.5 q22.5 12.5 56.5 40.5 ZM562 69 l18 -15 q-19 -37 -46.5 -53 q-27.5 -16 -67.5 -16 q-46 0 -72.5 24 q-26.5 24 -36.5 64 q-41 -43 -76.5 -66 q-35.5 -23 -91.5 -23 q-63 0 -104 35.5 q-41 35.5 -41 98.5 q0 42 18 73.5 q18 31.5 61.5 57 q43.5 25.5 120.5 49.5 q47 16 109 30 l0 51 q0 80 -23 107.5 q-23 27.5 -79 27.5 q-25 0 -52 -6 l-14 -72 q-3 -41 -21 -59 q-18 -18 -44 -18 q-51 0 -60 46 q10 68 70.5 107 q60.5 39 164.5 39 q98 0 142 -46 q44 -46 44 -151 l0 -258 q0 -34 10 -47 q10 -13 26 -13 q20 0 45 33 Z" /><glyph glyph-name="b" unicode="b" d="M242 445 l0 -354 q26 -23 51.5 -33 q25.5 -10 52.5 -10 q38 0 69.5 19.5 q31.5 19.5 51 68 q19.5 48.5 19.5 134.5 q0 115 -38.5 167 q-38.5 52 -97.5 52 q-25 0 -50.5 -8 q-25.5 -8 -57.5 -36 ZM240 651 l0 -176 q38 40 81 58 q43 18 88 18 q62 0 111 -32.5 q49 -32.5 77.5 -95 q28.5 -62.5 28.5 -152.5 q0 -83 -28.5 -148 q-28.5 -65 -80 -102 q-51.5 -37 -119.5 -37 q-43 0 -84 17 q-41 17 -76 57 l-16 -70 l-185 12 l0 31 l73 8 q1 44 1.5 99.5 q0.5 55.5 0.5 96.5 l0 506 l-81 7 l0 28 l198 43 l15 -9 l-4 -159 Z" /><glyph glyph-name="c" unicode="c" d="M394 431 l-15 78 q-10 3 -19.5 4 q-9.5 1 -19.5 1 q-71 0 -116.5 -61.5 q-45.5 -61.5 -45.5 -173.5 q0 -109 50 -169 q50 -60 131 -60 q45 0 81 19.5 q36 19.5 63 55.5 l21 -11 q-31 -62 -85 -96 q-54 -34 -133 -34 q-75 0 -135.5 33.5 q-60.5 33.5 -95.5 96.5 q-35 63 -35 152 q0 91 39 154.5 q39 63.5 103.5 97 q64.5 33.5 141.5 33.5 q53 0 95.5 -19.5 q42.5 -19.5 70 -53.5 q27.5 -34 34.5 -77 q-13 -47 -58 -47 q-28 0 -47.5 17.5 q-19.5 17.5 -24.5 59.5 Z" /><glyph glyph-name="d" unicode="d" d="M422 88 l0 362 q-25 21 -48.5 29.5 q-23.5 8.5 -46.5 8.5 q-39 0 -72.5 -21 q-33.5 -21 -53.5 -69 q-20 -48 -20 -130 q0 -119 41 -169.5 q41 -50.5 103 -50.5 q27 0 50.5 9 q23.5 9 46.5 31 ZM554 37 l75 -6 l0 -31 l-197 -11 l-7 67 q-30 -34 -68.5 -53 q-38.5 -19 -86.5 -19 q-65 0 -117 33.5 q-52 33.5 -82 96 q-30 62.5 -30 148.5 q0 91 32 155.5 q32 64.5 87 99 q55 34.5 123 34.5 q41 0 77 -16.5 q36 -16.5 67 -53.5 l0 260 l-86 7 l0 28 l202 43 l14 -9 l-3 -158 l0 -615 Z" /><glyph glyph-name="e" unicode="e" d="M180 307 l171 0 q35 0 46 18 q11 18 11 56 q0 61 -29 97 q-29 36 -75 36 q-47 0 -83 -48.5 q-36 -48.5 -41 -158.5 ZM526 270 l-346 0 q2 -76 26 -125 q24 -49 63.5 -72 q39.5 -23 87.5 -23 q54 0 89 21 q35 21 61 56 l20 -14 q-30 -61 -85.5 -95 q-55.5 -34 -129.5 -34 q-78 0 -139.5 33 q-61.5 33 -96.5 96.5 q-35 63.5 -35 154.5 q0 90 39 153 q39 63 101 96.5 q62 33.5 132 33.5 q69 0 118 -28.5 q49 -28.5 75.5 -78 q26.5 -49.5 26.5 -112.5 q0 -38 -7 -62 Z" /><glyph glyph-name="f" unicode="f" d="M30 526 l86 10 q8 86 30.5 138.5 q22.5 52.5 56.5 86.5 q40 38 83 53.5 q43 15.5 86 15.5 q42 0 75.5 -15.5 q33.5 -15.5 42.5 -51.5 q-1 -25 -18 -42 q-17 -17 -49 -17 q-25 0 -46.5 13.5 q-21.5 13.5 -41.5 46.5 l-21 28 q-21 -11 -31 -29 q-23 -34 -32 -88 q-9 -54 -6 -140 l138 0 l0 -42 l-137 0 l0 -258 q0 -49 0.5 -97 q0.5 -48 1.5 -96 l95 -11 l0 -31 l-308 0 l0 31 l77 9 q3 96 3 195 l0 258 l-85 0 l0 33 Z" /><glyph glyph-name="g" unicode="g" d="M270 217 q48 0 74.5 41.5 q26.5 41.5 26.5 111.5 q0 68 -26 108 q-26 40 -72 40 q-46 0 -72.5 -40.5 q-26.5 -40.5 -26.5 -110.5 q0 -69 25 -109.5 q25 -40.5 71 -40.5 ZM363 -27 l-116 0 q-34 0 -55.5 2 q-21.5 2 -40.5 6 q-17 -20 -25.5 -40 q-8.5 -20 -8.5 -46 q0 -55 40 -84 q40 -29 108 -29 q97 0 145.5 30.5 q48.5 30.5 48.5 76.5 q0 35 -21 59.5 q-21 24.5 -75 24.5 ZM573 540 l0 -73 l-117 9 q33 -43 33 -107 q0 -82 -56.5 -134 q-56.5 -52 -161.5 -52 q-31 0 -58 5 q-27 5 -50 14 q-22 -31 -22 -63 q0 -27 17 -41 q17 -14 59 -14 l147 0 q107 0 154 -39.5 q47 -39.5 47 -107.5 q0 -52 -34 -97 q-34 -45 -100.5 -72.5 q-66.5 -27.5 -165.5 -27.5 q-85 0 -137 18 q-52 18 -75 49 q-23 31 -23 68 q0 35 25 64 q25 29 77 51 q-34 13 -53 34.5 q-19 21.5 -19 55.5 q0 35 19 65 q19 30 62 68 q-86 49 -86 156 q0 81 56 131.5 q56 50.5 162 50.5 q50 0 89.5 -12 q39.5 -12 66.5 -35 l127 47 l17 -11 Z" /><glyph glyph-name="h" unicode="h" d="M587 39 l68 -8 l0 -31 l-274 0 l0 31 l72 9 q1 42 1.5 97 q0.5 55 0.5 98 l0 128 q0 65 -21 91 q-21 26 -60 26 q-30 0 -62.5 -15.5 q-32.5 -15.5 -69.5 -49.5 l0 -180 q0 -27 0.5 -62 q0.5 -35 1 -70 q0.5 -35 1.5 -64 l64 -8 l0 -31 l-272 0 l0 31 l73 9 q1 29 1 63.5 q0 34.5 0.5 69.5 q0.5 35 0.5 62 l0 507 l-81 6 l0 28 l198 43 l15 -9 l-4 -159 l0 -203 q45 52 91 77.5 q46 25.5 101 25.5 q71 0 112 -46 q41 -46 41 -150 l0 -120 q0 -43 0.5 -98 q0.5 -55 1.5 -98 Z" /><glyph glyph-name="i" unicode="i" d="M176 662 q-32 0 -55.5 21 q-23.5 21 -23.5 53 q0 34 23.5 54.5 q23.5 20.5 55.5 20.5 q32 0 55.5 -20.5 q23.5 -20.5 23.5 -54.5 q0 -32 -23.5 -53 q-23.5 -21 -55.5 -21 ZM247 39 l67 -8 l0 -31 l-275 0 l0 31 l73 9 q1 29 1 63.5 q0 34.5 0.5 69.5 q0.5 35 0.5 62 l0 71 q0 48 -0.5 81.5 q-0.5 33.5 -2.5 70.5 l-81 8 l0 27 l203 57 l14 -9 l-2 -156 l0 -150 q0 -27 0.5 -62 q0.5 -35 1 -70 q0.5 -35 0.5 -64 Z" /><glyph glyph-name="j" unicode="j" d="M173 662 q-32 0 -55 21 q-23 21 -23 53 q0 34 23 54.5 q23 20.5 55 20.5 q33 0 55.5 -20.5 q22.5 -20.5 22.5 -54.5 q0 -32 -22.5 -53 q-22.5 -21 -55.5 -21 ZM27 493 l203 57 l14 -9 l-4 -156 l0 -296 q0 -83 -5.5 -136.5 q-5.5 -53.5 -20 -89 q-14.5 -35.5 -41.5 -64.5 q-37 -40 -75 -55 q-38 -15 -82 -15 q-59 0 -88 19.5 q-29 19.5 -37 42.5 q4 30 26 46.5 q22 16.5 48 16.5 q26 0 48 -11.5 q22 -11.5 39 -37.5 l22 -31 q6 6 11 14 q5 8 9 18 q14 38 15.5 115 q1.5 77 1.5 181 l0 201 q0 48 -1 83.5 q-1 35.5 -3 71.5 l-80 8 l0 27 Z" /><glyph glyph-name="k" unicode="k" d="M574 39 l68 -8 l0 -31 l-190 0 l-153 289 l-57 -54 q0 -44 1 -98.5 q1 -54.5 2 -97.5 l71 -8 l0 -31 l-281 0 l0 31 l75 9 q1 44 1.5 98.5 q0.5 54.5 0.5 96.5 l0 507 l-81 6 l0 28 l201 43 l14 -9 l-4 -159 l0 -369 l210 207 l-96 14 l0 32 l258 0 l0 -32 l-100 -11 l-124 -118 l184 -335 Z" /><glyph glyph-name="l" unicode="l" d="M245 39 l77 -8 l0 -31 l-290 0 l0 31 l77 9 q2 47 2.5 97.5 q0.5 50.5 0.5 97.5 l0 507 l-81 6 l0 28 l201 43 l14 -9 l-4 -159 l0 -416 q0 -47 1 -97.5 q1 -50.5 2 -98.5 Z" /><glyph glyph-name="m" unicode="m" d="M912 39 l68 -8 l0 -31 l-270 0 l0 31 l69 9 q1 43 1.5 97.5 q0.5 54.5 0.5 97.5 l0 122 q0 71 -19.5 96.5 q-19.5 25.5 -58.5 25.5 q-63 0 -130 -66 q2 -13 3 -27 q1 -14 1 -29 l0 -122 q0 -43 1 -98 q1 -55 2 -98 l65 -8 l0 -31 l-271 0 l0 31 l72 9 q1 43 1.5 97.5 q0.5 54.5 0.5 97.5 l0 121 q0 68 -19 95.5 q-19 27.5 -59 27.5 q-30 0 -62 -17.5 q-32 -17.5 -64 -49.5 l0 -177 q0 -27 0.5 -62 q0.5 -35 1 -70 q0.5 -35 0.5 -64 l65 -8 l0 -31 l-274 0 l0 31 l73 9 q1 29 1 63.5 q0 34.5 0.5 69.5 q0.5 35 0.5 62 l0 72 q0 50 -0.5 82 q-0.5 32 -3.5 67 l-79 8 l0 25 l192 61 l14 -9 l7 -90 q87 100 185 100 q110 0 139 -104 q48 57 94.5 80.5 q46.5 23.5 95.5 23.5 q77 0 115.5 -47.5 q38.5 -47.5 38.5 -148.5 l0 -120 q0 -43 0.5 -98 q0.5 -55 1.5 -98 Z" /><glyph glyph-name="n" unicode="n" d="M587 39 l68 -8 l0 -31 l-274 0 l0 31 l70 9 q2 42 2.5 97 q0.5 55 0.5 98 l0 128 q0 65 -19 91 q-19 26 -60 26 q-28 0 -61 -15.5 q-33 -15.5 -70 -49.5 l0 -180 q0 -27 0.5 -62 q0.5 -35 1 -70 q0.5 -35 0.5 -64 l65 -8 l0 -31 l-274 0 l0 31 l73 9 q1 29 1 63.5 q0 34.5 0.5 69.5 q0.5 35 0.5 62 l0 72 q0 49 -1 81 q-1 32 -3 68 l-79 8 l0 25 l192 61 l14 -9 l7 -91 q47 55 94 78 q47 23 96 23 q71 0 112 -46.5 q41 -46.5 41 -147.5 l0 -122 q0 -43 0.5 -98 q0.5 -55 1.5 -98 Z" /><glyph glyph-name="o" unicode="o" d="M311 -16 q-78 0 -139 34 q-61 34 -96 98 q-35 64 -35 153 q0 90 37 153 q37 63 98.5 96 q61.5 33 134.5 33 q73 0 134 -33 q61 -33 98.5 -96 q37.5 -63 37.5 -153 q0 -90 -35.5 -153.5 q-35.5 -63.5 -96.5 -97.5 q-61 -34 -138 -34 ZM311 21 q61 0 95 61.5 q34 61.5 34 185.5 q0 124 -34 185 q-34 61 -95 61 q-62 0 -95.5 -61 q-33.5 -61 -33.5 -185 q0 -124 33.5 -185.5 q33.5 -61.5 95.5 -61.5 Z" /><glyph glyph-name="p" unicode="p" d="M246 443 l0 -358 q23 -21 47.5 -29 q24.5 -8 52.5 -8 q41 0 73 21 q32 21 50 69.5 q18 48.5 18 129.5 q0 119 -36 170 q-36 51 -98 51 q-24 0 -49.5 -8.5 q-25.5 -8.5 -57.5 -37.5 ZM235 540 l7 -66 q36 41 80 59 q44 18 90 18 q61 0 109.5 -33 q48.5 -33 77.5 -95.5 q29 -62.5 29 -151.5 q0 -88 -31.5 -152.5 q-31.5 -64.5 -85.5 -99.5 q-54 -35 -120 -35 q-39 0 -76.5 15.5 q-37.5 15.5 -70.5 53.5 l0 -69 q0 -45 0.5 -97.5 q0.5 -52.5 1.5 -106.5 l86 -10 l0 -30 l-295 0 l0 30 l76 9 q1 54 1.5 106.5 q0.5 52.5 0.5 98.5 l0 322 q0 49 -0.5 81.5 q-0.5 32.5 -2.5 68.5 l-81 8 l0 25 l190 61 l14 -10 Z" /><glyph glyph-name="q" unicode="q" d="M424 88 l0 358 q-26 23 -50 32.5 q-24 9.5 -49 9.5 q-40 0 -73 -22 q-33 -22 -52 -71.5 q-19 -49.5 -19 -130.5 q0 -79 18.5 -126.5 q18.5 -47.5 51 -68.5 q32.5 -21 74.5 -21 q27 0 51 9 q24 9 48 31 ZM558 -221 l71 -9 l0 -30 l-291 0 l0 30 l86 10 q3 98 3 195 l0 85 q-33 -38 -74 -57 q-41 -19 -88 -19 q-65 0 -115.5 33 q-50.5 33 -79.5 95.5 q-29 62.5 -29 149.5 q0 89 32 153.5 q32 64.5 87.5 100 q55.5 35.5 124.5 35.5 q42 0 80.5 -18 q38.5 -18 69.5 -59 l110 74 l14 -8 l-4 -151 l0 -414 q0 -98 3 -196 Z" /><glyph glyph-name="r" unicode="r" d="M235 541 l9 -139 q24 72 69 110.5 q45 38.5 90 38.5 q32 0 56.5 -14.5 q24.5 -14.5 33.5 -49.5 q-2 -34 -18 -55 q-16 -21 -51 -21 q-25 0 -42.5 13 q-17.5 13 -36.5 35 l-11 12 q-31 -25 -52.5 -59.5 q-21.5 -34.5 -37.5 -87.5 l0 -89 q0 -40 0.5 -94.5 q0.5 -54.5 1.5 -97.5 l92 -12 l0 -31 l-301 0 l0 31 l73 9 q1 29 1 63.5 q0 34.5 0.5 69.5 q0.5 35 0.5 62 l0 72 q0 49 -1 81 q-1 32 -3 68 l-79 8 l0 25 l192 61 l14 -9 Z" /><glyph glyph-name="s" unicode="s" d="M260 337 l52 -16 q79 -26 113.5 -66.5 q34.5 -40.5 34.5 -98.5 q0 -76 -59.5 -124 q-59.5 -48 -169.5 -48 q-54 0 -98 12 q-44 12 -87 34 l4 130 l58 0 l28 -121 q38 -16 87 -16 q60 0 91 22.5 q31 22.5 31 63.5 q0 33 -21 56 q-21 23 -80 42 l-55 18 q-64 20 -101.5 57.5 q-37.5 37.5 -37.5 98.5 q0 72 54.5 121 q54.5 49 157.5 49 q48 0 87.5 -11.5 q39.5 -11.5 80.5 -33.5 l-7 -120 l-51 0 l-31 108 q-18 9 -36 13.5 q-18 4.5 -40 4.5 q-49 0 -76.5 -22 q-27.5 -22 -27.5 -59 q0 -31 20.5 -53 q20.5 -22 78.5 -41 Z" /><glyph glyph-name="t" unicode="t" d="M367 74 l18 -19 q-22 -34 -57.5 -52.5 q-35.5 -18.5 -86.5 -18.5 q-69 0 -106 35.5 q-37 35.5 -37 111.5 q0 24 0.5 47 q0.5 23 0.5 53 l0 262 l-86 0 l0 33 l93 10 l43 157 l86 0 l-3 -158 l132 0 l0 -42 l-133 0 l0 -370 q0 -42 17.5 -60.5 q17.5 -18.5 47.5 -18.5 q20 0 35.5 7.5 q15.5 7.5 35.5 22.5 Z" /><glyph glyph-name="u" unicode="u" d="M572 37 l68 -7 l0 -30 l-192 -11 l-7 100 q-36 -46 -84.5 -75.5 q-48.5 -29.5 -104.5 -29.5 q-72 0 -113.5 45.5 q-41.5 45.5 -40.5 157.5 l4 290 l-75 14 l0 28 l198 26 l11 -11 l-6 -160 l0 -194 q0 -66 22.5 -91.5 q22.5 -25.5 63.5 -25.5 q34 0 65 15.5 q31 15.5 59 43.5 l2 356 l-71 13 l0 26 l193 28 l11 -11 l-3 -160 l0 -337 Z" /><glyph glyph-name="v" unicode="v" d="M570 535 l0 -32 l-69 -11 l-188 -495 l-58 0 l-199 498 l-64 8 l0 32 l287 0 l0 -32 l-80 -9 l132 -365 l123 363 l-82 11 l0 32 l198 0 Z" /><glyph glyph-name="w" unicode="w" d="M865 535 l0 -32 l-68 -11 l-169 -495 l-56 0 q-40 109 -67 182.5 q-27 73.5 -44.5 124.5 q-17.5 51 -29.5 91 l-144 -398 l-56 0 l-180 499 l-57 7 l0 32 l274 0 l0 -32 l-81 -8 l116 -367 l122 366 l-79 9 l0 32 l249 0 l0 -32 l-78 -10 l126 -359 l107 357 l-90 12 l0 32 l205 0 Z" /><glyph glyph-name="y" unicode="y" d="M583 535 l0 -31 l-65 -9 l-205 -544 q-31 -83 -67.5 -132 q-36.5 -49 -73.5 -69.5 q-37 -20.5 -71 -20.5 q-40 0 -71.5 20.5 q-31.5 20.5 -32.5 51.5 q5 29 28 42.5 q23 13.5 49 13.5 q28 0 48.5 -13 q20.5 -13 39.5 -36 l14 -16 q32 26 56.5 66.5 q24.5 40.5 46.5 95.5 l-224 544 l-59 6 l0 31 l284 0 l0 -31 l-82 -9 l141 -385 l130 384 l-94 10 l0 31 l208 0 Z" /><glyph glyph-name="braceleft" unicode="{" d="M346 762 l-32 -4 q-52 -4 -74.5 -27.5 q-22.5 -23.5 -22.5 -70.5 q0 -37 8 -73.5 q8 -36.5 16.5 -70.5 q8.5 -34 8.5 -64 q0 -53 -28.5 -91 q-28.5 -38 -104.5 -50 q76 -13 104.5 -51 q28.5 -38 28.5 -91 q0 -30 -8.5 -64 q-8.5 -34 -16.5 -70 q-8 -36 -8 -74 q0 -46 22.5 -69.5 q22.5 -23.5 74.5 -28.5 l32 -4 l0 -37 l-39 0 q-90 0 -141.5 35.5 q-51.5 35.5 -51.5 105.5 q0 44 14.5 83 q14.5 39 28.5 74 q14 35 14 68 q0 39 -26 66.5 q-26 27.5 -100 37.5 l0 38 q74 9 100 36.5 q26 27.5 26 66.5 q0 33 -14 68 q-14 35 -28.5 74 q-14.5 39 -14.5 83 q0 71 51.5 106 q51.5 35 141.5 35 l39 0 l0 -37 Z" /><glyph glyph-name="bar" unicode="|" d="M109 -279 l0 1117 l73 0 l0 -1117 l-73 0 Z" /><glyph glyph-name="braceright" unicode="}" d="M335 330 l0 -38 q-73 -10 -99.5 -37.5 q-26.5 -27.5 -26.5 -66.5 q0 -33 14.5 -68 q14.5 -35 28.5 -74 q14 -39 14 -83 q0 -70 -51.5 -105.5 q-51.5 -35.5 -141.5 -35.5 l-39 0 l0 37 l32 4 q52 5 74.5 28.5 q22.5 23.5 22.5 69.5 q0 38 -8.5 74 q-8.5 36 -16.5 70 q-8 34 -8 64 q0 53 28.5 91 q28.5 38 104.5 51 q-76 12 -104.5 50 q-28.5 38 -28.5 91 q0 30 8 64 q8 34 16.5 70.5 q8.5 36.5 8.5 73.5 q0 47 -22.5 70.5 q-22.5 23.5 -74.5 27.5 l-32 4 l0 37 l39 0 q90 0 141.5 -35 q51.5 -35 51.5 -106 q0 -44 -14 -83 q-14 -39 -28.5 -74 q-14.5 -35 -14.5 -68 q0 -39 26.5 -66.5 q26.5 -27.5 99.5 -36.5 Z" /><glyph glyph-name="cid01397" unicode="&#x3001;" d="M33 166 l9 13 q101 -18 158.5 -51 q57.5 -33 85.5 -75 q13 -18 17 -34.5 q4 -16.5 4 -32.5 q0 -30 -17.5 -48 q-17.5 -18 -46.5 -18 q-22 0 -38 10.5 q-16 10.5 -27 34.5 q-13 28 -29.5 61 q-16.5 33 -43.5 68.5 q-27 35.5 -72 71.5 Z" /><glyph glyph-name="cid01398" unicode="&#x3002;" d="M183 -83 q-39 0 -71 19.5 q-32 19.5 -51.5 51.5 q-19.5 32 -19.5 71 q0 39 19.5 71 q19.5 32 51.5 51 q32 19 71 19 q39 0 71 -19 q32 -19 51 -51 q19 -32 19 -71 q0 -39 -19 -71 q-19 -32 -51 -51.5 q-32 -19.5 -71 -19.5 ZM183 164 q-44 0 -75 -30.5 q-31 -30.5 -31 -74.5 q0 -43 31 -74.5 q31 -31.5 75 -31.5 q44 0 74.5 31.5 q30.5 31.5 30.5 74.5 q0 44 -30.5 74.5 q-30.5 30.5 -74.5 30.5 Z" /><glyph glyph-name="cid09502" unicode="&#x2f00;&#x4e00;" d="M36 422 l706 0 l83 116 q0 0 15 -13 q15 -13 38 -33.5 q23 -20.5 48 -43 q25 -22.5 46 -42.5 q-4 -16 -31 -16 l-896 0 l-9 32 Z" /><glyph glyph-name="cid09514" unicode="&#x4e0a;" d="M767 -7 l73 93 q0 0 13 -10.5 q13 -10.5 33.5 -26.5 q20.5 -16 43 -34 q22.5 -18 41.5 -34 q-4 -16 -29 -16 l-903 0 l-8 28 l372 0 l0 843 l166 -16 q-2 -10 -9.5 -17.5 q-7.5 -7.5 -27.5 -10.5 l0 -335 l164 0 l72 92 q0 0 13 -10 q13 -10 33 -26 q20 -16 42 -34 q22 -18 40 -34 q-4 -16 -27 -16 l-337 0 l0 -436 l235 0 Z" /><glyph glyph-name="cid09519" unicode="&#x4e0d;" d="M934 724 l-318 0 q-18 -43 -40.5 -86.5 q-22.5 -43.5 -49.5 -85.5 l62 -23 q-5 -15 -31 -19 l0 -573 q0 -3 -15.5 -9.5 q-15.5 -6.5 -38 -11.5 q-22.5 -5 -44.5 -5 l-22 0 l0 518 q-81 -99 -183 -184.5 q-102 -85.5 -221 -147.5 l-8 8 q75 61 143.5 135.5 q68.5 74.5 125.5 156 q57 81.5 99.5 165 q42.5 83.5 65.5 162.5 l-412 0 l-8 28 l721 0 l72 92 q0 0 13.5 -10 q13.5 -10 34 -26 q20.5 -16 43 -34 q22.5 -18 40.5 -34 q-4 -16 -29 -16 ZM589 462 l9 9 q113 -24 187 -60.5 q74 -36.5 114.5 -76 q40.5 -39.5 53.5 -76 q13 -36.5 4.5 -62.5 q-8.5 -26 -32.5 -34.5 q-24 -8.5 -58 7.5 q-27 51 -73.5 105 q-46.5 54 -100.5 103 q-54 49 -104 85 Z" /><glyph glyph-name="cid09521" unicode="&#x4e0e;" d="M505 251 l66 84 q0 0 20.5 -16 q20.5 -16 48.5 -38.5 q28 -22.5 50 -42.5 q-4 -16 -28 -16 l-617 0 l-8 29 l468 0 ZM754 659 l68 84 q0 0 12.5 -9 q12.5 -9 32 -24 q19.5 -15 40.5 -32 q21 -17 39 -32 q-4 -16 -29 -16 l-577 0 q-7 -46 -14.5 -91.5 q-7.5 -45.5 -14.5 -82.5 l427 0 l65 63 l110 -94 q-7 -7 -17.5 -11.5 q-10.5 -4.5 -27.5 -6.5 q-15 -182 -45 -298.5 q-30 -116.5 -79 -154.5 q-28 -24 -64.5 -34.5 q-36.5 -10.5 -89.5 -10.5 q0 26 -5.5 47.5 q-5.5 21.5 -19.5 34.5 q-15 15 -48 27.5 q-33 12.5 -73 19.5 l1 13 q29 -2 64 -5 q35 -3 65.5 -5 q30.5 -2 43.5 -2 q26 0 42 13 q20 15 36.5 66.5 q16.5 51.5 29.5 131 q13 79.5 21 178.5 l-434 0 l-43 -53 l-112 65 q6 6 15 12 q9 6 19 12 q9 40 18 93.5 q9 53.5 17 109 q8 55.5 13.5 104.5 q5.5 49 7.5 80 l154 -31 q-3 -9 -11.5 -16.5 q-8.5 -7.5 -27.5 -6.5 q-3 -27 -8 -62.5 q-5 -35.5 -11 -75.5 l410 0 Z" /><glyph glyph-name="cid09530" unicode="&#x4e13;" d="M773 490 l67 89 q0 0 12 -10 q12 -10 31 -25.5 q19 -15.5 39.5 -33.5 q20.5 -18 37.5 -33 q-4 -16 -28 -16 l-487 0 q-11 -40 -22.5 -76.5 q-11.5 -36.5 -21.5 -67.5 l258 0 l68 65 l113 -108 q-6 -7 -15.5 -9 q-9.5 -2 -26.5 -4 q-27 -25 -64.5 -55 q-37.5 -30 -78.5 -59.5 q-41 -29.5 -81 -55.5 q63 -30 92 -65 q29 -35 31 -66 q2 -31 -18.5 -48.5 q-20.5 -17.5 -58.5 -10.5 q-31 35 -76.5 70 q-45.5 35 -99 67 q-53.5 32 -108.5 58.5 q-55 26.5 -105 43.5 l6 12 q101 0 176.5 -13 q75.5 -13 129.5 -34 q31 42 61.5 91.5 q30.5 49.5 52.5 91.5 l-258 0 l-46 -54 l-116 74 q8 6 18 12 q10 6 20 12 q11 27 22 60 q11 33 22 69 l-273 0 l-8 29 l291 0 q12 41 24.5 83 q12.5 42 23.5 83 l-273 0 l-8 29 l288 0 q14 53 24.5 98 q10.5 45 16.5 76 l158 -47 q-4 -7 -13.5 -13.5 q-9.5 -6.5 -29.5 -5.5 q-6 -22 -13.5 -49.5 q-7.5 -27.5 -16.5 -58.5 l183 0 l64 84 q0 0 20 -16 q20 -16 47 -38.5 q27 -22.5 48 -42.5 q-4 -16 -27 -16 l-343 0 q-11 -40 -23.5 -82 q-12.5 -42 -24.5 -84 l319 0 Z" /><glyph glyph-name="cid09531" unicode="&#x4e14;" d="M347 223 l0 -233 l302 0 l0 233 l-302 0 ZM649 731 l-302 0 l0 -222 l302 0 l0 222 ZM649 252 l0 228 l-302 0 l0 -228 l302 0 ZM795 -10 l68 94 q0 0 12.5 -10.5 q12.5 -10.5 31 -27 q18.5 -16.5 39.5 -35 q21 -18.5 37 -34.5 q-4 -16 -28 -16 l-916 0 l-8 29 l198 0 l0 818 l127 -49 l283 0 l52 68 l127 -89 q-9 -14 -46 -20 l0 -728 l23 0 Z" /><glyph glyph-name="cid09535" unicode="&#x4e16;" d="M678 268 l0 251 l-136 0 l0 -251 l136 0 ZM812 547 l62 84 q0 0 18.5 -16 q18.5 -16 44 -38 q25.5 -22 45.5 -42 q-3 -16 -27 -16 l-159 0 l0 -321 q0 -5 -14.5 -13 q-14.5 -8 -36.5 -14.5 q-22 -6.5 -45 -6.5 l-22 0 l0 76 l-136 0 l0 -65 q0 -5 -14.5 -13.5 q-14.5 -8.5 -36 -15 q-21.5 -6.5 -44.5 -6.5 l-21 0 l0 379 l-130 0 l0 -503 l467 0 l68 92 q0 0 12.5 -10 q12.5 -10 31.5 -26 q19 -16 40 -34.5 q21 -18.5 38 -34.5 q-4 -16 -29 -16 l-621 0 l-36 -59 l-119 69 q11 16 30 30 l0 492 l-140 0 l-9 28 l149 0 l0 277 l154 -16 q-1 -10 -9 -17.5 q-8 -7.5 -27 -10.5 l0 -233 l130 0 l0 297 l153 -14 q-2 -10 -9.5 -18 q-7.5 -8 -27.5 -11 l0 -254 l136 0 l0 282 l155 -15 q-1 -10 -8.5 -17.5 q-7.5 -7.5 -28.5 -10.5 l0 -239 l16 0 Z" /><glyph glyph-name="cid09539" unicode="&#x4e1a;" d="M86 634 l14 5 q76 -67 121.5 -132.5 q45.5 -65.5 66.5 -124 q21 -58.5 22 -104 q1 -45.5 -12.5 -72.5 q-13.5 -27 -37 -30 q-23.5 -3 -52.5 24 q-3 69 -22 145.5 q-19 76.5 -45.5 151 q-26.5 74.5 -54.5 137.5 ZM782 6 l68 98 q0 0 13 -11 q13 -11 32.5 -28 q19.5 -17 40.5 -36 q21 -19 38 -36 q-4 -16 -29 -16 l-897 0 l-8 29 l294 0 l0 827 l148 -14 q-1 -10 -8 -17 q-7 -7 -24 -9 l0 -787 l109 0 l0 826 l147 -14 q-1 -10 -7.5 -17 q-6.5 -7 -24.5 -9 l0 -566 q25 68 48.5 142 q23.5 74 43.5 145 q20 71 34 130 l158 -53 q-4 -9 -14 -14.5 q-10 -5.5 -27 -4.5 q-26 -54 -64.5 -124 q-38.5 -70 -84.5 -144 q-46 -74 -94 -141 l0 -156 l108 0 Z" /><glyph glyph-name="cid09559" unicode="&#x4e2a;" d="M432 551 l165 -15 q-1 -10 -9 -18 q-8 -8 -28 -11 l0 -562 q0 -5 -16 -14 q-16 -9 -40 -15.5 q-24 -6.5 -49 -6.5 l-23 0 l0 642 ZM517 766 q-30 -59 -77.5 -121.5 q-47.5 -62.5 -110 -122.5 q-62.5 -60 -137.5 -110 q-75 -50 -159 -84 l-6 11 q66 47 125.5 108 q59.5 61 108.5 129.5 q49 68.5 85.5 138.5 q36.5 70 56.5 136 l178 -49 q-3 -10 -13 -16 q-10 -6 -36 -9 q47 -65 115.5 -122.5 q68.5 -57.5 152 -102.5 q83.5 -45 176.5 -75 l-2 -15 q-37 -14 -58 -47 q-21 -33 -31 -68 q-128 68 -221 175.5 q-93 107.5 -147 243.5 Z" /><glyph glyph-name="cid09562" unicode="&#x4e2d;" d="M561 333 l225 0 l0 267 l-225 0 l0 -267 ZM213 333 l223 0 l0 267 l-223 0 l0 -267 ZM833 691 l119 -90 q-5 -6 -15 -12.5 q-10 -6.5 -26 -9.5 l0 -329 q0 -4 -17.5 -11 q-17.5 -7 -41.5 -13 q-24 -6 -45 -6 l-21 0 l0 84 l-225 0 l0 -350 q0 -6 -15.5 -16.5 q-15.5 -10.5 -39 -18.5 q-23.5 -8 -47.5 -8 l-23 0 l0 393 l-223 0 l0 -59 q0 -6 -16 -15.5 q-16 -9.5 -40 -17 q-24 -7.5 -50 -7.5 l-18 0 l0 476 l133 -52 l214 0 l0 219 l162 -15 q-1 -10 -9 -18 q-8 -8 -28 -11 l0 -175 l216 0 l56 62 Z" /><glyph glyph-name="cid09580" unicode="&#x4e3a;" d="M140 806 l9 6 q75 -16 118.5 -43 q43.5 -27 61 -57.5 q17.5 -30.5 15 -57.5 q-2.5 -27 -19.5 -44.5 q-17 -17.5 -42.5 -18.5 q-25.5 -1 -53.5 21 q-6 51 -32 103.5 q-26 52.5 -56 90.5 ZM514 421 l10 5 q73 -25 114 -58 q41 -33 55.5 -67 q14.5 -34 9.5 -62.5 q-5 -28.5 -24 -45.5 q-19 -17 -45 -16 q-26 1 -54 27 q1 56 -19 113.5 q-20 57.5 -47 103.5 ZM850 628 l112 -97 q-6 -7 -16.5 -12.5 q-10.5 -5.5 -27.5 -7.5 q-5 -164 -14 -276.5 q-9 -112.5 -26 -179 q-17 -66.5 -46 -94.5 q-28 -26 -65 -35.5 q-37 -9.5 -90 -9.5 q0 26 -5 44 q-5 18 -19 31 q-16 15 -47 26 q-31 11 -70 18 l1 14 q26 -2 58 -5 q32 -3 59.5 -4.5 q27.5 -1.5 40.5 -1.5 q14 0 22.5 3 q8.5 3 16.5 10 q18 16 30 79 q12 63 19 165.5 q7 102.5 11 236.5 l-261 0 q-12 -86 -41 -169.5 q-29 -83.5 -83.5 -162.5 q-54.5 -79 -143.5 -150.5 q-89 -71.5 -222 -133.5 l-11 15 q132 92 209 190.5 q77 98.5 114.5 202 q37.5 103.5 50.5 208.5 l-335 0 l-9 29 l347 0 q8 71 9 142.5 q1 71.5 1 142.5 l167 -17 q-1 -11 -9 -18 q-8 -7 -26 -10 q-2 -59 -4.5 -119 q-2.5 -60 -9.5 -121 l247 0 l66 67 Z" /><glyph glyph-name="cid09633" unicode="&#x4e5f;" d="M904 242 l4 -170 q34 -11 47 -22.5 q13 -11.5 13 -28.5 q0 -24 -15.5 -40 q-15.5 -16 -55 -25.5 q-39.5 -9.5 -111.5 -13.5 q-72 -4 -185 -4 l-194 0 q-76 0 -124 9 q-48 9 -71 37.5 q-23 28.5 -23 87.5 l0 366 l-150 -50 l-18 25 l168 56 l0 301 l152 -15 q-1 -10 -9 -17.5 q-8 -7.5 -27 -10.5 l0 -220 l148 50 l0 290 l155 -15 q-2 -10 -9.5 -17.5 q-7.5 -7.5 -27.5 -10.5 l0 -208 l168 56 l59 57 l103 -86 q-11 -14 -39 -18 q-3 -126 -10 -204.5 q-7 -78.5 -21 -121 q-14 -42.5 -38 -62.5 q-22 -18 -50.5 -27.5 q-28.5 -9.5 -65.5 -9.5 q0 28 -3.5 49 q-3.5 21 -11.5 32 q-20 25 -69 37 l0 14 q20 -2 48.5 -4 q28.5 -2 41.5 -2 q11 0 17.5 2.5 q6.5 2.5 10.5 6.5 q17 15 24.5 89 q7.5 74 11.5 221 l-176 -59 l0 -382 q0 -5 -14.5 -13.5 q-14.5 -8.5 -37 -15 q-22.5 -6.5 -45.5 -6.5 l-21 0 l0 377 l-148 -49 l0 -374 q0 -30 21 -41 q21 -11 76 -11 l208 0 q56 0 99.5 1 q43.5 1 67.5 3 q20 2 30.5 6.5 q10.5 4.5 18.5 14.5 q13 19 29 57 q16 38 38 109 l11 0 Z" /><glyph glyph-name="cid09687" unicode="&#x4e86;&#xf9ba;" d="M811 823 l115 -103 q-7 -7 -16.5 -9 q-9.5 -2 -26.5 -4 q-60 -40 -138 -84.5 q-78 -44.5 -157 -80.5 l10 -1 q-2 -11 -10 -17.5 q-8 -6.5 -25 -9.5 l0 -455 q0 -42 -12 -72.5 q-12 -30.5 -50 -48.5 q-38 -18 -116 -25 q-4 29 -10.5 50 q-6.5 21 -23.5 35 q-17 15 -43.5 25.5 q-26.5 10.5 -79.5 18.5 l0 13 q0 0 16 -1 q16 -1 41 -2.5 q25 -1.5 51.5 -3 q26.5 -1.5 47.5 -2.5 q21 -1 30 -1 q14 0 19.5 5.5 q5.5 5.5 5.5 16.5 l0 488 l104 -9 q50 41 100 91 q50 50 85 90 l-616 0 l-9 29 l637 0 l71 67 Z" /><glyph glyph-name="cid09695" unicode="&#x4e8e;" d="M768 451 l72 89 q0 0 13 -10 q13 -10 33 -25.5 q20 -15.5 42.5 -33 q22.5 -17.5 40.5 -33.5 q-4 -16 -29 -16 l-375 0 l0 -357 q0 -41 -11.5 -73.5 q-11.5 -32.5 -48 -53 q-36.5 -20.5 -111.5 -26.5 q-1 30 -8 52.5 q-7 22.5 -21 36.5 q-15 14 -39 25 q-24 11 -72 18 l0 13 q0 0 21 -1.5 q21 -1.5 50 -3 q29 -1.5 55.5 -3 q26.5 -1.5 36.5 -1.5 q24 0 24 22 l0 352 l-400 0 l-9 29 l409 0 l0 268 l-320 0 l-8 29 l589 0 l70 87 q0 0 13 -9.5 q13 -9.5 32.5 -25 q19.5 -15.5 41 -33 q21.5 -17.5 39.5 -32.5 q-4 -16 -27 -16 l-306 0 l0 -268 l203 0 Z" /><glyph glyph-name="cid09703" unicode="&#x4e92;" d="M340 245 l270 0 l32 269 l-255 0 q-11 -72 -23.5 -143 q-12.5 -71 -23.5 -126 ZM777 -6 l71 92 q0 0 13.5 -10 q13.5 -10 33.5 -26 q20 -16 42.5 -34.5 q22.5 -18.5 40.5 -34.5 q-4 -16 -29 -16 l-910 0 l-8 29 l546 0 l28 223 l-264 0 l-43 -54 l-116 66 q7 6 16 12.5 q9 6.5 19 11.5 q11 48 23.5 111.5 q12.5 63.5 23.5 131.5 q11 68 19.5 128.5 q8.5 60.5 11.5 100.5 l-224 0 l-8 29 l671 0 l70 90 q0 0 13 -10 q13 -10 33 -26 q20 -16 42.5 -33.5 q22.5 -17.5 40.5 -33.5 q-4 -16 -29 -16 l-483 0 q-5 -35 -12.5 -82 q-7.5 -47 -16.5 -100 l243 0 l53 64 l118 -97 q-11 -12 -42 -16 l-61 -500 l74 0 Z" /><glyph glyph-name="cid09713" unicode="&#x4e9a;" d="M454 728 l0 -718 l94 0 l0 718 l-94 0 ZM777 10 l70 98 q0 0 13 -11 q13 -11 32.5 -28 q19.5 -17 41 -36 q21.5 -19 39.5 -36 q-4 -16 -29 -16 l-900 0 l-9 29 l299 0 l0 718 l-258 0 l-8 28 l663 0 l69 89 q0 0 12.5 -10 q12.5 -10 32.5 -25.5 q20 -15.5 41.5 -33 q21.5 -17.5 39.5 -32.5 q-4 -16 -30 -16 l-228 0 l0 -473 q23 59 45 122 q22 63 40 119.5 q18 56.5 28 94.5 l147 -68 q-3 -7 -13 -13 q-10 -6 -27 -4 q-21 -38 -55.5 -92 q-34.5 -54 -77 -111 q-42.5 -57 -87.5 -107 l0 -186 l109 0 ZM123 564 l14 4 q69 -55 109 -110.5 q40 -55.5 56.5 -105.5 q16.5 -50 15 -89 q-1.5 -39 -17 -61.5 q-15.5 -22.5 -39.5 -23.5 q-24 -1 -52 26 q0 58 -13 120.5 q-13 62.5 -32.5 124 q-19.5 61.5 -40.5 115.5 Z" /><glyph glyph-name="cid09734" unicode="&#x4ea4;" d="M364 844 l8 6 q74 -5 118 -24.5 q44 -19.5 63.5 -45.5 q19.5 -26 20 -51.5 q0.5 -25.5 -14.5 -43.5 q-15 -18 -39.5 -22 q-24.5 -4 -53.5 14 q-10 46 -40 91.5 q-30 45.5 -62 75.5 ZM939 633 l-886 0 l-8 28 l735 0 l67 97 q0 0 12.5 -11 q12.5 -11 31 -27.5 q18.5 -16.5 39.5 -35.5 q21 -19 37 -35 q-4 -16 -28 -16 ZM592 599 l8 8 q101 -16 165 -46 q64 -30 98 -65.5 q34 -35.5 42.5 -69 q8.5 -33.5 -2 -58 q-10.5 -24.5 -34.5 -32 q-24 -7.5 -57 9.5 q-19 45 -55 92 q-36 47 -79.5 89 q-43.5 42 -85.5 72 ZM77 307 l-7 11 q51 41 94.5 94 q43.5 53 76.5 109 q33 56 51 105 l146 -74 q-3 -7 -11.5 -11.5 q-8.5 -4.5 -26.5 -2.5 q-33 -43 -82 -87 q-49 -44 -109.5 -81.5 q-60.5 -37.5 -131.5 -62.5 ZM624 449 l148 -64 q-4 -8 -13 -12 q-9 -4 -27 -3 q-28 -58 -66 -111 q-38 -53 -87 -101 q89 -50 192 -82 q103 -32 210 -49 l-2 -12 q-40 -7 -66.5 -34 q-26.5 -27 -39.5 -70 q-106 31 -197.5 76 q-91.5 45 -165.5 111 q-88 -67 -205 -115.5 q-117 -48.5 -268 -71.5 l-6 13 q134 40 237 101 q103 61 177 137 q-44 52 -79.5 115.5 q-35.5 63.5 -60.5 139.5 l13 10 q29 -65 73.5 -118 q44.5 -53 100.5 -95 q45 53 77.5 112.5 q32.5 59.5 54.5 122.5 Z" /><glyph glyph-name="cid09739" unicode="&#x4ea7;" d="M410 848 l8 6 q66 -1 103.5 -16 q37.5 -15 52.5 -36.5 q15 -21.5 12 -43 q-3 -21.5 -18.5 -36.5 q-15.5 -15 -39.5 -17 q-24 -2 -50 16 q-4 36 -24.5 70.5 q-20.5 34.5 -43.5 56.5 ZM744 450 l65 81 q0 0 20.5 -15.5 q20.5 -15.5 49 -37 q28.5 -21.5 51.5 -41.5 q-4 -16 -28 -16 l-648 0 l0 -85 q0 -45 -6.5 -101.5 q-6.5 -56.5 -28.5 -115.5 q-22 -59 -67.5 -113.5 q-45.5 -54.5 -122.5 -97.5 l-8 9 q53 65 78 137.5 q25 72.5 32.5 145 q7.5 72.5 7.5 136.5 l0 161 l134 -47 l306 0 q16 50 31 109.5 q15 59.5 24 105.5 l148 -33 q-2 -9 -11 -15 q-9 -6 -26 -7 q-24 -34 -61 -78 q-37 -44 -75 -82 l135 0 ZM287 659 l9 5 q67 -18 103.5 -44 q36.5 -26 49.5 -54 q13 -28 7.5 -52.5 q-5.5 -24.5 -24 -39 q-18.5 -14.5 -43 -13.5 q-24.5 1 -50.5 24 q-1 46 -17.5 92.5 q-16.5 46.5 -34.5 81.5 ZM780 704 l64 80 q0 0 20.5 -15 q20.5 -15 48 -36.5 q27.5 -21.5 49.5 -40.5 q-3 -16 -27 -16 l-883 0 l-8 28 l736 0 Z" /><glyph glyph-name="cid09773" unicode="&#x2f08;&#x4eba;" d="M390 834 l165 -16 q-1 -11 -9 -18.5 q-8 -7.5 -28 -9.5 q8 -144 32.5 -261 q24.5 -117 75.5 -208 q51 -91 136 -159.5 q85 -68.5 213 -115.5 l-2 -12 q-91 -17 -111 -117 q-94 50 -158 119 q-64 69 -103 155.5 q-39 86.5 -60.5 190 q-21.5 103.5 -30.5 223.5 q-7 -96 -28.5 -191 q-21.5 -95 -70.5 -184.5 q-49 -89.5 -137.5 -169.5 q-88.5 -80 -229.5 -148 l-11 14 q110 80 178.5 166.5 q68.5 86.5 105.5 177 q37 90.5 52 184.5 q15 94 18 189.5 q3 95.5 3 190.5 Z" /><glyph glyph-name="cid09785" unicode="&#x4ec5;" d="M269 572 l51 -19 q-5 -14 -31 -20 l0 -587 q0 -4 -14.5 -12.5 q-14.5 -8.5 -36.5 -15.5 q-22 -7 -45 -7 l-22 0 l0 535 q-64 -72 -138 -123 l-11 9 q44 61 87.5 144.5 q43.5 83.5 79.5 179.5 q36 96 59 195 l167 -54 q-2 -9 -12 -15 q-10 -6 -27 -5 q-47 -115 -107 -205 ZM773 714 l-292 0 q22 -130 62 -235 q40 -105 98 -188 q50 97 82.5 204 q32.5 107 49.5 219 ZM830 811 l110 -103 q-5 -9 -14 -13 q-9 -4 -28 -6 q-24 -130 -67.5 -253.5 q-43.5 -123.5 -121.5 -228.5 q56 -60 123.5 -105 q67.5 -45 144.5 -80 l-3 -14 q-41 -7 -69 -33 q-28 -26 -36 -64 q-139 85 -227 214 q-62 -64 -143.5 -117 q-81.5 -53 -186.5 -94 l-10 10 q92 56 164 127.5 q72 71.5 127 155.5 q-105 201 -134 507 l-61 0 l-9 29 l376 0 l65 68 Z" /><glyph glyph-name="cid09793" unicode="&#x4eca;" d="M698 310 l62 63 l111 -102 q-12 -14 -50 -17 q-21 -33 -50 -76.5 q-29 -43.5 -61.5 -91.5 q-32.5 -48 -65.5 -94 q-33 -46 -61 -84 q-26 -2 -57 4 q-31 6 -67 28 q40 54 82.5 114.5 q42.5 60.5 82 119.5 q39.5 59 69.5 107 l-526 0 l-9 29 l540 0 ZM390 546 l9 6 q74 -15 117 -41 q43 -26 61.5 -55 q18.5 -29 17.5 -55 q-1 -26 -16.5 -43 q-15.5 -17 -40 -18.5 q-24.5 -1.5 -51.5 18.5 q-9 49 -38 100 q-29 51 -59 88 ZM425 860 l175 -45 q-3 -10 -14 -15.5 q-11 -5.5 -35 -7.5 q45 -74 115 -133 q70 -59 153 -103.5 q83 -44.5 165 -77.5 l-2 -16 q-38 -9 -62.5 -39.5 q-24.5 -30.5 -32.5 -62.5 q-77 48 -146.5 110.5 q-69.5 62.5 -123 140 q-53.5 77.5 -83.5 169.5 q-37 -66 -93.5 -132.5 q-56.5 -66.5 -125 -128 q-68.5 -61.5 -143.5 -113 q-75 -51.5 -150 -87.5 l-7 12 q64 46 129.5 110.5 q65.5 64.5 123 137.5 q57.5 73 99 146 q41.5 73 58.5 135 Z" /><glyph glyph-name="cid09809" unicode="&#x4ed6;" d="M240 570 l47 -18 q-2 -7 -9 -12 q-7 -5 -22 -7 l0 -588 q0 -4 -14 -12.5 q-14 -8.5 -35 -15 q-21 -6.5 -44 -6.5 l-21 0 l0 516 q-25 -31 -51.5 -58.5 q-26.5 -27.5 -54.5 -52.5 l-12 8 q37 65 73 150.5 q36 85.5 66.5 182.5 q30.5 97 50.5 193 l163 -49 q-5 -21 -38 -21 q-43 -114 -99 -210 ZM801 599 l-108 -39 l0 -253 q14 -1 31.5 -2 q17.5 -1 27.5 -1 q18 0 25 8 q13 13 17.5 78.5 q4.5 65.5 6.5 208.5 ZM923 220 l4 -147 q29 -10 39.5 -21 q10.5 -11 10.5 -28 q0 -28 -23.5 -45 q-23.5 -17 -85.5 -24.5 q-62 -7.5 -179 -7.5 l-145 0 q-64 0 -102 9 q-38 9 -55 35 q-17 26 -17 76 l0 378 l-87 -31 l-19 25 l106 38 l0 270 l149 -16 q-1 -10 -9 -17.5 q-8 -7.5 -26 -9.5 l0 -187 l96 34 l0 287 l150 -14 q-1 -10 -9 -18 q-8 -8 -28 -11 l0 -204 l92 33 l6 2 l58 56 l104 -85 q-11 -14 -40 -18 q-1 -93 -3.5 -156.5 q-2.5 -63.5 -7.5 -104 q-5 -40.5 -15 -64 q-10 -23.5 -26 -37.5 q-43 -34 -109 -34 q0 26 -2 46 q-2 20 -10 32 q-14 19 -47 31 l0 -136 q0 -5 -14.5 -13.5 q-14.5 -8.5 -35.5 -14.5 q-21 -6 -43 -6 l-20 0 l0 398 l-96 -34 l0 -388 q0 -22 14.5 -31 q14.5 -9 54.5 -9 l145 0 q41 0 72.5 0.5 q31.5 0.5 48.5 2.5 q26 1 38 16 q11 15 24.5 51.5 q13.5 36.5 30.5 91.5 l11 0 Z" /><glyph glyph-name="cid09858" unicode="&#x4ef6;" d="M238 574 l60 -22 q-2 -7 -9 -12 q-7 -5 -21 -8 l0 -586 q-1 -4 -15.5 -12 q-14.5 -8 -36 -14.5 q-21.5 -6.5 -45.5 -6.5 l-21 0 l0 535 q-54 -66 -117 -117 l-12 8 q39 62 76 145 q37 83 67.5 176.5 q30.5 93.5 49.5 188.5 l157 -57 q-7 -20 -40 -19 q-20 -54 -43.5 -104 q-23.5 -50 -49.5 -95 ZM802 328 l64 86 q0 0 20 -16 q20 -16 47.5 -39 q27.5 -23 48.5 -44 q-4 -16 -28 -16 l-256 0 l0 -352 q0 -6 -14.5 -14 q-14.5 -8 -36.5 -14.5 q-22 -6.5 -45 -6.5 l-25 0 l0 387 l-269 0 l-8 29 l277 0 l0 243 l-124 0 q-59 -119 -143 -199 l-12 7 q23 53 43 121.5 q20 68.5 35.5 144 q15.5 75.5 23.5 150.5 l155 -47 q-6 -21 -39 -21 q-10 -34 -22.5 -65.5 q-12.5 -31.5 -26.5 -61.5 l110 0 l0 237 l159 -15 q-2 -10 -9.5 -18 q-7.5 -8 -28.5 -11 l0 -193 l82 0 l62 82 q0 0 19 -16 q19 -16 45 -38 q26 -22 47 -41 q-4 -16 -28 -16 l-227 0 l0 -243 l104 0 Z" /><glyph glyph-name="cid09894" unicode="&#x4f0d;" d="M257 590 l41 -15 q-4 -14 -31 -20 l0 -609 q-1 -4 -15.5 -12.5 q-14.5 -8.5 -36 -15.5 q-21.5 -7 -44.5 -7 l-22 0 l0 513 q-54 -69 -117 -123 l-12 9 q39 66 77.5 154 q38.5 88 70.5 188 q32 100 53 199 l163 -50 q-3 -9 -12 -15 q-9 -6 -27 -5 q-19 -51 -41 -99 q-22 -48 -47 -92 ZM722 411 l-123 0 q-16 -115 -34.5 -227 q-18.5 -112 -35.5 -195 l193 0 l0 422 ZM843 -11 l53 87 q0 0 17 -17 q17 -17 39.5 -40 q22.5 -23 38.5 -43 q-3 -16 -26 -16 l-671 0 l-8 29 l123 0 q17 84 34.5 196 q17.5 112 33.5 226 l-137 0 l-9 29 l150 0 q11 72 19.5 139.5 q8.5 67.5 15.5 124.5 l-173 0 l-8 29 l422 0 l65 85 q0 0 20 -16 q20 -16 47.5 -39 q27.5 -23 49.5 -43 q-4 -16 -28 -16 l-273 0 q-7 -58 -15.5 -125.5 q-8.5 -67.5 -19.5 -138.5 l109 0 l58 60 l111 -86 q-10 -14 -39 -21 l0 -404 l1 0 Z" /><glyph glyph-name="cid09979" unicode="&#x4f4d;" d="M318 579 l-8 28 l462 0 l66 86 q0 0 12 -9.5 q12 -9.5 30.5 -24.5 q18.5 -15 39 -32 q20.5 -17 36.5 -32 q-4 -16 -27 -16 l-611 0 ZM378 515 l13 7 q80 -77 121.5 -147.5 q41.5 -70.5 54.5 -130 q13 -59.5 5.5 -103.5 q-7.5 -44 -28 -67 q-20.5 -23 -44.5 -21 q-24 2 -44 35 q0 41 -3 94 q-3 53 -11.5 110.5 q-8.5 57.5 -24 115 q-15.5 57.5 -39.5 107.5 ZM499 841 l8 6 q74 -17 116 -45 q42 -28 58.5 -58.5 q16.5 -30.5 13 -57.5 q-3.5 -27 -20.5 -44 q-17 -17 -43 -18 q-26 -1 -54 22 q-4 52 -27 104.5 q-23 52.5 -51 90.5 ZM248 570 l50 -18 q-5 -15 -31 -19 l0 -587 q-1 -4 -15.5 -12.5 q-14.5 -8.5 -36 -15.5 q-21.5 -7 -44.5 -7 l-22 0 l0 526 q-29 -33 -60.5 -61.5 q-31.5 -28.5 -64.5 -54.5 l-11 8 q41 63 81.5 147 q40.5 84 74.5 180 q34 96 55 194 l167 -52 q-8 -21 -40 -21 q-43 -112 -103 -207 ZM784 3 l68 91 q0 0 12.5 -10 q12.5 -10 32 -26 q19.5 -16 40.5 -34 q21 -18 38 -34 q-4 -16 -28 -16 l-654 0 l-8 29 l349 0 q20 81 38 176 q18 95 32 189 q14 94 22 171 l167 -40 q-3 -10 -12 -16.5 q-9 -6.5 -27 -7.5 q-20 -64 -51 -145.5 q-31 -81.5 -69 -166 q-38 -84.5 -81 -160.5 l131 0 Z" /><glyph glyph-name="cid10001" unicode="&#x4f5c;" d="M255 556 l55 -20 q-5 -14 -31 -20 l0 -571 q-1 -4 -15.5 -12.5 q-14.5 -8.5 -36 -15 q-21.5 -6.5 -44.5 -6.5 l-22 0 l0 523 q-60 -69 -129 -120 l-12 9 q45 63 88.5 148 q43.5 85 81 182.5 q37.5 97.5 62.5 197.5 l159 -53 q-8 -21 -40 -20 q-25 -61 -54.5 -116.5 q-29.5 -55.5 -61.5 -105.5 ZM949 608 l-264 0 l0 -185 l80 0 l61 80 q0 0 19 -15.5 q19 -15.5 45.5 -37 q26.5 -21.5 47.5 -40.5 q-4 -16 -28 -16 l-225 0 l0 -189 l86 0 l67 87 q0 0 12 -9.5 q12 -9.5 30.5 -25 q18.5 -15.5 39.5 -32.5 q21 -17 38 -32 q-4 -16 -29 -16 l-244 0 l0 -234 q0 -5 -26 -18 q-26 -13 -73 -13 l-22 0 l0 696 l-24 0 q-98 -148 -224 -238 l-11 8 q39 57 77.5 133 q38.5 76 72.5 163.5 q34 87.5 56 175.5 l161 -57 q-8 -22 -41 -19 q-17 -37 -35.5 -72 q-18.5 -35 -38.5 -67 l235 0 l66 86 q0 0 12 -9.5 q12 -9.5 30.5 -24.5 q18.5 -15 39 -31.5 q20.5 -16.5 37.5 -31.5 q-4 -16 -28 -16 Z" /><glyph glyph-name="cid10056" unicode="&#x4f7f;" d="M239 570 l48 -18 q-5 -15 -31 -19 l0 -588 q0 -4 -14 -12.5 q-14 -8.5 -35 -15 q-21 -6.5 -44 -6.5 l-21 0 l0 525 q-26 -31 -55 -58.5 q-29 -27.5 -59 -51.5 l-13 8 q41 63 80 146 q39 83 71 178.5 q32 95.5 52 192.5 l161 -49 q-5 -22 -39 -21 q-44 -116 -101 -211 ZM453 537 l0 -189 l118 0 l0 189 l-118 0 ZM802 537 l-116 0 l0 -189 l116 0 l0 189 ZM802 320 l-117 0 q-3 -63 -18.5 -116.5 q-15.5 -53.5 -45.5 -97.5 q77 -31 170 -46.5 q93 -15.5 193 -17.5 l-1 -12 q-34 -10 -59.5 -41 q-25.5 -31 -32.5 -76 q-106 17 -187.5 47 q-81.5 30 -142.5 79 q-50 -43 -123 -75 q-73 -32 -173 -53 l-6 12 q87 34 147.5 76.5 q60.5 42.5 97.5 95.5 q-54 65 -89 158 l12 7 q39 -65 108 -109 q17 37 25.5 79 q8.5 42 10.5 90 l-118 0 l0 -27 q0 -5 -14.5 -13.5 q-14.5 -8.5 -36.5 -15 q-22 -6.5 -45 -6.5 l-16 0 l0 354 l117 -47 l113 0 l0 104 l-242 0 l-8 28 l250 0 l0 150 l150 -14 q-1 -10 -8.5 -17.5 q-7.5 -7.5 -26.5 -10.5 l0 -108 l97 0 l68 88 q0 0 12 -9.5 q12 -9.5 31 -25 q19 -15.5 40 -33 q21 -17.5 38 -32.5 q-4 -16 -28 -16 l-258 0 l0 -104 l106 0 l54 59 l111 -85 q-5 -6 -15.5 -12 q-10.5 -6 -25.5 -10 l0 -218 q0 -3 -16 -10.5 q-16 -7.5 -37.5 -14 q-21.5 -6.5 -41.5 -6.5 l-19 0 l0 52 Z" /><glyph glyph-name="cid10419" unicode="&#x505a;" d="M163 850 l150 -46 q-6 -21 -39 -21 q-17 -57 -37 -110.5 q-20 -53.5 -44 -103.5 l58 -21 q-3 -7 -10.5 -12 q-7.5 -5 -21.5 -7 l0 -588 q0 -3 -13.5 -10.5 q-13.5 -7.5 -33 -13.5 q-19.5 -6 -40.5 -6 l-19 0 l0 518 q-19 -28 -39.5 -53.5 q-20.5 -25.5 -43.5 -48.5 l-13 8 q31 65 59.5 149.5 q28.5 84.5 51 178.5 q22.5 94 35.5 187 ZM796 608 l-66 0 q-10 -25 -21.5 -49 q-11.5 -24 -24.5 -47 q21 -125 66 -223 q22 75 32.5 155 q10.5 80 13.5 164 ZM385 96 l110 0 l0 255 l-110 0 l0 -255 ZM958 608 l-44 0 q-9 -117 -32 -223.5 q-23 -106.5 -73 -198.5 q69 -97 177 -159 l-4 -10 q-84 -21 -106 -103 q-40 37 -71 82.5 q-31 45.5 -54 99.5 q-42 -54 -99.5 -100.5 q-57.5 -46.5 -132.5 -84.5 l-8 10 q73 59 123 128.5 q50 69.5 82 145.5 q-18 65 -29.5 138 q-11.5 73 -18.5 152 q-32 -51 -72 -94 l-13 7 q15 40 28.5 86.5 q13.5 46.5 23.5 98.5 l-139 0 l0 -205 l11 0 l44 49 l82 -77 q-12 -14 -36 -17 l0 -299 q-1 -4 -25.5 -16.5 q-24.5 -12.5 -56.5 -12.5 l-20 0 l0 62 l-110 0 l0 -65 q0 -8 -26 -20.5 q-26 -12.5 -58 -12.5 l-16 0 l0 453 l100 -42 l0 203 l-133 0 l-8 28 l141 0 l0 234 l144 -13 q-1 -10 -8.5 -16.5 q-7.5 -6.5 -24.5 -9.5 l0 -195 l29 0 l51 75 q0 0 10.5 -9.5 q10.5 -9.5 26 -24 q15.5 -14.5 30.5 -29.5 q11 55 18 112 q7 57 10 114 l156 -34 q-3 -9 -12 -15.5 q-9 -6.5 -26 -7.5 q-19 -82 -48 -156 l86 0 l56 84 q0 0 18 -16 q18 -16 42 -38.5 q24 -22.5 42 -41.5 q-3 -16 -27 -16 Z" /><glyph glyph-name="cid10864" unicode="&#x5148;" d="M932 215 l3 -151 q24 -10 31.5 -22 q7.5 -12 7.5 -29 q0 -25 -17.5 -41.5 q-17.5 -16.5 -62 -24.5 q-44.5 -8 -126.5 -8 l-97 0 q-50 0 -77 9 q-27 9 -37 31.5 q-10 22.5 -10 63.5 l0 353 l-112 0 q-7 -91 -30 -167.5 q-23 -76.5 -68.5 -138 q-45.5 -61.5 -119.5 -107 q-74 -45.5 -184 -75.5 l-5 12 q106 56 163 127.5 q57 71.5 80.5 158.5 q23.5 87 26.5 190 l-255 0 l-8 28 l402 0 l0 196 l-167 0 q-69 -109 -164 -174 l-12 9 q42 68 77 167 q35 99 51 206 l157 -44 q-5 -22 -38 -21 q-12 -31 -25.5 -60 q-13.5 -29 -28.5 -55 l150 0 l0 201 l159 -14 q-1 -10 -9 -17.5 q-8 -7.5 -28 -11.5 l0 -158 l150 0 l65 81 q0 0 20.5 -15 q20.5 -15 48.5 -36.5 q28 -21.5 50 -42.5 q-4 -15 -27 -15 l-307 0 l0 -196 l216 0 l68 88 q0 0 12 -9.5 q12 -9.5 31 -25 q19 -15.5 40 -33 q21 -17.5 38 -32.5 q-4 -16 -29 -16 l-270 0 l0 -17 l0 -304 q0 -12 6 -16.5 q6 -4.5 28 -4.5 l82 0 q22 0 40 0 q18 0 27 1 q11 1 16 4.5 q5 3.5 10 11.5 q8 14 19.5 53 q11.5 39 27.5 91 l11 0 Z" /><glyph glyph-name="cid10909" unicode="&#x2f0a;&#x5165;" d="M35 -88 l-11 13 q109 80 199.5 198.5 q90.5 118.5 156 263 q65.5 144.5 97.5 301.5 q-11 13 -43 23 q-32 10 -71.5 18 q-39.5 8 -75.5 15 q6 12 17.5 34 q11.5 22 24 44 q12.5 22 19.5 33 q41 -22 81 -49 q40 -27 69 -55.5 q29 -28.5 36 -55.5 q32 -140 91 -264.5 q59 -124.5 149 -221.5 q90 -97 214 -156 l-4 -14 q-59 -7 -95.5 -44 q-36.5 -37 -50.5 -84 q-112 85 -184 217 q-72 132 -116 287 q-43 -96 -115 -189.5 q-72 -93.5 -169.5 -174 q-97.5 -80.5 -218.5 -139.5 Z" /><glyph glyph-name="cid10914" unicode="&#x5168;" d="M771 -24 l66 86 q0 0 12 -9.5 q12 -9.5 31 -24.5 q19 -15 40 -32.5 q21 -17.5 38 -32.5 q-4 -16 -28 -16 l-857 0 l-8 29 l371 0 l0 217 l-249 0 l-8 29 l257 0 l0 188 l-219 0 l-8 29 l423 0 l60 75 q0 0 19 -14.5 q19 -14.5 45 -34.5 q26 -20 46 -39 q-4 -16 -27 -16 l-216 0 l0 -188 l124 0 l64 78 q0 0 19.5 -15 q19.5 -15 47 -36 q27.5 -21 49.5 -40 q-4 -16 -28 -16 l-276 0 l0 -217 l212 0 ZM423 852 l185 -48 q-3 -10 -14 -15.5 q-11 -5.5 -36 -7.5 q34 -48 83.5 -86 q49.5 -38 107.5 -68 q58 -30 119 -53 q61 -23 118 -40 l-2 -16 q-40 -10 -65 -45 q-25 -35 -32 -70 q-74 41 -141.5 94.5 q-67.5 53.5 -120.5 121.5 q-53 68 -84 150 q-37 -59 -93.5 -118 q-56.5 -59 -125.5 -113 q-69 -54 -143.5 -98.5 q-74.5 -44.5 -148.5 -75.5 l-7 11 q64 42 128 100.5 q64 58.5 119.5 124.5 q55.5 66 96 131.5 q40.5 65.5 56.5 120.5 Z" /><glyph glyph-name="cid10923" unicode="&#x516c;" d="M321 823 l155 -70 q-4 -8 -14.5 -13 q-10.5 -5 -27.5 -2 q-78 -150 -180 -259 q-102 -109 -222 -182 l-11 10 q55 59 111 141.5 q56 82.5 105.5 178.5 q49.5 96 83.5 196 ZM597 275 l11 6 q95 -39 153.5 -86 q58.5 -47 86.5 -93 q28 -46 32 -85 q4 -39 -10.5 -63.5 q-14.5 -24.5 -41 -28.5 q-26.5 -4 -58.5 21 q-6 31 -18 63 q-12 32 -27 63 q-89 -28 -214.5 -60.5 q-125.5 -32.5 -281.5 -64.5 q-14 -20 -30 -26 l-65 143 q0 0 16.5 3 q16.5 3 35.5 8.5 q19 5.5 25 12.5 q22 22 47.5 60.5 q25.5 38.5 52.5 86.5 q27 48 51.5 100 q24.5 52 43.5 101 q19 49 30 88 l162 -87 q-4 -7 -14 -12 q-10 -5 -27 -4 q-31 -52 -81 -116 q-50 -64 -108.5 -126 q-58.5 -62 -116.5 -111 q59 2 133.5 5.5 q74.5 3.5 158.5 9.5 q84 6 169 14 q-25 49 -55.5 95 q-30.5 46 -59.5 83 ZM599 832 l79 -29 q-6 -12 -16 -25.5 q-10 -13.5 -24 -28.5 q47 -100 139 -178 q92 -78 208 -127 l-2 -12 q-40 -7 -71.5 -34.5 q-31.5 -27.5 -45.5 -64.5 q-110 75 -178 192.5 q-68 117.5 -99 301.5 l10 5 Z" /><glyph glyph-name="cid10936" unicode="&#x5173;" d="M220 836 l8 6 q77 -15 121.5 -41 q44.5 -26 63.5 -56 q19 -30 18 -57 q-1 -27 -17 -44.5 q-16 -17.5 -41 -20 q-25 -2.5 -54 18.5 q-7 52 -37 104.5 q-30 52.5 -62 89.5 ZM934 328 l-381 0 q39 -77 102.5 -135 q63.5 -58 144.5 -96.5 q81 -38.5 171 -55.5 l-1 -12 q-36 -10 -61.5 -39.5 q-25.5 -29.5 -36.5 -75.5 q-135 53 -214.5 151.5 q-79.5 98.5 -121.5 255.5 q-10 -59 -38.5 -117.5 q-28.5 -58.5 -85 -113 q-56.5 -54.5 -149.5 -100 q-93 -45.5 -233 -77.5 l-4 11 q136 59 215.5 124.5 q79.5 65.5 118 136 q38.5 70.5 50.5 143.5 l-365 0 l-7 29 l375 0 q2 18 3 36.5 q1 18.5 1 36.5 l0 148 l-308 0 l-8 28 l455 0 q16 37 30.5 79.5 q14.5 42.5 27 85.5 q12.5 43 20.5 78 l164 -49 q-7 -20 -38 -19 q-31 -38 -78.5 -86 q-47.5 -48 -98.5 -89 l130 0 l68 84 q0 0 12.5 -9 q12.5 -9 32 -24 q19.5 -15 40.5 -31.5 q21 -16.5 38 -31.5 q-1 -8 -9 -12 q-8 -4 -19 -4 l-331 0 l0 -146 q0 -18 -1 -37 q-1 -19 -3 -38 l225 0 l69 87 q0 0 13 -9.5 q13 -9.5 33 -25 q20 -15.5 42 -33 q22 -17.5 40 -32.5 q-4 -16 -29 -16 Z" /><glyph glyph-name="cid10940" unicode="&#x5176;" d="M41 -90 l-5 11 q60 30 118.5 71 q58.5 41 106 85 q47.5 44 75.5 82 l145 -76 q-6 -9 -19.5 -13 q-13.5 -4 -37.5 0 q-42 -32 -103 -62.5 q-61 -30.5 -133 -56 q-72 -25.5 -147 -41.5 ZM580 120 l5 12 q115 -12 187.5 -33.5 q72.5 -21.5 111 -47.5 q38.5 -26 50 -51 q11.5 -25 3.5 -45.5 q-8 -20.5 -28 -32 q-20 -11.5 -45 -9 q-25 2.5 -46 23.5 q-29 41 -87 91.5 q-58 50.5 -151 91.5 ZM376 339 l0 -137 l257 0 l0 137 l-257 0 ZM633 658 l-257 0 l0 -130 l257 0 l0 130 ZM376 499 l0 -131 l257 0 l0 131 l-257 0 ZM784 202 l68 87 q0 0 12.5 -9.5 q12.5 -9.5 31.5 -24.5 q19 -15 40 -32.5 q21 -17.5 38 -32.5 q-4 -16 -28 -16 l-904 0 l-8 28 l224 0 l0 456 l-193 0 l-9 28 l202 0 l0 160 l153 -15 q-1 -10 -8.5 -17.5 q-7.5 -7.5 -26.5 -11.5 l0 -116 l257 0 l0 160 l156 -15 q-1 -11 -9 -18.5 q-8 -7.5 -28 -10.5 l0 -116 l26 0 l62 78 q0 0 19.5 -15 q19.5 -15 46 -35.5 q26.5 -20.5 47.5 -39.5 q-4 -16 -28 -16 l-173 0 l0 -456 l32 0 Z" /><glyph glyph-name="cid10942" unicode="&#x5177;" d="M44 -88 l-6 11 q56 30 110 70 q54 40 98.5 83 q44.5 43 69.5 81 l146 -72 q-10 -20 -54 -14 q-40 -31 -98 -61.5 q-58 -30.5 -126 -55.5 q-68 -25 -140 -42 ZM561 116 l4 13 q117 -12 191 -33.5 q74 -21.5 113.5 -47.5 q39.5 -26 52 -51 q12.5 -25 5.5 -45.5 q-7 -20.5 -27 -32 q-20 -11.5 -44.5 -9 q-24.5 2.5 -46.5 23.5 q-31 41 -91.5 91.5 q-60.5 50.5 -156.5 90.5 ZM349 313 l0 -123 l324 0 l0 123 l-324 0 ZM673 749 l-324 0 l0 -119 l324 0 l0 119 ZM673 459 l-324 0 l0 -118 l324 0 l0 118 ZM673 487 l0 114 l-324 0 l0 -114 l324 0 ZM798 190 l66 97 q0 0 12 -11 q12 -11 30.5 -27.5 q18.5 -16.5 38.5 -35.5 q20 -19 36 -36 q-4 -16 -28 -16 l-914 0 l-8 29 l200 0 l0 638 l131 -50 l301 0 l59 62 l111 -89 q-5 -6 -15 -12 q-10 -6 -26 -9 l0 -540 l6 0 Z" /><glyph glyph-name="cid10960" unicode="&#x5185;" d="M838 721 l114 -90 q-4 -4 -14.5 -10 q-10.5 -6 -25.5 -9 l0 -558 q0 -40 -11.5 -69.5 q-11.5 -29.5 -47 -48 q-35.5 -18.5 -108.5 -25.5 q-4 29 -11 50.5 q-7 21.5 -23 34.5 q-16 14 -40.5 25 q-24.5 11 -71.5 18 l0 14 q0 0 21 -1.5 q21 -1.5 51 -3 q30 -1.5 57.5 -3 q27.5 -1.5 39.5 -1.5 q14 0 19.5 6 q5.5 6 5.5 17 l0 563 l-246 0 q-3 -35 -8.5 -68.5 q-5.5 -33.5 -14.5 -64.5 q80 -30 128 -66.5 q48 -36.5 71 -73.5 q23 -37 25.5 -68.5 q2.5 -31.5 -10.5 -52 q-13 -20.5 -36.5 -24 q-23.5 -3.5 -51.5 16.5 q-15 59 -53.5 122 q-38.5 63 -82.5 114 q-29 -85 -93 -153 q-64 -68 -186 -120 l-11 15 q74 57 116 122 q42 65 62 140 q20 75 26 161 l-213 0 l0 -674 q0 -7 -14 -17.5 q-14 -10.5 -36.5 -18 q-22.5 -7.5 -47.5 -7.5 l-19 0 l0 798 l126 -52 l206 0 q3 44 4 92 q1 48 1 99 l158 -13 q-1 -10 -9.5 -18 q-8.5 -8 -26.5 -10 q-1 -40 -3 -77.5 q-2 -37.5 -4 -72.5 l233 0 l55 62 Z" /><glyph glyph-name="cid10989" unicode="&#x5199;" d="M482 206 l62 83 q0 0 19 -15.5 q19 -15.5 44.5 -38 q25.5 -22.5 46.5 -42.5 q-4 -16 -28 -16 l-574 0 l-8 29 l438 0 ZM687 379 l60 58 l104 -88 q-11 -13 -41 -17 q-13 -158 -39 -254.5 q-26 -96.5 -69 -129.5 q-26 -20 -59 -29.5 q-33 -9.5 -80 -9.5 q0 25 -4.5 44.5 q-4.5 19.5 -17.5 32.5 q-14 14 -43.5 24.5 q-29.5 10.5 -65.5 16.5 l1 14 q25 -2 56.5 -4.5 q31.5 -2.5 58.5 -4 q27 -1.5 38 -1.5 q24 0 39 11 q23 18 42 100.5 q19 82.5 29 207.5 l-356 0 l-46 -57 l-108 69 q8 6 18 12.5 q10 6.5 21 10.5 q8 33 16.5 77 q8.5 44 16.5 89.5 q8 45.5 13.5 85.5 q5.5 40 7.5 66 l146 -35 q-3 -9 -11.5 -16 q-8.5 -7 -27.5 -6 q-4 -22 -8.5 -49 q-4.5 -27 -9.5 -57 l285 0 l61 82 q0 0 19 -15.5 q19 -15.5 45.5 -37.5 q26.5 -22 46.5 -42 q-3 -16 -27 -16 l-435 0 q-6 -35 -12.5 -69 q-6.5 -34 -12.5 -63 l349 0 ZM858 825 l111 -105 q-6 -7 -14 -9.5 q-8 -2.5 -25 -3.5 q-27 -29 -68 -65 q-41 -36 -76 -60 l-9 7 q7 29 14.5 69 q7.5 40 11.5 74 l-606 0 q10 -60 -6 -101.5 q-16 -41.5 -44 -59.5 q-26 -16 -57.5 -8.5 q-31.5 7.5 -43.5 38.5 q-9 30 5 52 q14 22 39 34 q17 11 33 31.5 q16 20.5 25.5 47.5 q9.5 27 5.5 56 l13 1 q8 -16 13.5 -31.5 q5.5 -15.5 9.5 -30.5 l605 0 l63 64 Z" /><glyph glyph-name="cid11139" unicode="&#x51fa;" d="M783 340 l147 -14 q-1 -9 -8 -15.5 q-7 -6.5 -25 -9.5 l0 -353 q0 -4 -14.5 -10.5 q-14.5 -6.5 -36 -12 q-21.5 -5.5 -43.5 -5.5 l-20 0 l0 84 l-560 0 l-36 -58 l-117 69 q6 7 14.5 15 q8.5 8 17.5 14 l0 299 l151 -15 q-1 -8 -9 -14 q-8 -6 -28 -9 l0 -272 l219 0 l0 397 l-165 0 l-35 -58 l-115 68 q13 16 31 30 l0 280 l149 -14 q-1 -8 -9 -14.5 q-8 -6.5 -28 -9.5 l0 -254 l172 0 l0 384 l155 -15 q-1 -11 -8.5 -18.5 q-7.5 -7.5 -27.5 -10.5 l0 -340 l180 0 l0 291 l147 -13 q-1 -10 -8 -16.5 q-7 -6.5 -25 -9.5 l0 -310 q0 -4 -14.5 -10.5 q-14.5 -6.5 -36 -11.5 q-21.5 -5 -43.5 -5 l-20 0 l0 57 l-180 0 l0 -397 l229 0 l0 307 Z" /><glyph glyph-name="cid11157" unicode="&#x5206;" d="M325 843 l158 -59 q-4 -8 -12 -13 q-8 -5 -27 -4 q-37 -73 -94.5 -149 q-57.5 -76 -136.5 -142.5 q-79 -66.5 -180 -111.5 l-8 10 q76 61 135.5 141.5 q59.5 80.5 101.5 166 q42 85.5 63 161.5 ZM652 432 l63 61 l106 -92 q-6 -6 -15.5 -10.5 q-9.5 -4.5 -25.5 -6.5 q-9 -187 -29 -293 q-20 -106 -61 -139 q-25 -22 -58 -32 q-33 -10 -83 -10 q0 26 -4.5 46.5 q-4.5 20.5 -17.5 32.5 q-15 14 -44.5 25 q-29.5 11 -65.5 18 l0 13 q26 -2 56.5 -4 q30.5 -2 57 -3.5 q26.5 -1.5 38.5 -1.5 q25 0 36 10 q23 19 36.5 113 q13.5 94 20.5 244 l-178 0 q-7 -65 -26.5 -131.5 q-19.5 -66.5 -62.5 -130.5 q-43 -64 -121 -123 q-78 -59 -204 -109 l-11 14 q97 59 154.5 120.5 q57.5 61.5 87 123 q29.5 61.5 40.5 121.5 q11 60 14 115 l-177 0 l-9 29 l483 0 ZM595 856 l80 -26 q-5 -11 -15 -24.5 q-10 -13.5 -23 -28.5 q33 -66 87 -123.5 q54 -57.5 121 -102 q67 -44.5 139 -72.5 l-3 -12 q-28 -10 -53.5 -40 q-25.5 -30 -36.5 -64 q-119 75 -194 192.5 q-75 117.5 -112 295.5 l10 5 Z" /><glyph glyph-name="cid11218" unicode="&#x5230;" d="M427 757 l60 81 q0 0 18.5 -15.5 q18.5 -15.5 44.5 -37.5 q26 -22 46 -41 q-4 -16 -28 -16 l-317 0 l132 -35 q-2 -8 -10.5 -14 q-8.5 -6 -24.5 -6 q-37 -39 -92.5 -81.5 q-55.5 -42.5 -108.5 -74.5 q55 2 134.5 6.5 q79.5 4.5 166.5 10.5 q-13 32 -32.5 62 q-19.5 30 -40.5 52 l10 7 q72 -20 113.5 -49.5 q41.5 -29.5 59.5 -61.5 q18 -32 16.5 -59.5 q-1.5 -27.5 -16 -45.5 q-14.5 -18 -37 -19.5 q-22.5 -1.5 -48.5 19.5 q-1 35 -15 69 q-40 -13 -92.5 -29.5 q-52.5 -16.5 -113.5 -33.5 l144 -12 q-1 -10 -8 -17 q-7 -7 -26 -10 l0 -109 l50 0 l58 82 q0 0 18.5 -15.5 q18.5 -15.5 43 -37.5 q24.5 -22 42.5 -42 q-1 -8 -8.5 -12 q-7.5 -4 -17.5 -4 l-186 0 l0 -153 q54 8 112 17 q58 9 116 18 l3 -13 q-74 -34 -188.5 -79 q-114.5 -45 -281.5 -102 q-9 -20 -29 -25 l-57 141 q34 3 88 10 q54 7 123 17 l0 169 l-184 0 l-8 29 l192 0 l0 147 q-51 -15 -108 -30 q-11 -19 -24 -25 l-56 132 q0 0 12.5 3 q12.5 3 19.5 7 q19 13 39.5 36.5 q20.5 23.5 39.5 52.5 q19 29 34.5 57.5 q15.5 28.5 24.5 50.5 l-177 0 l-8 29 l382 0 ZM728 722 l0 -558 q0 -5 -13.5 -12.5 q-13.5 -7.5 -33.5 -13 q-20 -5.5 -40 -5.5 l-20 0 l0 631 l143 -14 q-1 -10 -8.5 -17.5 q-7.5 -7.5 -27.5 -10.5 ZM817 837 l148 -14 q-1 -11 -9.5 -18.5 q-8.5 -7.5 -26.5 -10.5 l0 -750 q0 -39 -10 -67 q-10 -28 -42 -45 q-32 -17 -98 -23 q-2 26 -7.5 46 q-5.5 20 -17.5 33 q-13 14 -33 23 q-20 9 -58 16 l0 14 q0 0 17 -1 q17 -1 40.5 -2.5 q23.5 -1.5 44.5 -2.5 q21 -1 30 -1 q13 0 17.5 4.5 q4.5 4.5 4.5 14.5 l0 784 Z" /><glyph glyph-name="cid11596" unicode="&#x5317;&#xf963;" d="M317 552 l0 267 l151 -15 q-1 -10 -8.5 -18 q-7.5 -8 -28.5 -11 l0 -826 q0 -5 -14 -13.5 q-14 -8.5 -35 -15 q-21 -6.5 -43 -6.5 l-22 0 l0 295 q-37 -31 -86 -69.5 q-49 -38.5 -111 -82.5 q-2 -10 -9 -18 q-7 -8 -16 -10 l-67 144 q25 6 70 18 q45 12 101.5 28.5 q56.5 16.5 117.5 34.5 l0 269 l-247 0 l-9 29 l256 0 ZM930 216 l4 -146 q25 -11 33.5 -22.5 q8.5 -11.5 8.5 -27.5 q0 -26 -18.5 -42 q-18.5 -16 -63 -23.5 q-44.5 -7.5 -123.5 -7.5 l-91 0 q-49 0 -77.5 9.5 q-28.5 9.5 -40 34 q-11.5 24.5 -11.5 67.5 l0 760 l151 -16 q-1 -10 -8.5 -17.5 q-7.5 -7.5 -26.5 -10.5 l0 -342 q51 59 95 122.5 q44 63.5 71 110.5 l143 -92 q-13 -18 -44 -6 q-43 -40 -112.5 -86 q-69.5 -46 -152.5 -85 l0 -304 q0 -17 8 -24.5 q8 -7.5 33 -7.5 l74 0 q21 0 38 0.5 q17 0.5 27 1.5 q8 1 14.5 4 q6.5 3 12.5 10 q8 14 20.5 54 q12.5 40 25.5 86 l10 0 Z" /><glyph glyph-name="cid11668" unicode="&#x533a;" d="M783 0 l66 92 q0 0 12.5 -10 q12.5 -10 31.5 -26 q19 -16 39.5 -34 q20.5 -18 37.5 -34 q-4 -16 -29 -16 l-722 0 l-36 -60 l-121 70 q11 14 31 29 l0 800 l131 -50 l540 0 l58 80 q0 0 18.5 -15.5 q18.5 -15.5 43.5 -36.5 q25 -21 44 -40 q-4 -16 -27 -16 l-690 0 l0 -733 l572 0 ZM672 686 l155 -72 q-4 -8 -15 -12.5 q-11 -4.5 -29 -1.5 q-27 -55 -57.5 -105 q-30.5 -50 -64.5 -94 q62 -55 94.5 -103.5 q32.5 -48.5 40.5 -86 q8 -37.5 -3 -61 q-11 -23.5 -36 -27.5 q-25 -4 -58 15 q-22 40 -52.5 83 q-30.5 43 -65.5 87 q-69 -70 -147 -123 q-78 -53 -164 -92 l-9 11 q66 50 132 121 q66 71 124 156 q-55 61 -112.5 118.5 q-57.5 57.5 -108.5 103.5 l12 8 q81 -34 147 -70 q66 -36 118 -71 q29 51 54.5 105.5 q25.5 54.5 44.5 110.5 Z" /><glyph glyph-name="cid11751" unicode="&#x5370;" d="M205 462 l97 0 l61 82 q0 0 19 -15.5 q19 -15.5 45 -37.5 q26 -22 46 -42 q-4 -16 -28 -16 l-240 0 l0 -226 q59 11 129.5 25 q70.5 14 143.5 29 l2 -12 q-53 -30 -145 -78.5 q-92 -48.5 -211 -102.5 q-13 -15 -29 -21 l-54 130 q32 14 40.5 24.5 q8.5 10.5 8.5 27.5 l0 554 l119 -57 q44 24 93 55 q49 31 92 61 l104 -108 q-14 -14 -42 -4 q-36 -11 -80.5 -19 q-44.5 -8 -89 -13 q-44.5 -5 -81.5 -7 l0 -229 ZM849 791 l116 -89 q-12 -14 -41 -21 l0 -476 q0 -39 -10 -67 q-10 -28 -42.5 -45 q-32.5 -17 -100.5 -23 q-2 28 -7 48 q-5 20 -16 33 q-12 14 -31 23.5 q-19 9.5 -57 15.5 l0 14 q0 0 16 -1 q16 -1 38 -2.5 q22 -1.5 42 -2.5 q20 -1 28 -1 q14 0 18 5.5 q4 5.5 4 15.5 l0 483 l-176 0 l0 -753 q0 -7 -25.5 -22 q-25.5 -15 -69.5 -15 l-21 0 l0 879 l130 -61 l152 0 l53 62 Z" /><glyph glyph-name="cid11785" unicode="&#x5386;" d="M775 486 l62 62 l106 -91 q-11 -15 -41 -19 q-5 -144 -15 -239.5 q-10 -95.5 -27 -150 q-17 -54.5 -44 -78.5 q-49 -43 -133 -43 q0 27 -3.5 47.5 q-3.5 20.5 -14.5 32.5 q-29 27 -93 41 l1 13 q20 -1 44.5 -3 q24.5 -2 46.5 -3 q22 -1 33 -1 q23 0 33 10 q23 20 36 119 q13 99 19 274 l-173 0 q-6 -79 -26 -158.5 q-20 -79.5 -65 -152.5 q-45 -73 -124.5 -133 q-79.5 -60 -203.5 -100 l-8 10 q92 52 150 114.5 q58 62.5 90 132 q32 69.5 46 142.5 q14 73 17 145 l-191 0 l-9 29 l201 0 q1 17 1 34.5 q0 17.5 0 33.5 l0 136 l160 -16 q-1 -10 -8 -17 q-7 -7 -27 -10 l0 -95 q0 -16 -0.5 -32.5 q-0.5 -16.5 -1.5 -33.5 l162 0 ZM791 754 l65 83 q0 0 20 -16 q20 -16 47 -38 q27 -22 48 -42 q-4 -16 -27 -16 l-684 0 l0 -229 q0 -69 -6 -146 q-6 -77 -27.5 -155 q-21.5 -78 -67.5 -149.5 q-46 -71.5 -126 -128.5 l-10 7 q54 84 78.5 179.5 q24.5 95.5 31.5 195.5 q7 100 7 196 l0 316 l138 -57 l513 0 Z" /><glyph glyph-name="cid11868" unicode="&#x53bb;" d="M764 412 l72 93 q0 0 13.5 -10.5 q13.5 -10.5 34.5 -26.5 q21 -16 43.5 -34.5 q22.5 -18.5 40.5 -34.5 q-4 -16 -29 -16 l-492 0 l132 -52 q-4 -8 -13 -13.5 q-9 -5.5 -25 -4.5 q-34 -38 -86.5 -82 q-52.5 -44 -112 -86 q-59.5 -42 -115.5 -75 q92 3 225 9.5 q133 6.5 281 15.5 q-28 44 -60 85 q-32 41 -65 73 l9 7 q106 -32 171 -74.5 q65 -42.5 97 -88 q32 -45.5 37.5 -85 q5.5 -39.5 -9.5 -65.5 q-15 -26 -43.5 -31 q-28.5 -5 -63.5 20 q-8 32 -22.5 65 q-14.5 33 -33.5 66 q-94 -27 -233 -59.5 q-139 -32.5 -316 -67.5 q-10 -13 -24 -19 l-62 148 q0 0 16 3.5 q16 3.5 25 8.5 q33 19 70.5 54.5 q37.5 35.5 74 79.5 q36.5 44 66 88 q29.5 44 47.5 80 l-363 0 l-9 29 l390 0 l0 203 l-311 0 l-9 28 l320 0 l0 207 l164 -14 q-1 -10 -9 -17.5 q-8 -7.5 -28 -10.5 l0 -165 l147 0 l71 90 q0 0 13 -10 q13 -10 33.5 -25.5 q20.5 -15.5 42.5 -33 q22 -17.5 40 -33.5 q-4 -16 -29 -16 l-318 0 l0 -203 l205 0 Z" /><glyph glyph-name="cid11880" unicode="&#x53c2;" d="M114 -89 l-4 15 q92 15 187 42 q95 27 183 64 q88 37 161 79 q73 42 122 87 l106 -97 q-12 -12 -37 -1 q-58 -39 -139.5 -73.5 q-81.5 -34.5 -177 -60 q-95.5 -25.5 -198 -40.5 q-102.5 -15 -203.5 -15 ZM141 150 l-7 14 q54 24 109.5 56 q55.5 32 107 69.5 q51.5 37.5 95 76 q43.5 38.5 72.5 74.5 l108 -76 q-9 -12 -34 -4 q-49 -40 -123 -81 q-74 -41 -159 -75 q-85 -34 -169 -54 ZM149 36 l-5 16 q68 20 138.5 50.5 q70.5 30.5 137 66.5 q66.5 36 122 75 q55.5 39 92.5 76 l106 -83 q-11 -13 -36 -3 q-45 -32 -108.5 -63 q-63.5 -31 -137.5 -57.5 q-74 -26.5 -153 -46.5 q-79 -20 -156 -31 ZM936 470 l-288 0 q39 -33 93.5 -59.5 q54.5 -26.5 115 -45 q60.5 -18.5 118.5 -27.5 l-1 -11 q-66 -17 -84 -101 q-90 37 -158 98 q-68 61 -112 146 l-164 0 q-71 -81 -177.5 -149.5 q-106.5 -68.5 -244.5 -105.5 l-7 13 q89 45 162.5 108 q73.5 63 126.5 134 l-266 0 l-9 29 l296 0 q13 18 23.5 35.5 q10.5 17.5 20.5 35.5 q-38 -7 -78 -13 q-40 -6 -82 -13 q-10 -13 -22 -19 l-54 122 q0 0 12.5 2.5 q12.5 2.5 21.5 6.5 q31 12 66 35.5 q35 23.5 67.5 52 q32.5 28.5 59 57 q26.5 28.5 41.5 49.5 l140 -58 q-4 -7 -13 -11.5 q-9 -4.5 -26 -3.5 q-44 -31 -112 -66.5 q-68 -35.5 -136 -62.5 q82 0 194.5 1.5 q112.5 1.5 236.5 5.5 q-24 27 -51 52 q-27 25 -51 43 l8 8 q77 -7 125.5 -27 q48.5 -20 74 -45 q25.5 -25 31.5 -50.5 q6 -25.5 -3 -44 q-9 -18.5 -29.5 -25 q-20.5 -6.5 -47.5 5.5 q-15 31 -38 60 q-47 -10 -105.5 -21.5 q-58.5 -11.5 -128.5 -23.5 l68 -33 q-4 -8 -12.5 -11 q-8.5 -3 -26.5 -1 q-7 -10 -15 -21 q-8 -11 -16 -22 l305 0 l64 81 q0 0 19.5 -15.5 q19.5 -15.5 46.5 -37 q27 -21.5 49 -41.5 q-4 -16 -28 -16 Z" /><glyph glyph-name="cid11903" unicode="&#x53d1;" d="M606 812 l9 6 q72 -14 113.5 -38.5 q41.5 -24.5 58.5 -52.5 q17 -28 15 -53 q-2 -25 -17.5 -41.5 q-15.5 -16.5 -39.5 -17.5 q-24 -1 -51 19 q-9 47 -35.5 95 q-26.5 48 -52.5 83 ZM690 397 l-273 0 q-4 -10 -8.5 -20 q-4.5 -10 -9.5 -20 q22 -48 61.5 -92 q39.5 -44 100.5 -84 q84 96 129 216 ZM758 490 l108 -101 q-6 -8 -15 -11.5 q-9 -3.5 -29 -4.5 q-31 -70 -73.5 -130 q-42.5 -60 -98.5 -110 q63 -29 143 -54 q80 -25 179 -45 l-1 -12 q-48 -7 -76 -32.5 q-28 -25.5 -35 -75.5 q-96 32 -168.5 70 q-72.5 38 -125.5 81 q-84 -55 -192 -94.5 q-108 -39.5 -243 -59.5 l-6 12 q232 69 379 201 q-45 49 -73 101.5 q-28 52.5 -45 104.5 q-55 -109 -140 -202.5 q-85 -93.5 -209 -159.5 l-11 8 q87 75 149 166 q62 91 103.5 193 q41.5 102 66.5 207 l-115 0 l-45 -51 l-111 72 q7 6 17 12 q10 6 21 11 q13 34 27 76.5 q14 42.5 25.5 82.5 q11.5 40 16.5 64 l153 -43 q-3 -9 -12.5 -15.5 q-9.5 -6.5 -29.5 -5.5 q-11 -35 -28 -85 q-17 -50 -31 -89 l119 0 q16 71 25.5 141 q9.5 70 14.5 138 l167 -26 q-5 -24 -39 -27 q-8 -58 -19 -114 q-11 -56 -26 -112 l309 0 l66 85 q0 0 12 -9.5 q12 -9.5 30.5 -24.5 q18.5 -15 39 -32 q20.5 -17 37.5 -32 q-4 -16 -28 -16 l-473 0 q-9 -30 -18.5 -58.5 q-9.5 -28.5 -20.5 -57.5 l259 0 l70 64 Z" /><glyph glyph-name="cid11946" unicode="&#x53ef;" d="M257 269 l172 0 l0 270 l-172 0 l0 -270 ZM543 520 l0 -333 q0 -4 -16 -11 q-16 -7 -38 -12.5 q-22 -5.5 -41 -5.5 l-19 0 l0 83 l-172 0 l0 -87 q0 -5 -13.5 -14 q-13.5 -9 -35.5 -15.5 q-22 -6.5 -46 -6.5 l-17 0 l0 497 l117 -48 l157 0 l53 58 l112 -84 q-5 -6 -15 -12 q-10 -6 -26 -9 ZM775 764 l71 89 q0 0 13 -10 q13 -10 32.5 -25.5 q19.5 -15.5 41.5 -33 q22 -17.5 40 -33.5 q-1 -8 -9.5 -12 q-8.5 -4 -19.5 -4 l-122 0 l0 -675 q0 -40 -12.5 -72 q-12.5 -32 -50.5 -52 q-38 -20 -115 -25 q-1 29 -9.5 50.5 q-8.5 21.5 -25.5 34.5 q-18 14 -45.5 24.5 q-27.5 10.5 -82.5 18.5 l0 13 q0 0 16.5 -1 q16.5 -1 42.5 -2.5 q26 -1.5 53.5 -3 q27.5 -1.5 49.5 -2.5 q22 -1 32 -1 q27 0 27 23 l0 670 l-664 0 l-8 29 l745 0 Z" /><glyph glyph-name="cid11948" unicode="&#x53f0;" d="M312 32 l382 0 l0 262 l-382 0 l0 -262 ZM682 323 l59 66 l123 -95 q-5 -7 -16.5 -13.5 q-11.5 -6.5 -29.5 -10.5 l0 -322 q0 -3 -17.5 -9.5 q-17.5 -6.5 -41.5 -12.5 q-24 -6 -45 -6 l-20 0 l0 84 l-382 0 l0 -51 q0 -6 -16 -15.5 q-16 -9.5 -40 -17 q-24 -7.5 -50 -7.5 l-18 0 l0 461 l131 -51 l363 0 ZM613 693 l9 7 q102 -26 166 -63 q64 -37 97.5 -77.5 q33.5 -40.5 41.5 -76.5 q8 -36 -3 -61 q-11 -25 -36 -31.5 q-25 -6.5 -57 12.5 q-9 26 -23.5 53 q-14.5 27 -32.5 54 q-110 -22 -268 -48.5 q-158 -26.5 -353 -54.5 q-13 -16 -30 -21 l-40 135 q0 0 15.5 3.5 q15.5 3.5 24.5 8.5 q39 21 83.5 59.5 q44.5 38.5 87 85 q42.5 46.5 76.5 92.5 q34 46 52 82 l163 -65 q-3 -8 -13 -13 q-10 -5 -27 -4 q-38 -40 -96 -85.5 q-58 -45.5 -124 -88 q-66 -42.5 -130 -76.5 q67 1 156.5 3.5 q89.5 2.5 192.5 5.5 q103 3 212 7 q-32 44 -69.5 85 q-37.5 41 -74.5 72 Z" /><glyph glyph-name="cid11958" unicode="&#x53f8;" d="M522 614 l66 83 q0 0 20 -16 q20 -16 48 -38 q28 -22 50 -42 q-4 -16 -29 -16 l-620 0 l-8 29 l473 0 ZM248 198 l216 0 l0 230 l-216 0 l0 -230 ZM579 409 l0 -289 q0 -4 -16 -11.5 q-16 -7.5 -37.5 -14 q-21.5 -6.5 -41.5 -6.5 l-20 0 l0 81 l-216 0 l0 -86 q0 -5 -14 -14 q-14 -9 -35.5 -16 q-21.5 -7 -45.5 -7 l-17 0 l0 457 l117 -47 l201 0 l54 59 l112 -85 q-5 -6 -15 -12 q-10 -6 -26 -9 ZM810 843 l116 -91 q-5 -7 -15.5 -13 q-10.5 -6 -26.5 -9 l0 -676 q0 -41 -11.5 -70.5 q-11.5 -29.5 -47.5 -48 q-36 -18.5 -112 -25.5 q-4 29 -11.5 50.5 q-7.5 21.5 -23.5 34.5 q-17 14 -42.5 25 q-25.5 11 -75.5 19 l0 14 q0 0 15.5 -1 q15.5 -1 39 -2.5 q23.5 -1.5 49 -3 q25.5 -1.5 46 -2.5 q20.5 -1 28.5 -1 q16 0 21.5 6 q5.5 6 5.5 18 l0 683 l-676 0 l-9 29 l674 0 l56 64 Z" /><glyph glyph-name="cid11984" unicode="&#x540d;" d="M430 26 l331 0 l0 255 l-331 0 l0 -255 ZM808 373 l120 -91 q-5 -7 -16 -13.5 q-11 -6.5 -28 -9.5 l0 -304 q0 -4 -17 -12.5 q-17 -8.5 -41 -15.5 q-24 -7 -45 -7 l-20 0 l0 77 l-331 0 l0 -53 q0 -7 -26 -21.5 q-26 -14.5 -73 -14.5 l-23 0 l0 334 q-63 -26 -131.5 -47 q-68.5 -21 -142.5 -36 l-6 13 q143 54 270 133 q127 79 226.5 176.5 q99.5 97.5 159.5 205.5 l-262 0 q-17 -21 -35.5 -42 q-18.5 -21 -38.5 -42 q60 -15 92.5 -38.5 q32.5 -23.5 44 -49 q11.5 -25.5 6.5 -47.5 q-5 -22 -21.5 -35.5 q-16.5 -13.5 -40.5 -13.5 q-24 0 -49 20 q-4 35 -21 71 q-17 36 -37 67 q-61 -59 -130.5 -111 q-69.5 -52 -140.5 -89 l-8 10 q50 40 98.5 94.5 q48.5 54.5 93 117 q44.5 62.5 80.5 128 q36 65.5 60 126.5 l164 -46 q-4 -8 -12 -11.5 q-8 -3.5 -28 -2.5 q-24 -39 -54 -78 l239 0 l77 69 l114 -109 q-6 -9 -16 -12 q-10 -3 -31 -5 q-67 -104 -161.5 -192 q-94.5 -88 -216.5 -156 l300 0 l58 63 Z" /><glyph glyph-name="cid11985" unicode="&#x540e;" d="M431 32 l311 0 l0 268 l-311 0 l0 -268 ZM738 329 l56 62 l104 -80 q-9 -13 -38 -19 l0 -346 q0 -4 -26 -15 q-26 -11 -71 -11 l-21 0 l0 84 l-311 0 l0 -66 q0 -5 -24.5 -16.5 q-24.5 -11.5 -67.5 -11.5 l-20 0 l0 466 l123 -47 l296 0 ZM780 529 l68 84 q0 0 21 -15.5 q21 -15.5 50 -38 q29 -22.5 52 -42.5 q-4 -16 -28 -16 l-675 0 l0 -25 q0 -65 -6.5 -138.5 q-6.5 -73.5 -28.5 -148 q-22 -74.5 -68.5 -142.5 q-46.5 -68 -126.5 -122 l-10 10 q55 81 81 173 q26 92 33.5 187 q7.5 95 7.5 185 l0 280 l144 -46 q0 -1 -2 -3 q88 18 177 42 q89 24 166.5 50 q77.5 26 130.5 49 l120 -116 q-19 -17 -66 1 q-71 -14 -162.5 -26 q-91.5 -12 -191.5 -20 q-100 -8 -198 -11 l0 -151 l512 0 Z" /><glyph glyph-name="cid12037" unicode="&#x542f;" d="M762 689 l-489 0 l0 -168 l0 -19 l489 0 l0 187 ZM762 473 l-489 0 q-1 -66 -10.5 -140.5 q-9.5 -74.5 -33.5 -150 q-24 -75.5 -70 -145.5 q-46 -70 -121 -127 l-9 8 q57 92 84 195 q27 103 34.5 207.5 q7.5 104.5 7.5 200.5 l0 245 l137 -48 l231 0 q-3 1 -9 5 q-9 35 -31.5 70.5 q-22.5 35.5 -43.5 58.5 l7 6 q72 -1 111.5 -18.5 q39.5 -17.5 53 -41 q13.5 -23.5 7.5 -46 q-6 -22.5 -26 -34.5 l161 0 l54 59 l114 -86 q-4 -6 -14 -12 q-10 -6 -25 -8 l0 -219 q0 -3 -16.5 -10.5 q-16.5 -7.5 -39.5 -14 q-23 -6.5 -43 -6.5 l-21 0 l0 52 ZM427 32 l333 0 l0 264 l-333 0 l0 -264 ZM808 387 l115 -89 q-9 -13 -35 -19 l0 -329 q0 -3 -18 -10.5 q-18 -7.5 -42.5 -13.5 q-24.5 -6 -45.5 -6 l-22 0 l0 83 l-333 0 l0 -48 q0 -6 -15.5 -15.5 q-15.5 -9.5 -40 -17 q-24.5 -7.5 -50.5 -7.5 l-18 0 l0 462 l130 -52 l318 0 l57 62 Z" /><glyph glyph-name="cid12100" unicode="&#x5458;" d="M697 757 l-372 0 l0 -142 l372 0 l0 142 ZM325 586 l0 -22 q0 -5 -15 -13 q-15 -8 -38 -14.5 q-23 -6.5 -46 -6.5 l-17 0 l0 303 l122 -47 l356 0 l52 55 l110 -81 q-4 -5 -13.5 -11 q-9.5 -6 -23.5 -8 l0 -168 q0 -3 -16 -10.5 q-16 -7.5 -38 -13.5 q-22 -6 -41 -6 l-20 0 l0 43 l-372 0 ZM268 448 l0 -336 q0 -5 -15 -14.5 q-15 -9.5 -38 -16.5 q-23 -7 -48 -7 l-17 0 l0 453 l126 -50 l458 0 l53 55 l108 -81 q-4 -5 -13 -10.5 q-9 -5.5 -23 -7.5 l0 -293 q0 -4 -16.5 -11 q-16.5 -7 -38.5 -12.5 q-22 -5.5 -41 -5.5 l-20 0 l0 337 l-475 0 ZM440 411 l159 -13 q-3 -22 -33 -26 q-2 -67 -7 -125.5 q-5 -58.5 -28 -108.5 q128 -14 209.5 -36.5 q81.5 -22.5 126 -48.5 q44.5 -26 59.5 -52 q15 -26 8 -47 q-7 -21 -27.5 -33 q-20.5 -12 -47 -10 q-26.5 2 -50.5 22 q-38 41 -109.5 92 q-71.5 51 -177.5 94 q-26 -47 -79 -85.5 q-53 -38.5 -143.5 -68.5 q-90.5 -30 -231.5 -53 l-7 14 q117 31 190 67 q73 36 112.5 79 q39.5 43 55.5 94.5 q16 51.5 18.5 112 q2.5 60.5 2.5 132.5 Z" /><glyph glyph-name="cid12181" unicode="&#x548c;" d="M365 519 l56 82 q0 0 18.5 -15.5 q18.5 -15.5 43 -37.5 q24.5 -22 43.5 -41 q-3 -16 -27 -16 l-162 0 l0 -69 q76 -22 113 -53.5 q37 -31.5 45.5 -62 q8.5 -30.5 -3.5 -52.5 q-12 -22 -36.5 -26.5 q-24.5 -4.5 -51.5 17.5 q-5 38 -24.5 78.5 q-19.5 40.5 -42.5 73.5 l0 -453 q0 -5 -25.5 -19 q-25.5 -14 -67.5 -14 l-21 0 l0 370 q-74 -119 -188 -210 l-12 12 q41 55 73.5 122 q32.5 67 57 140.5 q24.5 73.5 39.5 145.5 l-147 0 l-8 28 l185 0 l0 177 q-46 -5 -92 -9.5 q-46 -4.5 -90 -6.5 l-3 14 q62 19 129.5 46 q67.5 27 127.5 56 q60 29 98 54 l124 -114 q-9 -7 -25.5 -7.5 q-16.5 -0.5 -40.5 8.5 q-25 -6 -53.5 -12 q-28.5 -6 -60.5 -12 l0 -194 l28 0 ZM646 127 l144 0 l0 530 l-144 0 l0 -530 ZM835 748 l114 -90 q-9 -14 -41 -22 l0 -612 q-1 -4 -17 -11.5 q-16 -7.5 -38.5 -14 q-22.5 -6.5 -43.5 -6.5 l-19 0 l0 106 l-144 0 l0 -81 q0 -6 -13.5 -16 q-13.5 -10 -35.5 -17.5 q-22 -7.5 -48 -7.5 l-19 0 l0 760 l121 -51 l128 0 l56 63 Z" /><glyph glyph-name="cid12259" unicode="&#x54c1;" d="M644 749 l-288 0 l0 -228 l288 0 l0 228 ZM356 493 l0 -53 q0 -5 -15 -14 q-15 -9 -37.5 -16 q-22.5 -7 -47.5 -7 l-18 0 l0 424 l124 -49 l272 0 l55 60 l114 -87 q-4 -6 -14.5 -12 q-10.5 -6 -26.5 -9 l0 -286 q0 -4 -16.5 -11.5 q-16.5 -7.5 -39 -14 q-22.5 -6.5 -42.5 -6.5 l-20 0 l0 81 l-288 0 ZM194 50 l146 0 l0 263 l-146 0 l0 -263 ZM330 342 l52 57 l111 -84 q-11 -14 -40 -20 l0 -324 q0 -4 -16 -12 q-16 -8 -37.5 -14.5 q-21.5 -6.5 -40.5 -6.5 l-19 0 l0 83 l-146 0 l0 -64 q0 -5 -14 -14 q-14 -9 -35.5 -16 q-21.5 -7 -44.5 -7 l-17 0 l0 468 l116 -46 l131 0 ZM654 50 l154 0 l0 263 l-154 0 l0 -263 ZM852 400 l112 -85 q-12 -14 -41 -21 l0 -332 q0 -4 -16.5 -11 q-16.5 -7 -38.5 -12.5 q-22 -5.5 -41 -5.5 l-19 0 l0 88 l-154 0 l0 -65 q0 -5 -13.5 -14 q-13.5 -9 -35 -16 q-21.5 -7 -45.5 -7 l-17 0 l0 469 l116 -46 l139 0 l54 58 Z" /><glyph glyph-name="cid12974" unicode="&#x5668;&#xfa38;" d="M641 12 l117 0 l0 188 l-117 0 l0 -188 ZM358 200 l-110 0 l0 -188 l110 0 l0 188 ZM237 585 l115 0 l0 162 l-115 0 l0 -162 ZM775 747 l-123 0 l0 -162 l123 0 l0 162 ZM942 392 l-331 0 q121 -81 368 -98 l-1 -11 q-19 -11 -31 -41 q-12 -30 -15 -71 q-13 4 -25.5 7.5 q-12.5 3.5 -24.5 7.5 q-3 -1 -6.5 -2 q-3.5 -1 -7.5 -2 l0 -232 q0 -3 -15.5 -9.5 q-15.5 -6.5 -36.5 -11.5 q-21 -5 -39 -5 l-19 0 l0 59 l-117 0 l0 -35 q0 -5 -13.5 -13 q-13.5 -8 -34.5 -14.5 q-21 -6.5 -44 -6.5 l-15 0 l0 360 l111 -45 l103 0 l8 9 q-57 32 -99 70 q-42 38 -75 84 l-129 0 q-40 -42 -96 -81 q-56 -39 -130 -72 l25 -10 l96 0 l50 53 l103 -78 q-7 -13 -36 -19 l0 -226 q0 -4 -15 -11 q-15 -7 -35.5 -13 q-20.5 -6 -38.5 -6 l-18 0 l0 54 l-110 0 l0 -42 q0 -5 -13.5 -13 q-13.5 -8 -34 -14.5 q-20.5 -6.5 -42.5 -6.5 l-15 0 l0 300 q-25 -9 -53 -17 q-28 -8 -57 -15 l-6 11 q101 41 174 94.5 q73 53.5 122 111.5 l-281 0 l-8 29 l312 0 q39 53 63 105 q-19 -6 -39 -6 l-18 0 l0 37 l-115 0 l0 -47 q0 -5 -13.5 -12.5 q-13.5 -7.5 -34 -13.5 q-20.5 -6 -42.5 -6 l-15 0 l0 342 l109 -44 l101 0 l50 53 l105 -78 q-4 -5 -14 -10.5 q-10 -5.5 -24 -8.5 l0 -182 q0 -4 -19 -13 l118 -40 q-6 -20 -40 -17 q-9 -15 -18.5 -30 q-9.5 -15 -21.5 -29 l204 0 q-6 1 -13 3.5 q-7 2.5 -14 6.5 q-4 22 -18 45 q-14 23 -31 41 q-10 -3 -22 -5 q-12 -2 -24 -2 l-15 0 l0 310 l112 -44 l108 0 l51 56 l109 -82 q-4 -6 -14.5 -12 q-10.5 -6 -26.5 -9 l0 -198 q0 -3 -15.5 -9 q-15.5 -6 -36.5 -11 q-21 -5 -39 -5 l-18 0 l0 51 l-123 0 l0 -15 q0 -3 -4 -6 q45 -7 66 -25 q21 -18 23 -37.5 q2 -19.5 -9.5 -34.5 q-11.5 -15 -31.5 -18 l100 0 l61 77 q0 0 19.5 -15 q19.5 -15 46 -35.5 q26.5 -20.5 46.5 -39.5 q-3 -16 -27 -16 Z" /><glyph glyph-name="cid13196" unicode="&#x56e0;" d="M603 501 l57 78 q0 0 18 -15 q18 -15 42.5 -36 q24.5 -21 43.5 -39 q-4 -16 -28 -16 l-203 0 q-3 -38 -9 -70 q90 -49 137.5 -100.5 q47.5 -51.5 62 -97 q14.5 -45.5 5 -76 q-9.5 -30.5 -34.5 -37.5 q-25 -7 -57 19 q-13 62 -47.5 130 q-34.5 68 -71.5 127 q-14 -63 -44.5 -118.5 q-30.5 -55.5 -84.5 -102.5 q-54 -47 -139 -86 l-11 13 q69 54 106.5 115.5 q37.5 61.5 54.5 132 q17 70.5 21 151.5 l-166 0 l-8 28 l176 0 q2 47 2 97 q0 50 0 104 l150 -13 q-3 -23 -34 -27 q-1 -43 -2 -83 q-1 -40 -4 -78 l68 0 ZM204 21 l588 0 l0 725 l-588 0 l0 -725 ZM839 838 l112 -90 q-12 -15 -41 -21 l0 -773 q0 -4 -16 -13.5 q-16 -9.5 -39 -17 q-23 -7.5 -45 -7.5 l-18 0 l0 77 l-588 0 l0 -38 q0 -7 -13.5 -17.5 q-13.5 -10.5 -35.5 -18.5 q-22 -8 -47 -8 l-20 0 l0 916 l126 -52 l568 0 l57 63 Z" /><glyph glyph-name="cid13244" unicode="&#x56fd;" d="M582 359 l10 6 q57 -12 87.5 -32.5 q30.5 -20.5 39.5 -42.5 q9 -22 2.5 -40.5 q-6.5 -18.5 -22.5 -27.5 q14 -12 40 -33.5 q26 -21.5 47 -41.5 q-4 -16 -27 -16 l-524 0 l-8 28 l210 0 l0 226 l-151 0 l-8 29 l159 0 l0 186 l-190 0 l-8 27 l375 0 l54 71 q0 0 17 -13.5 q17 -13.5 40.5 -32.5 q23.5 -19 41.5 -36 q-4 -16 -27 -16 l-196 0 l0 -186 l54 0 l51 69 q0 0 16 -13.5 q16 -13.5 38 -32.5 q22 -19 39 -36 q-3 -16 -26 -16 l-172 0 l0 -226 l88 0 l43 57 q-9 0 -19 3.5 q-10 3.5 -20 11.5 q-3 33 -19 68.5 q-16 35.5 -35 59.5 ZM197 21 l602 0 l0 730 l-602 0 l0 -730 ZM846 843 l112 -90 q-5 -6 -15.5 -11.5 q-10.5 -5.5 -26.5 -9.5 l0 -778 q0 -5 -15.5 -14 q-15.5 -9 -38 -16.5 q-22.5 -7.5 -44.5 -7.5 l-19 0 l0 76 l-602 0 l0 -37 q0 -7 -13.5 -17.5 q-13.5 -10.5 -35 -18.5 q-21.5 -8 -46.5 -8 l-20 0 l0 921 l125 -52 l582 0 l57 63 Z" /><glyph glyph-name="cid13315" unicode="&#x5728;" d="M307 418 l37 -13 q-4 -14 -31 -20 l0 -439 q-1 -4 -15.5 -12 q-14.5 -8 -36.5 -14.5 q-22 -6.5 -45 -6.5 l-23 0 l0 390 q-36 -31 -75.5 -57.5 q-39.5 -26.5 -83.5 -49.5 l-9 11 q96 80 166.5 188 q70.5 108 116.5 221 l-249 0 l-8 29 l269 0 q41 107 62 206 l169 -44 q-2 -9 -10.5 -14.5 q-8.5 -5.5 -28.5 -6.5 q-25 -69 -59 -141 l307 0 l70 89 q0 0 13 -10 q13 -10 32.5 -25.5 q19.5 -15.5 41.5 -33.5 q22 -18 40 -33 q-4 -16 -28 -16 l-491 0 q-25 -51 -58 -101 q-33 -50 -73 -97 ZM781 3 l66 84 q0 0 20.5 -16 q20.5 -16 49.5 -38.5 q29 -22.5 52 -42.5 q-4 -16 -29 -16 l-604 0 l-8 29 l225 0 l0 306 l-181 0 l-8 28 l189 0 l0 235 l152 -14 q-1 -10 -8 -16.5 q-7 -6.5 -24 -9.5 l0 -195 l56 0 l63 79 q0 0 19.5 -15 q19.5 -15 46 -36 q26.5 -21 47.5 -40 q-4 -16 -28 -16 l-204 0 l0 -306 l108 0 Z" /><glyph glyph-name="cid13328" unicode="&#x5733;" d="M267 568 l50 83 q0 0 15.5 -16 q15.5 -16 36 -38.5 q20.5 -22.5 34.5 -41.5 q-1 -8 -8.5 -12 q-7.5 -4 -17.5 -4 l-117 0 l0 -283 q32 10 65.5 20 q33.5 10 66.5 20 l3 -11 q-45 -35 -118 -86.5 q-73 -51.5 -176 -113.5 q-6 -22 -25 -29 l-59 134 q20 5 53.5 13.5 q33.5 8.5 74.5 19.5 l0 316 l-107 0 l-8 29 l115 0 l0 267 l152 -13 q-2 -10 -9.5 -18 q-7.5 -8 -27.5 -11 l0 -225 l7 0 ZM403 823 l148 -14 q-1 -10 -8.5 -18 q-7.5 -8 -26.5 -11 l0 -402 q-1 -101 -24 -188.5 q-23 -87.5 -78 -158 q-55 -70.5 -152 -121.5 l-9 9 q59 60 91.5 131 q32.5 71 45.5 153.5 q13 82.5 13 175.5 l0 444 ZM602 39 l0 743 l141 -14 q-1 -9 -7.5 -15.5 q-6.5 -6.5 -24.5 -9.5 l0 -669 q0 -5 -14 -13.5 q-14 -8.5 -34 -15 q-20 -6.5 -40 -6.5 l-21 0 ZM805 827 l150 -15 q-2 -10 -8.5 -17 q-6.5 -7 -24.5 -10 l0 -833 q0 -6 -14.5 -15.5 q-14.5 -9.5 -36 -17.5 q-21.5 -8 -43.5 -8 l-23 0 l0 916 Z" /><glyph glyph-name="cid13357" unicode="&#x5747;" d="M764 344 l3 -11 q-46 -37 -118.5 -90.5 q-72.5 -53.5 -177.5 -121.5 q-7 -23 -23 -29 l-77 125 q34 9 95.5 28.5 q61.5 19.5 139 45 q77.5 25.5 158.5 53.5 ZM475 536 l8 7 q80 -5 130.5 -24 q50.5 -19 75.5 -45 q25 -26 30 -52.5 q5 -26.5 -6 -46 q-11 -19.5 -33.5 -26 q-22.5 -6.5 -52.5 7.5 q-15 31 -40.5 63.5 q-25.5 32.5 -55 63 q-29.5 30.5 -56.5 52.5 ZM878 725 l106 -95 q-7 -6 -18 -11 q-11 -5 -28 -7 q-10 -287 -33 -442.5 q-23 -155.5 -70 -202.5 q-28 -29 -64.5 -42 q-36.5 -13 -86.5 -13 q2 57 -22 82 q-14 14 -43.5 25.5 q-29.5 11.5 -67.5 18.5 l1 14 q26 -2 56.5 -4.5 q30.5 -2.5 57 -4 q26.5 -1.5 39.5 -1.5 q26 0 42 15 q22 19 37 92.5 q15 73.5 25 196 q10 122.5 16 285.5 l-307 0 q-37 -57 -83 -107.5 q-46 -50.5 -99 -87.5 l-12 9 q15 21 29 45 q14 24 27 51 q-2 -1 -8 -1 l-114 0 l0 -293 q38 8 76 17.5 q38 9.5 78 19.5 l2 -11 q-46 -33 -120 -79.5 q-74 -46.5 -181 -105.5 q-6 -22 -26 -27 l-64 134 q20 4 51 10.5 q31 6.5 70 14.5 l0 320 l-108 0 l-8 28 l116 0 l0 266 l151 -14 q-1 -10 -8.5 -17.5 q-7.5 -7.5 -28.5 -10.5 l0 -224 l5 0 l50 85 q0 0 13 -14.5 q13 -14.5 31.5 -34.5 q18.5 -20 34.5 -39 q30 65 54 138.5 q24 73.5 38 144.5 l153 -43 q-5 -20 -38 -20 q-13 -31 -29 -62.5 q-16 -31.5 -34 -62.5 l279 0 l63 65 Z" /><glyph glyph-name="cid13464" unicode="&#x578b;" d="M689 376 l0 13 q0 0 13 -1 q13 -1 31 -2.5 q18 -1.5 34 -2.5 q16 -1 23 -1 q18 0 18 16 l0 434 l144 -12 q-3 -21 -34 -27 l0 -400 q0 -38 -9 -65 q-9 -27 -38 -42.5 q-29 -15.5 -90 -21.5 q-1 26 -5 44.5 q-4 18.5 -14 31.5 q-10 12 -26 21 q-16 9 -47 15 ZM256 579 l80 0 l0 166 l-79 0 l0 -135 q0 -7 0 -15 q0 -8 -1 -16 ZM789 -29 l64 82 q0 0 20 -15.5 q20 -15.5 47 -37.5 q27 -22 49 -42 q-4 -16 -29 -16 l-900 0 l-8 29 l406 0 l0 183 l-308 0 l-7 29 l315 0 l0 119 q-9 -6 -30.5 -12.5 q-21.5 -6.5 -52.5 -6.5 l-19 0 l0 267 l-81 0 q-5 -52 -24.5 -105 q-19.5 -53 -65.5 -101 q-46 -48 -131 -85 l-8 9 q69 62 93.5 135.5 q24.5 73.5 28.5 146.5 l-107 0 l-8 29 l117 0 q0 8 0 16 q0 8 0 15 l0 135 l-89 0 l-8 28 l361 0 l58 71 q0 0 17.5 -13.5 q17.5 -13.5 42.5 -32.5 q25 -19 45 -37 q-4 -16 -28 -16 l-105 0 l0 -166 l1 0 l56 77 q0 0 17 -14.5 q17 -14.5 39.5 -34.5 q22.5 -20 40.5 -39 l0 221 l140 -13 q-1 -10 -8 -16.5 q-7 -6.5 -26 -9.5 l0 -313 q0 -4 -13.5 -10 q-13.5 -6 -33 -11 q-19.5 -5 -39.5 -5 l-20 0 l0 149 q-6 -10 -25 -10 l-129 0 l0 -219 l150 -13 q-1 -11 -8.5 -18.5 q-7.5 -7.5 -27.5 -10.5 l0 -106 l151 0 l62 80 q0 0 19.5 -15.5 q19.5 -15.5 45.5 -37 q26 -21.5 47 -40.5 q-4 -16 -27 -16 l-298 0 l0 -183 l231 0 Z" /><glyph glyph-name="cid14070" unicode="&#x2f20;&#x58eb;" d="M763 482 l72 91 q0 0 13 -10 q13 -10 33 -26 q20 -16 42.5 -34 q22.5 -18 40.5 -34 q-4 -16 -29 -16 l-372 0 l0 -461 l151 0 l73 92 q0 0 13 -10 q13 -10 33.5 -26 q20.5 -16 43 -34 q22.5 -18 40.5 -34 q-4 -16 -30 -16 l-787 0 l-8 28 l342 0 l0 461 l-388 0 l-8 29 l396 0 l0 353 l166 -16 q-1 -11 -9 -18.5 q-8 -7.5 -28 -10.5 l0 -308 l200 0 Z" /><glyph glyph-name="cid14147" unicode="&#x591a;" d="M838 413 l120 -103 q-7 -7 -19.5 -10.5 q-12.5 -3.5 -33.5 -5.5 q-83 -114 -200 -193 q-117 -79 -279 -125 q-162 -46 -379 -63 l-5 14 q170 38 306 90 q136 52 239.5 126.5 q103.5 74.5 175.5 177.5 l-227 0 q-23 -16 -48 -32 q-25 -16 -51 -31 q56 -10 84 -33 q28 -23 33.5 -48.5 q5.5 -25.5 -6 -45.5 q-11.5 -20 -34.5 -26.5 q-23 -6.5 -52 9.5 q-8 31 -29.5 61.5 q-21.5 30.5 -46.5 55.5 q-58 -28 -121 -52.5 q-63 -24.5 -131 -41.5 l-7 11 q70 33 133 77 q63 44 116.5 92.5 q53.5 48.5 91.5 94.5 q-167 -68 -394 -96 l-6 13 q209 61 366.5 149.5 q157.5 88.5 256.5 216.5 l-257 0 q-20 -15 -42 -29.5 q-22 -14.5 -45 -28.5 q60 -6 90.5 -26 q30.5 -20 38 -44.5 q7.5 -24.5 -2.5 -44.5 q-10 -20 -33 -27.5 q-23 -7.5 -52 7.5 q-9 29 -32.5 59.5 q-23.5 30.5 -49.5 52.5 q-48 -25 -100 -46.5 q-52 -21.5 -108 -37.5 l-6 10 q71 40 135 93 q64 53 114 109.5 q50 56.5 78 105.5 l175 -40 q-3 -10 -14 -15.5 q-11 -5.5 -37 -5.5 q-16 -16 -33.5 -31.5 q-17.5 -15.5 -37.5 -31.5 l230 0 l66 61 l118 -100 q-12 -14 -52 -15 q-108 -132 -279 -219 l131 -31 q-4 -10 -15.5 -15.5 q-11.5 -5.5 -37.5 -5.5 q-13 -12 -27 -24.5 q-14 -12.5 -31 -24.5 l197 0 l66 63 Z" /><glyph glyph-name="cid14165" unicode="&#x2f24;&#x5927;" d="M939 519 l-393 0 q18 -92 65.5 -181.5 q47.5 -89.5 136.5 -166.5 q89 -77 229 -134 l-2 -11 q-92 -17 -108 -116 q-87 53 -147 122.5 q-60 69.5 -98 148 q-38 78.5 -59 159 q-21 80.5 -31 155.5 q-11 -89 -39 -171.5 q-28 -82.5 -82.5 -156.5 q-54.5 -74 -145 -138.5 q-90.5 -64.5 -226.5 -118.5 l-9 15 q104 63 173.5 131.5 q69.5 68.5 111.5 143 q42 74.5 63.5 154.5 q21.5 80 29.5 165 l-361 0 l-8 29 l371 0 q5 71 5.5 145.5 q0.5 74.5 0.5 152.5 l168 -16 q-2 -11 -10 -18.5 q-8 -7.5 -26 -10.5 q-1 -65 -3 -128.5 q-2 -63.5 -7 -124.5 l225 0 l74 91 q0 0 13 -10 q13 -10 33.5 -26 q20.5 -16 43 -34 q22.5 -18 41.5 -34 q-4 -16 -29 -16 Z" /><glyph glyph-name="cid14169" unicode="&#x5929;" d="M936 420 l-394 0 q19 -76 68.5 -148.5 q49.5 -72.5 139 -134 q89.5 -61.5 226.5 -105.5 l-1 -12 q-44 -8 -70 -33.5 q-26 -25.5 -33 -75.5 q-86 43 -146 100 q-60 57 -99.5 121.5 q-39.5 64.5 -62.5 131 q-23 66.5 -35 129.5 q-13 -80 -43.5 -150 q-30.5 -70 -86 -130 q-55.5 -60 -143.5 -110.5 q-88 -50.5 -218 -91.5 l-8 15 q102 50 171 105 q69 55 111 116 q42 61 64 129.5 q22 68.5 31 143.5 l-342 0 l-8 29 l353 0 q5 61 6 126 q1 65 1 136 l-294 0 l-8 29 l595 0 l69 87 q0 0 12.5 -9.5 q12.5 -9.5 32.5 -25 q20 -15.5 41.5 -33 q21.5 -17.5 39.5 -32.5 q-2 -8 -10 -12 q-8 -4 -19 -4 l-326 0 q-1 -71 -3.5 -136.5 q-2.5 -65.5 -8.5 -125.5 l231 0 l70 88 q0 0 13 -9.5 q13 -9.5 32.5 -25 q19.5 -15.5 41 -33 q21.5 -17.5 39.5 -33.5 q-4 -16 -29 -16 Z" /><glyph glyph-name="cid15572" unicode="&#x5b66;" d="M410 846 l10 5 q66 -19 102 -45.5 q36 -26.5 48.5 -55 q12.5 -28.5 7 -52.5 q-5.5 -24 -23.5 -38.5 q-18 -14.5 -42 -13.5 q-24 1 -49 24 q0 46 -16.5 93.5 q-16.5 47.5 -36.5 82.5 ZM183 832 l9 5 q69 -13 108.5 -37 q39.5 -24 55.5 -51.5 q16 -27.5 14 -52 q-2 -24.5 -17.5 -41 q-15.5 -16.5 -39 -18 q-23.5 -1.5 -49.5 18.5 q-5 46 -29.5 94 q-24.5 48 -51.5 82 ZM863 695 l114 -107 q-6 -7 -14.5 -9.5 q-8.5 -2.5 -25.5 -3.5 q-31 -23 -78 -49.5 q-47 -26.5 -88 -44.5 l33 -31 q-6 -7 -15 -9 q-9 -2 -26 -4 q-37 -19 -87.5 -42 q-50.5 -23 -100.5 -42 l22 -2 q-3 -20 -34 -26 l0 -66 l216 0 l68 89 q0 0 12.5 -10 q12.5 -10 31.5 -25.5 q19 -15.5 39.5 -33 q20.5 -17.5 37.5 -32.5 q-4 -16 -29 -16 l-376 0 l0 -176 q0 -42 -11.5 -72 q-11.5 -30 -48.5 -48 q-37 -18 -114 -25 q-4 29 -10.5 50 q-6.5 21 -22.5 35 q-16 14 -41 24.5 q-25 10.5 -75 18.5 l0 13 q0 0 23 -1.5 q23 -1.5 55 -3 q32 -1.5 60 -3 q28 -1.5 38 -1.5 q23 0 23 19 l0 170 l-390 0 l-8 28 l398 0 l0 106 l87 -8 q23 24 47.5 52.5 q24.5 28.5 43.5 53.5 l-399 0 l-9 29 l416 0 l68 63 l67 -64 q11 24 21.5 54 q10.5 30 18.5 56 l-615 0 q7 -56 -10.5 -94.5 q-17.5 -38.5 -45.5 -55.5 q-25 -16 -53 -10 q-28 6 -39 33 q-9 26 4 46.5 q13 20.5 35 31.5 q29 18 49.5 60.5 q20.5 42.5 13.5 94.5 l14 1 q20 -42 28 -80 l428 0 q18 33 36 72 q18 39 34.5 78 q16.5 39 27.5 72 l154 -57 q-4 -8 -13.5 -13 q-9.5 -5 -26.5 -3 q-34 -34 -81 -74.5 q-47 -40.5 -97 -74.5 l154 0 l66 67 Z" /><glyph glyph-name="cid15672" unicode="&#x5b98;" d="M344 20 l370 0 l0 175 l-370 0 l0 -175 ZM649 529 l-305 0 l0 -153 l305 0 l0 153 ZM704 223 l54 58 l112 -84 q-5 -6 -14.5 -11.5 q-9.5 -5.5 -23.5 -8.5 l0 -227 q0 -4 -16.5 -12 q-16.5 -8 -39 -14.5 q-22.5 -6.5 -42.5 -6.5 l-20 0 l0 74 l-370 0 l0 -38 q0 -7 -14 -17 q-14 -10 -36.5 -17.5 q-22.5 -7.5 -48.5 -7.5 l-19 0 l0 697 l125 -51 l289 0 l53 57 l110 -83 q-9 -13 -36 -19 l0 -186 q0 -3 -17 -9.5 q-17 -6.5 -39.5 -11.5 q-22.5 -5 -41.5 -5 l-20 0 l0 48 l-305 0 l0 -125 l360 0 ZM861 752 l108 -104 q-6 -6 -13.5 -8 q-7.5 -2 -24.5 -4 q-24 -22 -61.5 -49 q-37.5 -27 -70.5 -44 l-9 6 q5 23 10 53.5 q5 30.5 8 57.5 l-615 0 q6 -54 -9.5 -90.5 q-15.5 -36.5 -42.5 -52.5 q-17 -11 -39 -10.5 q-22 0.5 -40.5 12.5 q-18.5 12 -25.5 34 q-8 32 7.5 55 q15.5 23 42.5 34 q17 9 34 25 q17 16 28 37 q11 21 9 44 l12 0 q11 -29 19 -59 l308 0 q-13 5 -25 14 q-1 40 -19.5 78.5 q-18.5 38.5 -46.5 62.5 l7 6 q65 -1 105 -14.5 q40 -13.5 58.5 -34.5 q18.5 -21 20 -43.5 q1.5 -22.5 -10.5 -41 q-12 -18.5 -32 -27.5 l246 0 l62 63 Z" /><glyph glyph-name="cid15676" unicode="&#x5b9a;" d="M404 842 l7 6 q73 -1 114.5 -18 q41.5 -17 57.5 -41 q16 -24 12 -48.5 q-4 -24.5 -22 -41 q-18 -16.5 -45 -18.5 q-27 -2 -57 20 q-1 38 -19.5 77 q-18.5 39 -47.5 64 ZM558 268 l0 -215 q69 -6 156 -6 q21 0 54.5 0 q33.5 0 71.5 0 q38 0 72.5 0.5 q34.5 0.5 58.5 0.5 l0 -12 q-30 -7 -45 -36 q-15 -29 -16 -66 l-202 0 q-116 0 -199.5 18.5 q-83.5 18.5 -140.5 67.5 q-57 49 -94 140 q-34 -72 -92 -136.5 q-58 -64.5 -147 -111.5 l-9 9 q66 63 105 142 q39 79 58 163 q19 84 24 160 l155 -27 q-5 -24 -38 -25 q-7 -35 -17 -71.5 q-10 -36.5 -25 -71.5 q28 -43 65.5 -71 q37.5 -28 86.5 -44 l0 408 l-270 0 l-8 28 l523 0 l62 74 q0 0 11.5 -8 q11.5 -8 28.5 -21 q5 21 10.5 47 q5.5 26 8.5 48 l-614 0 q6 -54 -10.5 -91.5 q-16.5 -37.5 -44.5 -54.5 q-17 -10 -38.5 -9.5 q-21.5 0.5 -40 12 q-18.5 11.5 -25.5 33.5 q-8 32 7.5 54 q15.5 22 40.5 34 q18 9 35.5 26 q17.5 17 29.5 38.5 q12 21.5 11 45.5 l12 0 q6 -16 11 -31 q5 -15 7 -29 l612 0 l62 63 l109 -103 q-7 -7 -15.5 -9 q-8.5 -2 -23.5 -3 q-22 -22 -57 -45.5 q-35 -23.5 -67 -40.5 q14 -10 27.5 -21 q13.5 -11 25.5 -21 q-4 -16 -27 -16 l-275 0 l0 -188 l128 0 l61 79 q0 0 19 -15 q19 -15 45 -36 q26 -21 46 -40 q-3 -16 -27 -16 l-272 0 Z" /><glyph glyph-name="cid15881" unicode="&#x5bf9;" d="M395 780 l107 -95 q-5 -8 -14 -11.5 q-9 -3.5 -27 -5.5 q-14 -81 -37.5 -163 q-23.5 -82 -58.5 -160 q25 -34 45.5 -67.5 q20.5 -33.5 36.5 -67.5 q21 -46 21 -81.5 q0 -35.5 -14 -57.5 q-14 -22 -34.5 -27 q-20.5 -5 -42.5 10.5 q-22 15.5 -37 55.5 q-6 26 -15 54.5 q-9 28.5 -22 60.5 q-49 -77 -114.5 -146 q-65.5 -69 -152.5 -124 l-12 10 q76 75 133 170 q57 95 97 201 q-33 67 -74.5 132.5 q-41.5 65.5 -89.5 118.5 l12 8 q108 -79 186 -160 q20 63 33.5 127 q13.5 64 21.5 127 l-288 0 l-9 28 l289 0 l60 63 ZM824 597 l56 88 q0 0 17 -17 q17 -17 40 -40 q23 -23 39 -43 q-3 -16 -27 -16 l-125 0 l0 -514 q0 -41 -10.5 -70.5 q-10.5 -29.5 -45.5 -47 q-35 -17.5 -107 -24.5 q-3 29 -9.5 49.5 q-6.5 20.5 -20.5 33.5 q-15 15 -38 25 q-23 10 -67 18 l0 13 q0 0 20 -1 q20 -1 48 -3 q28 -2 53 -3 q25 -1 35 -1 q14 0 19.5 5 q5.5 5 5.5 15 l0 505 l-248 0 l-8 28 l256 0 l0 247 l153 -15 q-3 -22 -36 -28 l0 -204 ZM468 471 l8 8 q73 -23 113.5 -55 q40.5 -32 55.5 -65 q15 -33 11 -61 q-4 -28 -20.5 -45 q-16.5 -17 -39 -16.5 q-22.5 0.5 -43.5 24.5 q-5 29 -15 66.5 q-10 37.5 -27 75.5 q-17 38 -43 68 Z" /><glyph glyph-name="cid15885" unicode="&#x5bfc;" d="M689 761 l-396 0 l0 -137 l396 0 l0 137 ZM575 395 l-205 0 q-73 0 -115 7 q-42 7 -60 29 q-18 22 -18 66 l0 341 l129 -49 l373 0 l53 59 l115 -85 q-4 -6 -14.5 -12.5 q-10.5 -6.5 -25.5 -9.5 l0 -164 q0 -3 -17 -9.5 q-17 -6.5 -39.5 -11.5 q-22.5 -5 -41.5 -5 l-20 0 l0 44 l-396 0 l0 -80 q0 -16 13 -21.5 q13 -5.5 61 -5.5 l217 0 q56 0 104 0.5 q48 0.5 70 1.5 q18 2 27.5 6 q9.5 4 16.5 12 q12 14 25.5 42 q13.5 28 32.5 77 l11 0 l3 -122 q32 -8 44.5 -18 q12.5 -10 12.5 -27 q0 -21 -14 -33.5 q-14 -12.5 -51.5 -19.5 q-37.5 -7 -107.5 -9.5 q-70 -2.5 -183 -2.5 ZM235 241 l9 7 q73 -11 116.5 -34 q43.5 -23 62.5 -50.5 q19 -27.5 19.5 -53 q0.5 -25.5 -13.5 -43 q-14 -17.5 -37.5 -20.5 q-23.5 -3 -50.5 15 q-11 47 -42.5 96 q-31.5 49 -63.5 83 ZM791 282 l63 80 q0 0 19.5 -15 q19.5 -15 46 -36.5 q26.5 -21.5 47.5 -40.5 q-3 -16 -28 -16 l-201 0 l0 -208 q0 -39 -12 -66.5 q-12 -27.5 -48.5 -43.5 q-36.5 -16 -111.5 -22 q-3 25 -9.5 43 q-6.5 18 -22.5 29 q-15 11 -38.5 20 q-23.5 9 -72.5 16 l0 15 q0 0 22 -1.5 q22 -1.5 52.5 -3.5 q30.5 -2 57.5 -3.5 q27 -1.5 37 -1.5 q13 0 17.5 4.5 q4.5 4.5 4.5 14.5 l0 208 l-562 0 l-8 28 l570 0 l0 106 l157 -14 q-3 -21 -33 -25 l0 -67 l53 0 Z" /><glyph glyph-name="cid15925" unicode="&#x5c11;" d="M445 847 l159 -14 q-1 -10 -8.5 -18 q-7.5 -8 -28.5 -10 l0 -525 q0 -9 -17 -23.5 q-17 -14.5 -41.5 -26 q-24.5 -11.5 -47.5 -11.5 l-16 0 l0 628 ZM667 690 q97 -31 157.5 -70.5 q60.5 -39.5 90.5 -81 q30 -41.5 35.5 -77 q5.5 -35.5 -7 -59.5 q-12.5 -24 -38 -28.5 q-25.5 -4.5 -57.5 16.5 q-15 49 -46.5 102 q-31.5 53 -69.5 102.5 q-38 49.5 -74 88.5 l9 7 ZM234 703 l154 -60 q-4 -8 -12 -13 q-8 -5 -27 -4 q-29 -62 -73 -131.5 q-44 -69.5 -102 -135 q-58 -65.5 -132 -116.5 l-9 9 q50 64 90 143.5 q40 79.5 68.5 160.5 q28.5 81 42.5 147 ZM713 410 l150 -75 q-6 -9 -16.5 -12 q-10.5 -3 -30.5 0 q-71 -113 -151 -187.5 q-80 -74.5 -171.5 -120 q-91.5 -45.5 -196.5 -69.5 q-105 -24 -226 -36 l-3 15 q104 27 198 63 q94 36 176 90.5 q82 54.5 150.5 135.5 q68.5 81 120.5 196 Z" /><glyph glyph-name="cid16037" unicode="&#x5c55;" d="M385 428 l-119 0 q-1 -33 -4.5 -66 q-3.5 -33 -8.5 -68 l132 0 l0 134 ZM778 754 l-510 0 l0 -131 l510 0 l0 131 ZM623 428 l-127 0 l0 -134 l127 0 l0 134 ZM788 265 l121 -88 q-4 -7 -12.5 -9 q-8.5 -2 -25.5 2 q-32 -13 -75 -28.5 q-43 -15.5 -87 -29.5 q57 -34 126 -53.5 q69 -19.5 145 -30.5 l-1 -12 q-71 -18 -93 -107 q-88 31 -154.5 75 q-66.5 44 -112.5 112 q-46 68 -73 169 l-98 0 l0 -214 q33 8 68.5 18 q35.5 10 72.5 20 l3 -11 q-30 -24 -84 -66 q-54 -42 -123 -88 q-10 -13 -22 -20 l-68 126 q27 15 34.5 25 q7.5 10 7.5 24 l0 186 l-90 0 q-19 -95 -67.5 -187 q-48.5 -92 -144.5 -165 l-10 7 q57 90 83 191 q26 101 33.5 206.5 q7.5 105.5 7.5 206.5 l0 307 l137 -48 l482 0 l53 57 l113 -84 q-4 -6 -15 -12 q-11 -6 -26 -9 l0 -154 q0 -3 -16.5 -9 q-16.5 -6 -38.5 -11 q-22 -5 -40 -5 l-20 0 l0 38 l-510 0 l0 -69 q0 -16 0 -33.5 q0 -17.5 -1 -34.5 l118 0 l0 119 l140 -13 q-1 -8 -7 -14.5 q-6 -6.5 -22 -8.5 l0 -83 l127 0 l0 116 l139 -13 q-1 -8 -7 -14 q-6 -6 -22 -9 l0 -80 l31 0 l56 74 q0 0 17.5 -14 q17.5 -14 41 -34.5 q23.5 -20.5 41.5 -38.5 q-3 -16 -27 -16 l-160 0 l0 -134 l67 0 l62 83 q0 0 19 -16 q19 -16 45 -38 q26 -22 47 -42 q-4 -16 -28 -16 l-380 0 q20 -41 48.5 -73.5 q28.5 -32.5 63.5 -58.5 q31 33 62 70 q31 37 49 62 Z" /><glyph glyph-name="cid16931" unicode="&#x5dde;" d="M134 606 l14 1 q32 -74 37.5 -132 q5.5 -58 -7 -100 q-12.5 -42 -34.5 -67 q-15 -17 -36.5 -22.5 q-21.5 -5.5 -41.5 1 q-20 6.5 -31 24.5 q-14 26 -5 49 q9 23 31 39 q20 17 38 48.5 q18 31.5 28.5 72.5 q10.5 41 6.5 86 ZM219 820 l149 -14 q-2 -10 -9.5 -18 q-7.5 -8 -27.5 -11 l0 -351 q-1 -80 -14 -155 q-13 -75 -44 -142 q-31 -67 -85 -122.5 q-54 -55.5 -138 -96.5 l-9 10 q72 66 110.5 146 q38.5 80 53 171.5 q14.5 91.5 14.5 189.5 l0 393 ZM775 822 l151 -16 q-1 -10 -8.5 -17.5 q-7.5 -7.5 -27.5 -10.5 l0 -825 q0 -6 -14.5 -15.5 q-14.5 -9.5 -35.5 -17 q-21 -7.5 -43 -7.5 l-22 0 l0 447 q-5 -24 -21.5 -38.5 q-16.5 -14.5 -39 -12.5 q-22.5 2 -45.5 24 q1 56 -20 116 q-21 60 -47 106 l0 -588 q0 -6 -14 -15 q-14 -9 -35 -16.5 q-21 -7.5 -42 -7.5 l-22 0 l0 420 q-14 -28 -43.5 -34 q-29.5 -6 -59.5 25 q3 55 -13 114 q-16 59 -38 105 l10 4 q63 -29 97 -63 q34 -34 47 -67 l0 375 l148 -16 q-1 -10 -8 -17.5 q-7 -7.5 -27 -10.5 l0 -203 l8 4 q81 -35 119 -78 q38 -43 46 -81 l0 417 Z" /><glyph glyph-name="cid16944" unicode="&#x2f2f;&#x5de5;" d="M768 21 l73 93 q0 0 13 -10 q13 -10 33.5 -26 q20.5 -16 43 -34.5 q22.5 -18.5 40.5 -34.5 q-4 -16 -29 -16 l-901 0 l-8 28 l401 0 l0 642 l-327 0 l-8 29 l609 0 l72 92 q0 0 13 -10 q13 -10 33.5 -26 q20.5 -16 43 -34.5 q22.5 -18.5 40.5 -34.5 q-2 -8 -10 -12 q-8 -4 -19 -4 l-318 0 l0 -642 l205 0 Z" /><glyph glyph-name="cid16990" unicode="&#x5e08;" d="M171 682 l0 -510 q0 -4 -12.5 -11 q-12.5 -7 -31 -12.5 q-18.5 -5.5 -37.5 -5.5 l-18 0 l0 578 l133 -13 q-1 -10 -8 -16.5 q-7 -6.5 -26 -9.5 ZM235 410 l0 435 l141 -14 q-1 -10 -8.5 -17.5 q-7.5 -7.5 -26.5 -10.5 l0 -393 q-1 -104 -23.5 -197.5 q-22.5 -93.5 -76.5 -170 q-54 -76.5 -152 -131.5 l-10 10 q62 64 96 140.5 q34 76.5 47 164 q13 87.5 13 184.5 ZM948 729 l-228 0 l0 -156 l79 0 l48 55 l107 -80 q-4 -5 -14 -10.5 q-10 -5.5 -24 -8.5 l0 -356 q0 -37 -7.5 -63 q-7.5 -26 -32.5 -40.5 q-25 -14.5 -78 -19.5 q0 25 -2 44 q-2 19 -7 30 q-6 11 -16 19 q-10 8 -30 12 l0 14 q0 0 10.5 -0.5 q10.5 -0.5 22.5 -1 q12 -0.5 18 -0.5 q10 0 12.5 4.5 q2.5 4.5 2.5 11.5 l0 362 l-89 0 l0 -602 q0 -6 -24 -19 q-24 -13 -67 -13 l-20 0 l0 634 l-87 0 l0 -469 q0 -6 -23 -19.5 q-23 -13.5 -64 -13.5 l-19 0 l0 576 l118 -46 l75 0 l0 156 l-224 0 l-7 29 l426 0 l62 82 q0 0 19 -15.5 q19 -15.5 45 -37.5 q26 -22 46 -42 q-4 -16 -28 -16 Z" /><glyph glyph-name="cid17088" unicode="&#x5e45;" d="M946 737 l-509 0 l-8 28 l378 0 l60 81 q0 0 18.5 -15.5 q18.5 -15.5 44 -37 q25.5 -21.5 45.5 -40.5 q-4 -16 -29 -16 ZM590 476 l194 0 l0 143 l-194 0 l0 -143 ZM804 405 l-20 0 l0 43 l-194 0 l0 -30 q0 -6 -24.5 -16 q-24.5 -10 -66.5 -10 l-20 0 l0 301 l121 -47 l180 0 l53 60 l102 -77 q-4 -5 -12 -9.5 q-8 -4.5 -25 -7.5 l0 -184 q0 -4 -25 -13.5 q-25 -9.5 -69 -9.5 ZM276 641 l0 -409 q8 0 16.5 -0.5 q8.5 -0.5 12.5 -0.5 q13 0 13 15 l0 395 l-42 0 ZM350 720 l97 -74 q-5 -6 -15.5 -12 q-10.5 -6 -26.5 -9 l0 -390 q0 -33 -6.5 -56.5 q-6.5 -23.5 -26.5 -36.5 q-20 -13 -62 -17 q0 20 -2 37.5 q-2 17.5 -7 27.5 q-6 17 -25 25 l0 -273 q-1 -4 -24 -16.5 q-23 -12.5 -52 -12.5 l-16 0 l0 728 l-38 0 l0 -502 q0 -7 -22.5 -19 q-22.5 -12 -51.5 -12 l-15 0 l0 603 l94 -41 l24 0 l0 175 l147 -14 q-1 -10 -8.5 -17.5 q-7.5 -7.5 -27.5 -10.5 l0 -133 l22 0 l42 50 ZM734 9 l95 0 l0 140 l-95 0 l0 -140 ZM547 149 l0 -140 l92 0 l0 140 l-92 0 ZM639 315 l-92 0 l0 -137 l92 0 l0 137 ZM829 315 l-95 0 l0 -137 l95 0 l0 137 ZM877 405 l103 -79 q-9 -14 -39 -19 l0 -365 q0 -4 -25.5 -15.5 q-25.5 -11.5 -67.5 -11.5 l-19 0 l0 66 l-282 0 l0 -42 q0 -5 -23.5 -16 q-23.5 -11 -64.5 -11 l-20 0 l0 477 l120 -45 l265 0 l53 61 Z" /><glyph glyph-name="cid17168" unicode="&#x5e73;" d="M774 319 l70 87 q0 0 13 -9.5 q13 -9.5 32.5 -24.5 q19.5 -15 41.5 -32.5 q22 -17.5 40 -32.5 q-4 -16 -29 -16 l-384 0 l0 -346 q0 -6 -26.5 -20 q-26.5 -14 -73.5 -14 l-22 0 l0 380 l-396 0 l-8 28 l404 0 l0 418 l-351 0 l-9 29 l656 0 l71 85 q0 0 12.5 -9.5 q12.5 -9.5 32.5 -24.5 q20 -15 42 -32 q22 -17 40 -32 q-4 -16 -29 -16 l-343 0 l0 -418 l216 0 ZM158 677 l11 4 q73 -35 113.5 -75.5 q40.5 -40.5 56 -80 q15.5 -39.5 12 -71.5 q-3.5 -32 -21.5 -51 q-18 -19 -43.5 -18.5 q-25.5 0.5 -53.5 26.5 q-2 68 -24.5 138.5 q-22.5 70.5 -49.5 127.5 ZM632 372 l-11 6 q17 38 36 89 q19 51 37 107.5 q18 56.5 32 110.5 l155 -57 q-3 -8 -12.5 -13.5 q-9.5 -5.5 -26.5 -4.5 q-46 -70 -100 -132 q-54 -62 -110 -106 Z" /><glyph glyph-name="cid17169" unicode="&#x5e74;&#xf98e;" d="M327 195 l176 0 l0 243 l-176 0 l0 -243 ZM774 195 l70 87 q0 0 12.5 -9.5 q12.5 -9.5 32 -25 q19.5 -15.5 41.5 -33 q22 -17.5 40 -32.5 q-4 -16 -29 -16 l-311 0 l0 -220 q0 -6 -26.5 -20 q-26.5 -14 -76.5 -14 l-24 0 l0 254 l-463 0 l-8 29 l170 0 l0 323 l138 -52 l163 0 l0 197 l-185 0 q-61 -80 -131 -141 q-70 -61 -147 -104 l-10 9 q45 50 90 119.5 q45 69.5 85 151 q40 81.5 68 166.5 l165 -63 q-4 -9 -14.5 -14 q-10.5 -5 -27.5 -4 q-13 -24 -27.5 -47 q-14.5 -23 -30.5 -45 l414 0 l69 86 q0 0 21 -16 q21 -16 50.5 -38.5 q29.5 -22.5 54.5 -43.5 q-4 -16 -29 -16 l-288 0 l0 -197 l100 0 l65 81 q0 0 20.5 -15.5 q20.5 -15.5 48 -37 q27.5 -21.5 49.5 -40.5 q-4 -16 -29 -16 l-254 0 l0 -243 l144 0 Z" /><glyph glyph-name="cid17172" unicode="&#x5e76;" d="M233 840 l9 6 q76 -13 120.5 -38 q44.5 -25 64 -54.5 q19.5 -29.5 19 -57 q-0.5 -27.5 -16 -46 q-15.5 -18.5 -40 -21.5 q-24.5 -3 -52.5 17 q-8 51 -38.5 104 q-30.5 53 -65.5 90 ZM412 360 l192 0 l0 236 l-192 0 l0 -230 l0 -6 ZM785 360 l67 84 q0 0 12 -9.5 q12 -9.5 30.5 -24.5 q18.5 -15 39 -31.5 q20.5 -16.5 37.5 -31.5 q-4 -16 -29 -16 l-214 0 l0 -388 q-1 -5 -27.5 -18 q-26.5 -13 -74.5 -13 l-22 0 l0 419 l-193 0 q-2 -61 -17 -122 q-15 -61 -53.5 -116.5 q-38.5 -55.5 -111 -102.5 q-72.5 -47 -190.5 -81 l-7 9 q103 57 157 122 q54 65 75 138.5 q21 73.5 23 152.5 l-242 0 l-8 29 l250 0 l0 4 l0 232 l-201 0 l-9 28 l483 0 q16 34 31 75 q15 41 28 82 q13 41 21 75 l165 -46 q-3 -9 -12 -14.5 q-9 -5.5 -27 -4.5 q-31 -37 -77.5 -83 q-46.5 -46 -94.5 -84 l165 0 l66 82 q0 0 20.5 -15.5 q20.5 -15.5 48.5 -37.5 q28 -22 50 -41 q-4 -16 -28 -16 l-188 0 l0 -236 l57 0 Z" /><glyph glyph-name="cid17224" unicode="&#x5e8f;" d="M801 342 l60 60 l104 -98 q-12 -12 -40 -13 q-20 -21 -49.5 -45.5 q-29.5 -24.5 -61 -47 q-31.5 -22.5 -59.5 -39.5 l-9 7 q14 29 30.5 71 q16.5 42 27.5 77 l-178 0 l0 -270 q0 -38 -10.5 -67 q-10.5 -29 -44 -46.5 q-33.5 -17.5 -102.5 -22.5 q-1 26 -6 46 q-5 20 -18 32 q-12 12 -32.5 21.5 q-20.5 9.5 -61.5 16.5 l0 13 q0 0 17 -1 q17 -1 41 -2.5 q24 -1.5 45.5 -2.5 q21.5 -1 30.5 -1 q13 0 17.5 4.5 q4.5 4.5 4.5 12.5 l0 267 l-250 0 l-9 28 l553 0 ZM768 642 l106 -102 q-11 -11 -41 -12 q-40 -25 -97 -51.5 q-57 -26.5 -112 -47.5 q16 -24 12 -46.5 q-4 -22.5 -23.5 -34 q-19.5 -11.5 -48.5 -1.5 q-15 27 -43.5 54.5 q-28.5 27.5 -61.5 51.5 q-33 24 -63 39 l8 9 q74 2 122.5 -11.5 q48.5 -13.5 74.5 -34.5 q24 23 48 48.5 q24 25.5 43 48.5 l-389 0 l-9 29 l408 0 l66 61 ZM798 679 l62 84 q0 0 19 -16 q19 -16 45.5 -38 q26.5 -22 46.5 -42 q-3 -16 -27 -16 l-716 0 l0 -221 q0 -61 -5 -130 q-5 -69 -24 -139 q-19 -70 -59 -134.5 q-40 -64.5 -110 -117.5 l-10 7 q43 76 61.5 162 q18.5 86 23.5 176 q5 90 5 175 l0 299 l136 -49 l285 0 q-4 2 -7.5 4 q-3.5 2 -7.5 4 q-10 42 -37 85 q-27 43 -55 73 l8 6 q81 -6 125 -28.5 q44 -22.5 58.5 -51.5 q14.5 -29 7 -54.5 q-7.5 -25.5 -30.5 -37.5 l206 0 Z" /><glyph glyph-name="cid17229" unicode="&#x5e93;" d="M775 177 l66 80 q0 0 21 -15 q21 -15 50 -36.5 q29 -21.5 52 -41.5 q-2 -8 -10 -12 q-8 -4 -19 -4 l-274 0 l0 -208 q0 -4 -25.5 -16.5 q-25.5 -12.5 -71.5 -12.5 l-21 0 l0 237 l-308 0 l-9 29 l317 0 l0 138 l-126 0 l-44 -49 l-108 75 q9 6 20.5 12.5 q11.5 6.5 23.5 10.5 q18 35 37.5 79 q19.5 44 38.5 89 l-126 0 l-8 28 l145 0 q16 39 29 74 q13 35 20 58 l146 -42 q-3 -9 -13 -15.5 q-10 -6.5 -30 -4.5 q-6 -15 -13.5 -32.5 q-7.5 -17.5 -15.5 -37.5 l224 0 l67 82 q0 0 20.5 -15.5 q20.5 -15.5 49.5 -37.5 q29 -22 52 -41 q-4 -16 -29 -16 l-396 0 q-21 -48 -43 -98 q-22 -50 -41 -90 l120 0 l0 167 l155 -15 q-2 -10 -9.5 -17.5 q-7.5 -7.5 -27.5 -10.5 l0 -124 l66 0 l59 79 q0 0 19 -15 q19 -15 45.5 -36.5 q26.5 -21.5 46.5 -40.5 q-4 -16 -28 -16 l-208 0 l0 -138 l114 0 ZM807 722 l61 83 q0 0 19 -16 q19 -16 45 -38 q26 -22 46 -41 q-4 -16 -28 -16 l-720 0 l0 -243 q0 -64 -5 -135 q-5 -71 -23.5 -142.5 q-18.5 -71.5 -58 -138 q-39.5 -66.5 -109.5 -120.5 l-10 8 q44 77 63 165.5 q19 88.5 24 181 q5 92.5 5 180.5 l0 319 l132 -47 l291 0 l-6 3 q-10 34 -34 67.5 q-24 33.5 -48 53.5 l8 6 q72 3 111.5 -12 q39.5 -15 52.5 -38.5 q13 -23.5 6 -46 q-7 -22.5 -27 -33.5 l205 0 Z" /><glyph glyph-name="cid17267" unicode="&#x5ea6;" d="M242 681 l0 -230 q0 -64 -5 -136 q-5 -72 -24.5 -144.5 q-19.5 -72.5 -61 -139.5 q-41.5 -67 -113.5 -122 l-11 7 q46 79 66.5 168.5 q20.5 89.5 25.5 183 q5 93.5 5 183.5 l0 307 l137 -48 l261 0 q-3 2 -6 3.5 q-3 1.5 -6 2.5 q-9 36 -33.5 73 q-24.5 37 -50.5 59 l8 6 q78 2 119.5 -15.5 q41.5 -17.5 54.5 -43.5 q13 -26 4.5 -50 q-8.5 -24 -31.5 -35 l215 0 l63 84 q0 0 19 -16 q19 -16 45 -38.5 q26 -22.5 46 -42.5 q-3 -16 -27 -16 l-700 0 ZM482 391 l158 0 l0 128 l-158 0 l0 -128 ZM660 330 l-20 0 l0 32 l-158 0 l0 -25 q0 -4 -14.5 -10 q-14.5 -6 -35.5 -11 q-21 -5 -42 -5 l-20 0 l0 208 l-109 0 l-8 28 l117 0 l0 110 l145 -13 q-1 -10 -8 -16.5 q-7 -6.5 -25 -9.5 l0 -71 l158 0 l0 110 l146 -13 q-1 -10 -8 -16.5 q-7 -6.5 -26 -9.5 l0 -71 l45 0 l53 80 q0 0 16 -15.5 q16 -15.5 38 -36.5 q22 -21 39 -40 q-4 -16 -27 -16 l-164 0 l0 -163 q0 -4 -14 -10 q-14 -6 -35 -11 q-21 -5 -43 -5 ZM684 250 l-292 0 q32 -46 76 -80 q44 -34 98 -58 q37 30 66.5 64.5 q29.5 34.5 51.5 73.5 ZM754 339 l103 -96 q-6 -7 -15 -10 q-9 -3 -29 -5 q-57 -87 -146 -151 q71 -19 150 -28.5 q79 -9.5 161 -13.5 l0 -12 q-74 -22 -91 -112 q-94 16 -174.5 41 q-80.5 25 -146.5 65 q-85 -43 -191 -69.5 q-106 -26.5 -230 -37.5 l-5 14 q106 23 197.5 58 q91.5 35 164.5 82 q-83 71 -132 186 l-69 0 l-9 28 l393 0 l69 61 Z" /><glyph glyph-name="cid17454" unicode="&#x5efa;" d="M297 508 l100 -84 q-5 -8 -13 -11.5 q-8 -3.5 -25 -5.5 q-11 -76 -31.5 -148.5 q-20.5 -72.5 -58.5 -137.5 q82 -44 196 -58 q114 -14 269 -14 q26 0 69.5 0 q43.5 0 89.5 0.5 q46 0.5 77 0.5 l0 -12 q-34 -7 -51.5 -35 q-17.5 -28 -19.5 -63 l-174 0 q-116 0 -208 10 q-92 10 -164 36.5 q-72 26.5 -127 74.5 q-35 -43 -83 -81.5 q-48 -38.5 -113 -67.5 l-7 12 q53 39 90.5 87 q37.5 48 62.5 103 q-68 90 -110 249 l11 6 q24 -66 54.5 -114.5 q30.5 -48.5 68.5 -83.5 q21 59 32.5 122 q11.5 63 17.5 129 l-60 0 l-35 -36 l-98 63 q15 14 36 21 q18 34 39 78.5 q21 44.5 41 89.5 q20 45 33 80 l-166 0 l-9 29 l174 0 l50 50 l100 -90 q-6 -7 -17.5 -10.5 q-11.5 -3.5 -25.5 -5.5 q-13 -31 -33 -74 q-20 -43 -41.5 -87 q-21.5 -44 -39.5 -79 l44 0 l55 57 ZM739 478 l0 102 l-89 0 l0 -102 l89 0 ZM650 710 l0 -101 l89 0 l0 101 l-89 0 ZM854 609 l48 77 q0 0 15 -15 q15 -15 34.5 -36 q19.5 -21 33.5 -39 q-4 -16 -26 -16 l-112 0 l0 -138 q0 -4 -15.5 -10.5 q-15.5 -6.5 -36.5 -11.5 q-21 -5 -39 -5 l-17 0 l0 34 l-89 0 l0 -102 l95 0 l56 74 q0 0 18 -14 q18 -14 42 -34 q24 -20 43 -38 q-4 -16 -27 -16 l-227 0 l0 -104 l120 0 l63 79 q0 0 20 -15 q20 -15 47 -36 q27 -21 49 -41 q-4 -16 -28 -16 l-271 0 l0 -93 q0 -4 -13.5 -11.5 q-13.5 -7.5 -34 -13 q-20.5 -5.5 -42.5 -5.5 l-22 0 l0 123 l-204 0 l-8 29 l212 0 l0 104 l-158 0 l-8 28 l166 0 l0 102 l-146 0 l-9 29 l155 0 l0 102 l-220 0 l-8 29 l228 0 l0 101 l-156 0 l-9 28 l165 0 l0 110 l149 -14 q-1 -11 -9 -18.5 q-8 -7.5 -28 -10.5 l0 -67 l79 0 l50 54 l107 -80 q-4 -5 -14.5 -11 q-10.5 -6 -24.5 -9 l0 -83 l7 0 Z" /><glyph glyph-name="cid17463" unicode="&#x5f00;" d="M414 417 l174 0 l0 310 l-174 0 l0 -295 l0 -15 ZM806 417 l60 92 q0 0 11.5 -10.5 q11.5 -10.5 28.5 -26.5 q17 -16 35.5 -34.5 q18.5 -18.5 32.5 -33.5 q-4 -16 -27 -16 l-234 0 l0 -436 q0 -6 -27 -20.5 q-27 -14.5 -75 -14.5 l-23 0 l0 471 l-175 0 q-2 -71 -17 -139.5 q-15 -68.5 -54 -130.5 q-39 -62 -111.5 -114 q-72.5 -52 -190.5 -91 l-8 9 q104 63 158.5 136 q54.5 73 75.5 155.5 q21 82.5 23 174.5 l-246 0 l-8 29 l255 0 l0 13 l0 297 l-205 0 l-9 29 l684 0 l60 78 q0 0 18.5 -15 q18.5 -15 44.5 -36 q26 -21 46 -40 q-4 -16 -28 -16 l-188 0 l0 -310 l93 0 Z" /><glyph glyph-name="cid17500" unicode="&#x5f15;" d="M417 341 l61 59 l106 -89 q-12 -14 -42 -18 q-13 -139 -39.5 -229 q-26.5 -90 -69.5 -122 q-26 -19 -59.5 -28 q-33.5 -9 -83.5 -9 q0 25 -5 45 q-5 20 -20 33 q-16 14 -48.5 25 q-32.5 11 -70.5 18 l0 14 q29 -2 64 -5 q35 -3 64.5 -4.5 q29.5 -1.5 41.5 -1.5 q26 0 38 10 q23 17 42 91 q19 74 29 183 l-230 0 l-40 -49 l-104 62 q14 13 35 23 q7 36 13 82 q6 46 11 91.5 q5 45.5 7 76.5 l129 -48 l166 0 l0 193 l-342 0 l-9 29 l341 0 l53 56 l109 -82 q-4 -5 -13.5 -10.5 q-9.5 -5.5 -23.5 -8.5 l0 -226 q0 -3 -16.5 -9.5 q-16.5 -6.5 -38.5 -12 q-22 -5.5 -41 -5.5 l-19 0 l0 48 l-192 0 q-4 -40 -12 -90.5 q-8 -50.5 -15 -91.5 l224 0 ZM742 839 l158 -15 q-2 -10 -9.5 -18 q-7.5 -8 -27.5 -11 l0 -840 q0 -7 -15 -17 q-15 -10 -37.5 -18 q-22.5 -8 -45.5 -8 l-23 0 l0 927 Z" /><glyph glyph-name="cid17746" unicode="&#x5f97;" d="M220 850 l138 -76 q-4 -7 -11.5 -10.5 q-7.5 -3.5 -25.5 -1.5 q-33 -33 -80.5 -70.5 q-47.5 -37.5 -101 -72.5 q-53.5 -35 -108.5 -62 l-9 10 q38 40 76 91 q38 51 70.5 102 q32.5 51 51.5 90 ZM233 650 l143 -75 q-4 -7 -12 -11 q-8 -4 -26 -2 q-16 -23 -36.5 -48 q-20.5 -25 -43.5 -51 l42 -16 q-6 -15 -31 -20 l0 -481 q0 -4 -13.5 -13 q-13.5 -9 -34.5 -16 q-21 -7 -45 -7 l-21 0 l0 450 q-61 -53 -128 -95 l-9 10 q46 53 88 120.5 q42 67.5 75 134.5 q33 67 52 120 ZM415 206 l8 6 q66 -6 104 -24 q38 -18 54 -40.5 q16 -22.5 14.5 -44.5 q-1.5 -22 -16 -37 q-14.5 -15 -37 -17.5 q-22.5 -2.5 -48.5 14.5 q-8 38 -32 77 q-24 39 -47 66 ZM522 517 l221 0 l0 106 l-221 0 l0 -106 ZM743 757 l-221 0 l0 -106 l221 0 l0 106 ZM822 256 l56 77 q0 0 17.5 -14.5 q17.5 -14.5 41 -35 q23.5 -20.5 41.5 -39.5 q-4 -16 -27 -16 l-148 0 l0 -186 q0 -38 -10 -66 q-10 -28 -41.5 -45.5 q-31.5 -17.5 -96.5 -22.5 q-1 26 -5 45 q-4 19 -12 31 q-10 12 -27 21 q-17 9 -52 15 l0 12 q0 0 13 -1 q13 -1 32 -1.5 q19 -0.5 36 -1.5 q17 -1 24 -1 q12 0 16 4.5 q4 4.5 4 12.5 l0 184 l-359 0 l-8 28 l367 0 l0 110 l-312 0 l-8 28 l406 0 l51 68 q-11 -3 -26 -5 q-15 -2 -32 -2 l-20 0 l0 34 l-221 0 l0 -25 q0 -6 -24 -16.5 q-24 -10.5 -67 -10.5 l-20 0 l0 395 l122 -47 l206 0 l54 62 l104 -80 q-4 -6 -12 -10.5 q-8 -4.5 -25 -7.5 l0 -270 q0 -3 -20 -11 q10 -8 28 -22.5 q18 -14.5 37.5 -31.5 q19.5 -17 35.5 -32 q-4 -16 -28 -16 l-110 0 l0 -110 l19 0 Z" /><glyph glyph-name="cid17830" unicode="&#x2f3c;&#x5fc3;" d="M153 547 l13 1 q38 -91 44 -163 q6 -72 -7.5 -125 q-13.5 -53 -37.5 -87 q-24 -37 -60.5 -42 q-36.5 -5 -59.5 18 q-17 22 -13.5 47 q3.5 25 22.5 46 q26 24 49 70 q23 46 37 107 q14 61 13 128 ZM750 526 q91 -55 141 -111.5 q50 -56.5 68.5 -108.5 q18.5 -52 14 -92.5 q-4.5 -40.5 -24 -63.5 q-19.5 -23 -45.5 -22.5 q-26 0.5 -50 31.5 q-3 49 -14.5 112 q-11.5 63 -35 128 q-23.5 65 -63.5 119 l9 8 ZM280 668 l153 -15 q-1 -10 -8.5 -17.5 q-7.5 -7.5 -26.5 -9.5 l0 -518 q0 -19 11.5 -26 q11.5 -7 45.5 -7 l122 0 q34 0 60.5 0.5 q26.5 0.5 39.5 1.5 q24 3 34 18 q10 16 24 57.5 q14 41.5 30 98.5 l11 0 l4 -163 q27 -10 36 -22 q9 -12 9 -29 q0 -28 -21 -46 q-21 -18 -77 -26.5 q-56 -8.5 -161 -8.5 l-128 0 q-59 0 -94 9.5 q-35 9.5 -49.5 34.5 q-14.5 25 -14.5 73 l0 595 ZM436 835 q87 -29 139.5 -67 q52.5 -38 77 -77.5 q24.5 -39.5 26 -74 q1.5 -34.5 -13.5 -56.5 q-15 -22 -40.5 -25 q-25.5 -3 -56.5 20 q-9 47 -31 96 q-22 49 -51 95.5 q-29 46.5 -59 82.5 l9 6 Z" /><glyph glyph-name="cid17834" unicode="&#x5fc5;" d="M413 823 l9 6 q72 -25 113 -58.5 q41 -33.5 57 -68 q16 -34.5 12.5 -63.5 q-3.5 -29 -20.5 -47 q-17 -18 -42 -18.5 q-25 -0.5 -52 23.5 q-1 59 -24.5 119.5 q-23.5 60.5 -52.5 106.5 ZM172 517 l13 1 q34 -77 40 -139 q6 -62 -7 -107 q-13 -45 -36 -72 q-16 -19 -38 -26 q-22 -7 -43 -0.5 q-21 6.5 -33 25.5 q-15 25 -7 49.5 q8 24.5 30 42.5 q21 18 40.5 53 q19.5 35 31.5 80 q12 45 9 93 ZM772 238 l3 -150 q27 -10 37 -22 q10 -12 10 -29 q0 -27 -21.5 -44.5 q-21.5 -17.5 -77 -25.5 q-55.5 -8 -158.5 -8 l-125 0 q-56 0 -90 8.5 q-34 8.5 -49 31 q-15 22.5 -17 64.5 q-106 -66 -237 -114 l-9 12 q68 36 129.5 79 q61.5 43 116.5 91 l0 530 l153 -15 q-1 -10 -8.5 -17.5 q-7.5 -7.5 -25.5 -9.5 l0 -369 q110 125 183 264 q73 139 113 272 l158 -55 q-4 -10 -13.5 -14.5 q-9.5 -4.5 -29.5 -2.5 q-39 -100 -96 -200.5 q-57 -100.5 -134.5 -194 q-77.5 -93.5 -180.5 -174.5 l0 -38 q0 -18 11 -25 q11 -7 43 -7 l119 0 q33 0 59 0 q26 0 40 1 q23 3 33 17 q10 15 23.5 54 q13.5 39 29.5 91 l11 0 ZM752 492 l10 6 q79 -34 124 -75.5 q45 -41.5 62.5 -83 q17.5 -41.5 13.5 -75.5 q-4 -34 -22.5 -54.5 q-18.5 -20.5 -46 -20.5 q-27.5 0 -56.5 28 q0 71 -25 144.5 q-25 73.5 -60 130.5 Z" /><glyph glyph-name="cid17981" unicode="&#x601d;" d="M445 745 l-162 0 l0 -156 l162 0 l0 156 ZM719 745 l-161 0 l0 -156 l161 0 l0 156 ZM558 397 l161 0 l0 164 l-161 0 l0 -164 ZM283 397 l162 0 l0 164 l-162 0 l0 -164 ZM283 368 l0 -33 q0 -6 -15 -15 q-15 -9 -38 -16.5 q-23 -7.5 -48 -7.5 l-17 0 l0 528 l126 -50 l418 0 l55 60 l114 -87 q-4 -6 -14.5 -12.5 q-10.5 -6.5 -26.5 -9.5 l0 -381 q0 -3 -16.5 -10.5 q-16.5 -7.5 -39 -13.5 q-22.5 -6 -42.5 -6 l-20 0 l0 54 l-436 0 ZM434 328 l8 6 q72 -15 113 -41 q41 -26 57 -55 q16 -29 13 -55 q-3 -26 -20 -42.5 q-17 -16.5 -41.5 -18 q-24.5 -1.5 -51.5 20.5 q-2 49 -25.5 99.5 q-23.5 50.5 -52.5 85.5 ZM154 267 l12 1 q31 -68 32 -122 q1 -54 -16.5 -90.5 q-17.5 -36.5 -45.5 -52.5 q-28 -18 -59.5 -9.5 q-31.5 8.5 -42.5 39.5 q-10 31 5 53.5 q15 22.5 40 35.5 q19 11 37 32.5 q18 21.5 29 50.5 q11 29 9 62 ZM746 180 l3 -122 q27 -9 35.5 -20 q8.5 -11 8.5 -27 q0 -25 -20.5 -40 q-20.5 -15 -74 -21.5 q-53.5 -6.5 -154.5 -6.5 l-130 0 q-57 0 -88 8 q-31 8 -42.5 29.5 q-11.5 21.5 -11.5 61.5 l0 242 l149 -12 q-3 -20 -31 -26 l0 -181 q0 -11 7.5 -15 q7.5 -4 35.5 -4 l124 0 q32 0 59.5 0 q27.5 0 39.5 1 q13 1 19 4 q6 3 12 11 q9 13 21 43 q12 30 27 75 l11 0 ZM739 267 l9 7 q82 -22 129.5 -55 q47.5 -33 68 -69 q20.5 -36 19 -67.5 q-1.5 -31.5 -18.5 -52 q-17 -20.5 -43.5 -22.5 q-26.5 -2 -56.5 23 q-4 62 -35 126 q-31 64 -72 110 Z" /><glyph glyph-name="cid18927" unicode="&#x6210;" d="M959 215 l-23 -169 q27 -44 32 -68.5 q5 -24.5 -8 -36.5 q-22 -22 -54.5 -19 q-32.5 3 -65 20.5 q-32.5 17.5 -56.5 38.5 q-34 29 -63 62.5 q-29 33.5 -53 70.5 q-60 -60 -136.5 -109.5 q-76.5 -49.5 -173.5 -84.5 l-7 12 q87 51 155 117.5 q68 66.5 118 142.5 q-44 92 -67.5 199 q-23.5 107 -32.5 225 l-281 0 l0 -160 l118 0 l56 56 l101 -84 q-11 -13 -39 -17 q-3 -107 -9.5 -172.5 q-6.5 -65.5 -19 -100.5 q-12.5 -35 -34.5 -53 q-20 -16 -46.5 -24 q-26.5 -8 -61.5 -8 q0 24 -2.5 43 q-2.5 19 -11.5 31 q-17 20 -62 32 l0 13 q17 -1 42.5 -2.5 q25.5 -1.5 38.5 -1.5 q19 0 27 8 q14 12 20.5 71.5 q6.5 59.5 9.5 180.5 l-127 0 q0 -60 -5.5 -129 q-5.5 -69 -26 -139.5 q-20.5 -70.5 -63.5 -135.5 q-43 -65 -118 -118 l-9 9 q48 76 70.5 163 q22.5 87 28.5 177 q6 90 6 174 l0 263 l135 -48 l260 0 q-6 101 -6 205 l152 -15 q-1 -10 -8.5 -18 q-7.5 -8 -27.5 -11 q-2 -81 3 -161 l150 0 l36 45 q-20 -2 -39 8 q-12 33 -42 66.5 q-30 33.5 -59 52.5 l7 8 q60 4 98 -6 q38 -10 57 -28 q19 -18 23 -37.5 q4 -19.5 -4 -35.5 q11 -8 29.5 -23 q18.5 -15 39 -31.5 q20.5 -16.5 36.5 -31.5 q-3 -15 -28 -15 l-303 0 q6 -80 20 -156.5 q14 -76.5 39 -144.5 q26 54 44.5 109.5 q18.5 55.5 31.5 109.5 l156 -52 q-3 -9 -11.5 -14.5 q-8.5 -5.5 -28.5 -4.5 q-24 -65 -57.5 -130.5 q-33.5 -65.5 -80.5 -127.5 q42 -66 105 -114 q11 -10 18 -9.5 q7 0.5 15 13.5 q12 19 30.5 54.5 q18.5 35.5 32.5 67.5 l10 -2 Z" /><glyph glyph-name="cid19007" unicode="&#x6240;" d="M205 326 l139 0 l0 233 l-136 0 l0 -111 q0 -28 -0.5 -59 q-0.5 -31 -2.5 -63 ZM362 236 l-18 0 l0 62 l-141 0 q-5 -68 -21.5 -137.5 q-16.5 -69.5 -51 -134 q-34.5 -64.5 -95.5 -117.5 l-12 10 q36 79 51.5 168.5 q15.5 89.5 19 183 q3.5 93.5 3.5 181.5 l0 318 l97 -31 q53 27 104 59 q51 32 82 56 l118 -101 q-19 -15 -62 -1 q-43 -12 -104.5 -24 q-61.5 -12 -123.5 -21 l0 -120 l126 0 l52 57 l109 -83 q-5 -6 -15.5 -12 q-10.5 -6 -25.5 -9 l0 -278 q0 -3 -16 -9 q-16 -6 -37 -11.5 q-21 -5.5 -39 -5.5 ZM814 511 l59 78 q0 0 18.5 -15 q18.5 -15 43.5 -36 q25 -21 44 -40 q-4 -16 -27 -16 l-91 0 l0 -530 q0 -5 -25.5 -18.5 q-25.5 -13.5 -71.5 -13.5 l-21 0 l0 562 l-106 0 q0 -71 -8.5 -148.5 q-8.5 -77.5 -36 -153.5 q-27.5 -76 -83 -145.5 q-55.5 -69.5 -149.5 -123.5 l-11 12 q77 83 114 177 q37 94 48.5 193.5 q11.5 99.5 11.5 197.5 l0 291 l116 -37 q58 26 114 57 q56 31 91 55 l124 -112 q-18 -17 -66 0 q-50 -10 -121 -21 q-71 -11 -144 -18 l0 -195 l177 0 Z" /><glyph glyph-name="cid19044" unicode="&#x6253;" d="M473 472 l4 -11 q-33 -20 -75 -45.5 q-42 -25.5 -95 -55.5 l0 -301 q0 -42 -10 -73 q-10 -31 -42 -49.5 q-32 -18.5 -99 -25.5 q-2 32 -7.5 54 q-5.5 22 -16.5 37 q-11 16 -31 26 q-20 10 -58 17 l0 14 q0 0 16.5 -1 q16.5 -1 39 -2.5 q22.5 -1.5 43 -2.5 q20.5 -1 29.5 -1 q13 0 17.5 4.5 q4.5 4.5 4.5 14.5 l0 226 q-24 -13 -49.5 -26 q-25.5 -13 -52.5 -27 q-7 -21 -26 -28 l-47 137 q26 5 71.5 16 q45.5 11 103.5 26 l0 190 l-151 0 l-8 29 l159 0 l0 236 l151 -14 q-1 -11 -9.5 -18.5 q-8.5 -7.5 -27.5 -10.5 l0 -193 l24 0 l52 78 q0 0 16.5 -15 q16.5 -15 38.5 -36 q22 -21 39 -40 q-4 -16 -27 -16 l-143 0 l0 -160 q41 11 82.5 23 q41.5 12 83.5 24 ZM799 727 l65 88 q0 0 12 -10 q12 -10 30 -25.5 q18 -15.5 38 -33 q20 -17.5 36 -32.5 q-4 -16 -28 -16 l-161 0 l0 -627 q0 -40 -12 -72.5 q-12 -32.5 -49.5 -52.5 q-37.5 -20 -113.5 -26 q-1 30 -9.5 52.5 q-8.5 22.5 -25.5 35.5 q-17 14 -43.5 24.5 q-26.5 10.5 -79.5 18.5 l0 13 q0 0 16 -1 q16 -1 40.5 -2.5 q24.5 -1.5 51 -3 q26.5 -1.5 48.5 -2.5 q22 -1 31 -1 q25 0 25 22 l0 622 l-279 0 l-8 29 l416 0 Z" /><glyph glyph-name="cid19115" unicode="&#x6280;" d="M390 476 l3 -10 q-24 -19 -56 -43 q-32 -24 -71 -52 l0 -326 q0 -39 -9 -67 q-9 -28 -38.5 -44.5 q-29.5 -16.5 -90.5 -22.5 q-1 26 -4.5 46.5 q-3.5 20.5 -13.5 33.5 q-10 13 -26 22 q-16 9 -47 14 l0 14 q0 0 12.5 -1 q12.5 -1 30 -1.5 q17.5 -0.5 33.5 -1.5 q16 -1 23 -1 q11 0 15 3.5 q4 3.5 4 13.5 l0 241 q-14 -9 -29 -19 q-15 -10 -31 -20 q-5 -22 -25 -29 l-51 135 q45 11 136 39 l0 185 l-115 0 l-8 29 l123 0 l0 237 l148 -15 q-1 -10 -9.5 -17.5 q-8.5 -7.5 -27.5 -10.5 l0 -194 l8 0 l50 78 q0 0 16 -15 q16 -15 37 -36.5 q21 -21.5 37 -39.5 q-4 -16 -27 -16 l-121 0 l0 -150 q30 10 61.5 20.5 q31.5 10.5 62.5 20.5 ZM757 428 l-271 0 q26 -70 65.5 -127 q39.5 -57 91.5 -102 q76 103 114 229 ZM822 523 l110 -101 q-5 -9 -14.5 -12 q-9.5 -3 -28.5 -5 q-28 -75 -69.5 -142 q-41.5 -67 -97.5 -124 q61 -38 129 -65.5 q68 -27.5 140 -47.5 l-2 -11 q-39 -7 -66.5 -33.5 q-27.5 -26.5 -41.5 -68.5 q-69 31 -127.5 69.5 q-58.5 38.5 -107.5 89.5 q-70 -53 -159 -93.5 q-89 -40.5 -202 -66.5 l-6 13 q97 39 175 92.5 q78 53.5 138 119.5 q-42 58 -73.5 130 q-31.5 72 -51.5 161 l-62 0 l-9 29 l191 0 l0 177 l-201 0 l-8 29 l209 0 l0 179 l154 -13 q-1 -11 -9 -18 q-8 -7 -28 -11 l0 -137 l93 0 l63 83 q0 0 19.5 -16 q19.5 -16 46.5 -38 q27 -22 48 -42 q-4 -16 -28 -16 l-242 0 l0 -177 l48 0 l70 66 Z" /><glyph glyph-name="cid19166" unicode="&#x62a4;" d="M587 850 l9 6 q67 -14 104.5 -37.5 q37.5 -23.5 52 -50 q14.5 -26.5 11 -50.5 q-3.5 -24 -19.5 -39 q-16 -15 -39.5 -15.5 q-23.5 -0.5 -48.5 19.5 q-2 44 -22.5 89.5 q-20.5 45.5 -46.5 77.5 ZM413 447 l4 -11 q-27 -18 -61 -40 q-34 -22 -77 -48 l0 -294 q0 -41 -9.5 -71 q-9.5 -30 -40 -48 q-30.5 -18 -95.5 -24 q-2 29 -7 51.5 q-5 22.5 -16 35.5 q-12 16 -31 26 q-19 10 -54 16 l0 14 q0 0 15 -1 q15 -1 36.5 -2 q21.5 -1 40.5 -2 q19 -1 27 -1 q13 0 17.5 4.5 q4.5 4.5 4.5 13.5 l0 216 q-16 -9 -34 -19 q-18 -10 -37 -20 q-7 -21 -26 -27 l-40 137 q20 4 56 12.5 q36 8.5 81 18.5 l0 201 l-125 0 l-8 28 l133 0 l0 236 l149 -14 q-1 -11 -9.5 -18.5 q-8.5 -7.5 -27.5 -10.5 l0 -193 l8 0 l51 79 q0 0 16 -15 q16 -15 37 -36.5 q21 -21.5 37 -39.5 q-3 -16 -27 -16 l-122 0 l0 -173 q33 8 66.5 17 q33.5 9 67.5 18 ZM551 406 l270 0 l0 220 l-269 0 l0 -166 q0 -13 0 -26.5 q0 -13.5 -1 -27.5 ZM864 713 l110 -85 q-11 -14 -41 -20 l0 -271 q0 -3 -16 -9.5 q-16 -6.5 -37.5 -12 q-21.5 -5.5 -39.5 -5.5 l-19 0 l0 67 l-271 0 q-4 -60 -16.5 -123 q-12.5 -63 -40.5 -125 q-28 -62 -77 -118 q-49 -56 -126 -102 l-9 9 q70 80 104 171.5 q34 91.5 44.5 186 q10.5 94.5 10.5 184.5 l0 241 l130 -46 l241 0 l53 58 Z" /><glyph glyph-name="cid19271" unicode="&#x62ec;" d="M416 455 l2 -11 q-28 -19 -64.5 -42.5 q-36.5 -23.5 -81.5 -50.5 l0 -306 q0 -39 -9 -67 q-9 -28 -38.5 -44.5 q-29.5 -16.5 -90.5 -22.5 q-1 26 -5 46.5 q-4 20.5 -13 33.5 q-10 13 -26 22 q-16 9 -47 14 l0 14 q0 0 12.5 -1 q12.5 -1 30 -1.5 q17.5 -0.5 33.5 -1.5 q16 -1 23 -1 q11 0 15 3.5 q4 3.5 4 13.5 l0 234 q-17 -10 -35 -19.5 q-18 -9.5 -37 -20.5 q-7 -20 -27 -27 l-44 138 q23 5 60 13 q37 8 83 19 l0 195 l-121 0 l-8 29 l129 0 l0 237 l148 -15 q-1 -10 -9.5 -17.5 q-8.5 -7.5 -27.5 -10.5 l0 -194 l5 0 l51 78 q0 0 15.5 -15 q15.5 -15 36.5 -36.5 q21 -21.5 37 -39.5 q-4 -16 -27 -16 l-118 0 l0 -168 q35 9 71.5 18.5 q36.5 9.5 72.5 19.5 ZM798 266 l-265 0 l0 -252 l265 0 l0 252 ZM953 497 l-231 0 l0 -202 l66 0 l54 60 l114 -88 q-5 -6 -16 -12.5 q-11 -6.5 -28 -10.5 l0 -296 q0 -3 -16 -9.5 q-16 -6.5 -38 -12 q-22 -5.5 -41 -5.5 l-19 0 l0 65 l-265 0 l0 -36 q0 -5 -14 -14 q-14 -9 -35.5 -15.5 q-21.5 -6.5 -45.5 -6.5 l-17 0 l0 428 l118 -47 l69 0 l0 202 l-233 0 l-8 29 l241 0 l0 176 q-55 -6 -110.5 -9.5 q-55.5 -3.5 -109.5 -4.5 l-3 14 q58 12 120 29.5 q62 17.5 121 37.5 q59 20 110 41.5 q51 21.5 87 40.5 l112 -104 q-19 -17 -62 1 q-33 -8 -71 -15.5 q-38 -7.5 -80 -14.5 l0 -192 l82 0 l64 86 q0 0 19.5 -16 q19.5 -16 46.5 -39 q27 -23 48 -44 q-4 -16 -29 -16 Z" /><glyph glyph-name="cid19312" unicode="&#x6307;" d="M414 585 l-131 0 l0 -162 q37 10 75 20.5 q38 10.5 76 21.5 l3 -12 q-29 -19 -67.5 -43.5 q-38.5 -24.5 -86.5 -53.5 l0 -308 q0 -39 -9 -67 q-9 -28 -38.5 -44.5 q-29.5 -16.5 -91.5 -22.5 q-1 27 -5.5 47 q-4.5 20 -14.5 33 q-10 13 -27.5 22 q-17.5 9 -49.5 14 l0 14 q0 0 13.5 -1 q13.5 -1 32.5 -1.5 q19 -0.5 36 -1.5 q17 -1 24 -1 q20 0 20 16 l0 238 q-19 -11 -39.5 -22.5 q-20.5 -11.5 -42.5 -22.5 q-7 -20 -26 -27 l-47 136 q24 5 64.5 14.5 q40.5 9.5 90.5 22.5 l0 191 l-132 0 l-8 29 l140 0 l0 236 l147 -14 q-1 -11 -9.5 -18.5 q-8.5 -7.5 -27.5 -9.5 l0 -194 l12 0 l53 83 q0 0 16.5 -16 q16.5 -16 38.5 -38.5 q22 -22.5 38 -41.5 q-3 -16 -27 -16 ZM567 21 l233 0 l0 138 l-233 0 l0 -138 ZM800 322 l-233 0 l0 -135 l233 0 l0 135 ZM790 350 l54 58 l111 -84 q-5 -6 -15 -12 q-10 -6 -26 -9 l0 -353 q0 -3 -16 -10 q-16 -7 -37.5 -13 q-21.5 -6 -40.5 -6 l-20 0 l0 71 l-233 0 l0 -45 q0 -5 -14 -14 q-14 -9 -35.5 -15.5 q-21.5 -6.5 -45.5 -6.5 l-17 0 l0 486 l118 -47 l217 0 ZM926 647 l4 -97 q26 -9 34.5 -19 q8.5 -10 8.5 -26 q0 -24 -20 -38.5 q-20 -14.5 -73.5 -21.5 q-53.5 -7 -155.5 -7 l-133 0 q-56 0 -86.5 8 q-30.5 8 -42 29 q-11.5 21 -11.5 60 l0 310 l140 -12 q-3 -22 -32 -26 l0 -148 q50 24 99 51.5 q49 27.5 90.5 55.5 q41.5 28 68.5 52 l119 -96 q-8 -8 -23 -9 q-15 -1 -39 6 q-58 -24 -142 -48.5 q-84 -24.5 -173 -40.5 l0 -71 q0 -12 8.5 -16.5 q8.5 -4.5 39.5 -4.5 l128 0 q35 0 64.5 0.5 q29.5 0.5 42.5 1.5 q23 1 31 11 q8 11 19 36 q11 25 23 60 l11 0 Z" /><glyph glyph-name="cid19460" unicode="&#x6362;" d="M260 348 l0 -298 q0 -40 -9 -69 q-9 -29 -38 -46 q-29 -17 -90 -23 q-1 28 -5 49.5 q-4 21.5 -14 35.5 q-10 14 -26.5 23.5 q-16.5 9.5 -46.5 15.5 l0 14 q0 0 12.5 -1 q12.5 -1 30.5 -1.5 q18 -0.5 34.5 -1.5 q16.5 -1 23.5 -1 q11 0 15 4 q4 4 4 13 l0 212 q-12 -8 -24 -16.5 q-12 -8.5 -25 -16.5 q-5 -21 -24 -28 l-53 127 q20 5 52.5 14 q32.5 9 73.5 21 l0 211 l-112 0 l-8 29 l120 0 l0 234 l146 -14 q-1 -11 -9.5 -18.5 q-8.5 -7.5 -27.5 -9.5 l0 -186 l45 70 q0 0 14.5 -15 q14.5 -15 34 -35.5 q19.5 -20.5 34.5 -38.5 q-4 -16 -27 -16 l-101 0 l0 -178 q26 8 51 16 q25 8 51 16 l4 -12 q-21 -16 -47 -36 q-26 -20 -59 -44 ZM487 244 l66 0 q15 60 18 130.5 q3 70.5 1 152.5 l-85 0 l0 -283 ZM675 706 l-127 0 q-43 -73 -98 -131 l51 -20 l113 0 q18 33 34.5 75 q16.5 42 26.5 76 ZM769 527 l-87 0 q1 -81 -3.5 -152 q-4.5 -71 -19.5 -131 l110 0 l0 283 ZM958 216 l-283 0 q43 -76 125 -125 q82 -49 180 -66 l-1 -11 q-63 -19 -82 -104 q-97 42 -153.5 116 q-56.5 74 -87.5 190 l-5 0 q-23 -74 -69.5 -132.5 q-46.5 -58.5 -125.5 -101.5 q-79 -43 -200 -72 l-5 12 q131 58 199 129.5 q68 71.5 96 164.5 l-244 0 l-8 28 l87 0 l0 266 q-13 -10 -25.5 -19.5 q-12.5 -9.5 -25.5 -18.5 l-11 9 q33 45 65 106 q32 61 60 131.5 q28 70.5 47 142.5 l144 -52 q-7 -20 -40 -19 q-7 -14 -14 -27.5 q-7 -13.5 -15 -27.5 l106 0 l58 58 l103 -88 q-6 -7 -15.5 -9 q-9.5 -2 -24.5 -4 q-28 -31 -66 -69.5 q-38 -38.5 -78 -67.5 l110 0 l52 55 l104 -79 q-10 -14 -42 -20 l0 -255 l37 64 q0 0 13.5 -15 q13.5 -15 30.5 -35.5 q17 -20.5 29 -37.5 q-3 -16 -25 -16 Z" /><glyph glyph-name="cid19477" unicode="&#x636e;" d="M809 193 l-222 0 l0 -186 l222 0 l0 186 ZM814 743 l-320 0 l0 -153 l320 0 l0 153 ZM945 383 l-197 0 l0 -161 l51 0 l52 58 l111 -85 q-11 -14 -41 -20 l0 -232 q0 -3 -16 -9.5 q-16 -6.5 -37.5 -12 q-21.5 -5.5 -39.5 -5.5 l-19 0 l0 62 l-222 0 l0 -33 q0 -5 -14 -13 q-14 -8 -35.5 -14.5 q-21.5 -6.5 -44.5 -6.5 l-16 0 l0 356 l115 -45 l45 0 l0 161 l-146 0 q-5 -79 -24 -161 q-19 -82 -62 -158.5 q-43 -76.5 -121 -139.5 l-12 7 q52 86 75.5 183.5 q23.5 97.5 30 198.5 q6.5 101 6.5 197 l0 81 q-7 -6 -19 -6 l-107 0 l0 -167 q29 8 59.5 16.5 q30.5 8.5 60.5 17.5 l3 -11 q-24 -17 -54.5 -38 q-30.5 -21 -68.5 -46 l0 -312 q0 -40 -9 -68 q-9 -28 -38 -44.5 q-29 -16.5 -90 -22.5 q-1 27 -5 47 q-4 20 -13 33 q-10 14 -26 23 q-16 9 -47 14 l0 14 q0 0 12.5 -1 q12.5 -1 29.5 -1.5 q17 -0.5 33 -1.5 q16 -1 22 -1 q20 0 20 17 l0 234 q-13 -9 -27.5 -17.5 q-14.5 -8.5 -29.5 -17.5 q-5 -20 -25 -27 l-48 133 q20 4 53.5 12.5 q33.5 8.5 76.5 18.5 l0 196 l-107 0 l-8 28 l115 0 l0 238 l148 -15 q-1 -10 -9.5 -17.5 q-8.5 -7.5 -27.5 -10.5 l0 -195 l2 0 l49 83 q0 0 13 -14 q13 -14 30.5 -34.5 q17.5 -20.5 31.5 -38.5 l0 209 l128 -47 l292 0 l51 55 l105 -80 q-4 -5 -12.5 -10.5 q-8.5 -5.5 -22.5 -7.5 l0 -160 q0 -4 -15.5 -11.5 q-15.5 -7.5 -36.5 -13.5 q-21 -6 -40 -6 l-19 0 l0 24 l-320 0 l0 -50 q0 -24 0 -48.5 q0 -24.5 -2 -50.5 l145 0 l0 140 l139 -12 q-1 -9 -7 -14.5 q-6 -5.5 -21 -7.5 l0 -106 l59 0 l59 81 q0 0 18.5 -15.5 q18.5 -15.5 43.5 -37.5 q25 -22 45 -41 q-3 -16 -28 -16 Z" /><glyph glyph-name="cid19543" unicode="&#x6392;" d="M365 478 l4 -10 q-22 -18 -50 -41 q-28 -23 -63 -49 l0 -324 q0 -40 -9 -69.5 q-9 -29.5 -39 -47.5 q-30 -18 -93 -24 q-2 29 -6.5 51 q-4.5 22 -14.5 35 q-11 15 -29 24.5 q-18 9.5 -51 15.5 l0 15 q0 0 14 -1 q14 -1 33.5 -2 q19.5 -1 37.5 -2 q18 -1 26 -1 q12 0 16 4.5 q4 4.5 4 12.5 l0 233 q-13 -9 -26 -18.5 q-13 -9.5 -27 -18.5 q-2 -10 -8.5 -18.5 q-6.5 -8.5 -15.5 -11.5 l-49 129 q19 5 52 16 q33 11 74 24 l0 185 l-112 0 l-8 29 l120 0 l0 235 l148 -14 q-1 -11 -9.5 -18.5 q-8.5 -7.5 -27.5 -9.5 l0 -191 l45 69 q0 0 14.5 -14 q14.5 -14 33.5 -33.5 q19 -19.5 33 -36.5 q-4 -16 -25 -16 l-101 0 l0 -147 q27 10 54.5 20 q27.5 10 54.5 20 ZM485 644 l0 205 l146 -15 q-1 -10 -8.5 -17.5 q-7.5 -7.5 -27.5 -10.5 l0 -855 q0 -6 -13.5 -15 q-13.5 -9 -34.5 -16.5 q-21 -7.5 -42 -7.5 l-20 0 l0 273 l-152 0 l-9 29 l161 0 l0 195 l-126 0 l-9 29 l135 0 l0 177 l-114 0 l-9 29 l123 0 ZM826 214 l54 78 q0 0 16 -15 q16 -15 38.5 -36 q22.5 -21 39.5 -39 q-4 -16 -27 -16 l-165 0 l0 -237 q0 -6 -13.5 -15 q-13.5 -9 -34 -16.5 q-20.5 -7.5 -41.5 -7.5 l-21 0 l0 936 l147 -15 q-2 -10 -9.5 -17.5 q-7.5 -7.5 -27.5 -10.5 l0 -159 l38 0 l53 78 q0 0 16 -15 q16 -15 38.5 -36 q22.5 -21 39.5 -40 q-4 -16 -27 -16 l-158 0 l0 -176 l33 0 l50 72 q0 0 15 -14 q15 -14 35.5 -33.5 q20.5 -19.5 36.5 -36.5 q-4 -16 -26 -16 l-144 0 l0 -197 l44 0 Z" /><glyph glyph-name="cid19577" unicode="&#x63a5;" d="M383 678 l-7 29 l254 0 q-8 2 -16.5 6 q-8.5 4 -16.5 10 q-1 32 -16 65.5 q-15 33.5 -34 55.5 l7 5 q72 -4 107 -24 q35 -20 42 -45.5 q7 -25.5 -6.5 -46 q-13.5 -20.5 -37.5 -26.5 l124 0 l57 75 q0 0 17.5 -14.5 q17.5 -14.5 42 -34.5 q24.5 -20 44.5 -39 q-4 -16 -28 -16 l-533 0 ZM455 663 l10 4 q69 -23 100.5 -53.5 q31.5 -30.5 36 -59.5 q4.5 -29 -10 -49 q-14.5 -20 -39.5 -22.5 q-25 -2.5 -50 20.5 q-1 41 -15.5 84.5 q-14.5 43.5 -31.5 75.5 ZM372 444 l-3 11 q-22 -18 -50 -39.5 q-28 -21.5 -62 -46.5 l0 -315 q0 -41 -9 -70.5 q-9 -29.5 -38.5 -47 q-29.5 -17.5 -91.5 -23.5 q-2 29 -6.5 51 q-4.5 22 -14.5 35 q-10 15 -27 24.5 q-17 9.5 -49 15.5 l0 15 q0 0 13.5 -1 q13.5 -1 32 -2 q18.5 -1 36 -2 q17.5 -1 24.5 -1 q20 0 20 17 l0 227 q-25 -18 -54 -36 q-5 -21 -24 -30 l-50 129 q20 5 53 16 q33 11 75 25 l0 189 l-114 0 l-8 29 l122 0 l0 235 l147 -14 q-1 -11 -9.5 -18.5 q-8.5 -7.5 -27.5 -9.5 l0 -193 l5 0 l50 77 q0 0 15 -15 q15 -15 35.5 -36 q20.5 -21 35.5 -39 q-3 -16 -25 -16 l-116 0 l0 -152 q26 9 53 18.5 q27 9.5 54 18.5 l0 2 l5 0 l11 4 l0 -4 l293 0 q17 44 33 99 q16 55 24 99 l144 -37 q-5 -21 -37 -21 q-25 -31 -62.5 -69 q-37.5 -38 -75.5 -71 l92 0 l59 74 q0 0 18.5 -14 q18.5 -14 44 -34 q25.5 -20 45.5 -38 q-4 -16 -27 -16 l-559 0 ZM722 286 l-136 0 q-19 -37 -39 -76 q-20 -39 -38 -70 q38 -5 71.5 -11 q33.5 -6 62.5 -13 q56 72 79 170 ZM804 314 l61 79 q0 0 19 -15 q19 -15 44.5 -36 q25.5 -21 46.5 -40 q-4 -16 -28 -16 l-98 0 q-18 -60 -42 -108.5 q-24 -48.5 -59 -88.5 q71 -23 110 -47 q39 -24 52.5 -46.5 q13.5 -22.5 8.5 -40.5 q-5 -18 -23 -29 q-18 -11 -42 -11.5 q-24 -0.5 -47 12.5 q-25 22 -60 45.5 q-35 23.5 -79 47.5 q-62 -40 -152 -67.5 q-90 -27.5 -216 -43.5 l-6 14 q98 26 170.5 59.5 q72.5 33.5 124.5 77.5 q-44 20 -94.5 39.5 q-50.5 19.5 -106.5 36.5 q17 26 37.5 66.5 q20.5 40.5 39.5 83.5 l-143 0 l-8 28 l163 0 q17 36 29.5 68 q12.5 32 19.5 53 l146 -35 q-2 -8 -11 -14.5 q-9 -6.5 -32 -6.5 q-6 -14 -13.5 -30.5 q-7.5 -16.5 -16.5 -34.5 l205 0 Z" /><glyph glyph-name="cid19790" unicode="&#x641c;" d="M775 272 l-291 0 q30 -52 74.5 -90.5 q44.5 -38.5 99.5 -67.5 q38 35 67.5 74 q29.5 39 49.5 84 ZM702 394 l0 -94 l72 0 l64 57 l-6 0 l-17 0 l0 37 l-113 0 ZM478 423 l122 0 l0 133 q-6 -8 -21 -8 l-101 0 l0 -125 ZM600 567 l0 165 q-6 0 -18 5 q-19 -6 -47 -11.5 q-28 -5.5 -57 -10.5 l0 -139 l29 0 l34 52 q0 0 10 -9.5 q10 -9.5 24 -23.5 q14 -14 25 -28 ZM844 358 l100 -92 q-10 -12 -43 -15 q-29 -52 -68 -95.5 q-39 -43.5 -87 -80.5 q54 -19 113 -32.5 q59 -13.5 120 -21.5 l0 -11 q-68 -17 -87 -97 q-68 19 -127.5 44.5 q-59.5 25.5 -109.5 59.5 q-150 -78 -366 -105 l-5 14 q92 24 171 58 q79 34 141 79 q-43 41 -77 92.5 q-34 51.5 -57 116.5 l-95 0 l-9 28 l242 0 l0 94 l-122 0 l0 -34 q0 -6 -22.5 -18.5 q-22.5 -12.5 -61.5 -12.5 l-18 0 l0 258 q-3 -1 -6 -1.5 q-3 -0.5 -7 -0.5 l-106 0 l0 -170 q26 8 51 15.5 q25 7.5 51 15.5 l3 -11 q-21 -16 -47 -35.5 q-26 -19.5 -58 -42.5 l0 -306 q0 -40 -9 -69.5 q-9 -29.5 -37.5 -47 q-28.5 -17.5 -89.5 -23.5 q-2 29 -6.5 51 q-4.5 22 -13.5 35 q-10 15 -25.5 24.5 q-15.5 9.5 -45.5 15.5 l0 15 q0 0 12.5 -1 q12.5 -1 29.5 -2 q17 -1 33 -2 q16 -1 23 -1 q19 0 19 17 l0 218 q-13 -8 -25.5 -16.5 q-12.5 -8.5 -26.5 -17.5 q-6 -21 -26 -29 l-41 135 q19 4 49.5 12 q30.5 8 69.5 19 l0 201 l-110 0 l-8 29 l118 0 l0 237 l147 -15 q-1 -10 -9.5 -17.5 q-8.5 -7.5 -27.5 -9.5 l0 -189 l45 70 q0 0 12 -11.5 q12 -11.5 29.5 -29 q17.5 -17.5 32.5 -34.5 l0 162 l71 -31 q23 21 47 44 q24 23 40 40 l66 -76 l0 98 l139 -14 q-1 -10 -9 -17.5 q-8 -7.5 -28 -10.5 l0 -387 l113 0 l0 124 l-83 0 l-9 29 l92 0 l0 134 l-92 0 l-9 28 l91 0 l49 54 l104 -79 q-4 -6 -15 -12 q-11 -6 -27 -9 l0 -308 q0 -3 -11.5 -8.5 q-11.5 -5.5 -28 -10.5 q-16.5 -5 -32.5 -7 Z" /><glyph glyph-name="cid20131" unicode="&#x64cd;" d="M721 769 l-153 0 l0 -113 l153 0 l0 113 ZM568 627 l0 -2 q0 -6 -24 -19 q-24 -13 -66 -13 l-19 0 l0 250 l118 -45 l135 0 l49 52 l104 -77 q-9 -11 -34 -17 l0 -120 q0 -4 -15.5 -11.5 q-15.5 -7.5 -36 -13 q-20.5 -5.5 -39.5 -5.5 l-19 0 l0 21 l-153 0 ZM519 527 l-72 0 l0 -124 l72 0 l0 124 ZM354 322 l0 120 q-19 -14 -43 -32 q-24 -18 -54 -39 l0 -326 q0 -39 -8.5 -67 q-8.5 -28 -37.5 -44.5 q-29 -16.5 -89 -22.5 q-1 26 -5.5 46.5 q-4.5 20.5 -13.5 33.5 q-9 13 -24.5 22 q-15.5 9 -46.5 14 l0 14 q0 0 12 -1 q12 -1 29 -1.5 q17 -0.5 32.5 -1.5 q15.5 -1 21.5 -1 q20 0 20 17 l0 243 q-13 -8 -26 -16.5 q-13 -8.5 -27 -17.5 q-4 -9 -11 -17 q-7 -8 -16 -11 l-48 138 q20 4 53.5 11.5 q33.5 7.5 74.5 17.5 l0 195 l-107 0 l-8 29 l115 0 l0 226 l147 -15 q-1 -10 -9.5 -17.5 q-8.5 -7.5 -27.5 -10.5 l0 -183 l8 0 l50 76 q0 0 15.5 -15 q15.5 -15 36 -35.5 q20.5 -20.5 35.5 -38.5 q-3 -16 -26 -16 l-119 0 l0 -167 q23 6 47 12 q24 6 48 13 l2 -7 l0 148 l99 -39 l58 0 l44 45 l91 -68 q-9 -10 -30 -15 l0 -149 q0 -4 -13.5 -11 q-13.5 -7 -32 -13 q-18.5 -6 -34.5 -6 l-17 0 l0 36 l-72 0 l0 -26 q0 -4 -20.5 -15.5 q-20.5 -11.5 -56.5 -11.5 l-16 0 ZM841 527 l-79 0 l0 -126 l79 0 l0 126 ZM947 222 l-222 0 q46 -54 116 -92.5 q70 -38.5 140 -58.5 l-2 -11 q-65 -17 -86 -104 q-67 44 -115 111 q-48 67 -78 155 l-4 0 l0 -280 q0 -4 -14.5 -11.5 q-14.5 -7.5 -35.5 -13 q-21 -5.5 -41 -5.5 l-22 0 l0 214 q-55 -55 -127.5 -99.5 q-72.5 -44.5 -158.5 -76.5 l-8 13 q75 49 133.5 117.5 q58.5 68.5 93.5 141.5 l-183 0 l-8 29 l258 0 l0 95 l85 -7 l0 256 l100 -39 l64 0 l45 48 l97 -72 q-4 -4 -13.5 -9.5 q-9.5 -5.5 -21.5 -7.5 l0 -141 q0 -4 -14 -11 q-14 -7 -32.5 -12.5 q-18.5 -5.5 -34.5 -5.5 l-17 0 l0 29 l-79 0 l0 -13 q0 -4 -14.5 -13 q-14.5 -9 -41.5 -13 l17 -1 q-1 -7 -7 -13.5 q-6 -6.5 -20 -8.5 l0 -61 l105 0 l63 79 q0 0 19 -15 q19 -15 45 -36.5 q26 -21.5 47 -40.5 q-1 -8 -9 -12 q-8 -4 -19 -4 Z" /><glyph glyph-name="cid20134" unicode="&#x64ce;" d="M407 616 l-223 0 q-7 -8 -13 -15.5 q-6 -7.5 -14 -15.5 l31 -13 l63 0 l37 37 l78 -58 q-6 -8 -26 -13 l0 -95 q0 -3 -13 -10 q13 -1 24 -1.5 q11 -0.5 17 -0.5 q8 0 14 7 q9 11 15 53.5 q6 42.5 10 124.5 ZM184 471 l73 0 l0 72 l-73 0 l0 -72 ZM104 393 l0 141 q-16 -13 -33 -24 q-17 -11 -34 -21 l-14 10 q30 38 56.5 95.5 q26.5 57.5 40.5 112.5 l24 -7 l0 33 l-101 0 l-8 28 l109 0 l0 86 l134 -12 q-1 -10 -9.5 -17.5 q-8.5 -7.5 -28.5 -9.5 l0 -47 l89 0 l0 87 l134 -12 q-1 -10 -9.5 -17.5 q-8.5 -7.5 -28.5 -10.5 l0 -47 l23 0 l43 57 q0 0 13.5 -11 q13.5 -11 31.5 -27 q18 -16 32 -31 q-3 -16 -24 -16 l-119 0 l0 -43 q0 -4 -25.5 -12 q-25.5 -8 -53.5 -8 l-17 0 l0 63 l-89 0 l0 -35 q0 -3 -11 -7 q-11 -4 -27 -8 l42 -13 q-7 -20 -36 -19 l-4 -7 l194 0 l50 49 l92 -75 q-12 -13 -37 -16 q-5 -109 -16 -165 q-11 -56 -39 -78 q-16 -12 -37 -17 q-21 -5 -44 -5 q0 15 -3 29.5 q-3 14.5 -10 24.5 q-17 21 -56 30 l0 1 q-7 -1 -13.5 -2.5 q-6.5 -1.5 -12.5 -1.5 l-15 0 l0 25 l-73 0 l0 -26 q0 -5 -22 -14.5 q-22 -9.5 -47 -9.5 l-11 0 ZM794 119 l60 71 q0 0 18.5 -13.5 q18.5 -13.5 43.5 -33 q25 -19.5 45 -37.5 q-4 -16 -26 -16 l-372 0 l0 -51 q0 -37 -11 -64.5 q-11 -27.5 -44.5 -44 q-33.5 -16.5 -101.5 -21.5 q-3 25 -8.5 43.5 q-5.5 18.5 -19.5 30.5 q-13 11 -34.5 20 q-21.5 9 -65.5 16 l0 13 q0 0 19 -1 q19 -1 45.5 -3 q26.5 -2 50 -3 q23.5 -1 32.5 -1 q13 0 17.5 4.5 q4.5 4.5 4.5 12.5 l0 49 l-400 0 l-8 29 l408 0 l0 71 l-317 0 l-8 28 l325 0 l0 62 q-87 -4 -176 -5 q-89 -1 -174 2 l-3 17 q81 6 169 18 q88 12 172.5 27 q84.5 15 158 32 q73.5 17 125.5 34 l98 -102 q-19 -15 -62 4 q-43 -6 -91 -11 q-48 -5 -101 -9 l0 -69 l137 0 l58 66 q0 0 18 -12.5 q18 -12.5 43.5 -30.5 q25.5 -18 45.5 -35 q-3 -16 -27 -16 l-275 0 l0 -71 l231 0 ZM769 689 l-102 0 q-7 -13 -14.5 -26.5 q-7.5 -13.5 -15.5 -26.5 q15 -23 33 -44.5 q18 -21.5 40 -39.5 q21 31 35.5 65.5 q14.5 34.5 23.5 71.5 ZM939 689 l-52 0 q-35 -108 -111 -181 q82 -45 203 -66 l-2 -10 q-58 -23 -68 -100 q-64 22 -112.5 53.5 q-48.5 31.5 -84.5 71.5 q-44 -30 -99 -53.5 q-55 -23.5 -120 -41.5 l-6 15 q118 52 188 129 q-16 24 -29.5 51 q-13.5 27 -24.5 56 q-19 -28 -41.5 -52 q-22.5 -24 -48.5 -43 l-13 7 q21 41 36.5 96 q15.5 55 26 115 q10.5 60 14.5 115 l152 -26 q-2 -10 -10.5 -16.5 q-8.5 -6.5 -25.5 -8.5 q-6 -20 -14 -41 q-8 -21 -16 -41 l133 0 l54 73 q0 0 17 -14 q17 -14 40 -34 q23 -20 41 -38 q-4 -16 -27 -16 Z" /><glyph glyph-name="cid20407" unicode="&#x6559;" d="M775 596 l-93 0 q-11 -27 -23.5 -52.5 q-12.5 -25.5 -25.5 -49.5 q14 -57 32 -108 q18 -51 43 -97 q29 71 45 148 q16 77 22 159 ZM305 685 l0 -129 l4 0 q22 32 41.5 64.5 q19.5 32.5 37.5 64.5 l-83 0 ZM955 596 l-52 0 q-13 -115 -43.5 -216.5 q-30.5 -101.5 -87.5 -187.5 q42 -52 96 -94.5 q54 -42.5 121 -74.5 l-3 -10 q-81 -16 -102 -95 q-55 39 -97 89.5 q-42 50.5 -73 111.5 q-61 -66 -147 -118 q-86 -52 -203 -88 l-7 10 q113 59 189.5 132.5 q76.5 73.5 125.5 159.5 q-19 56 -33.5 118 q-14.5 62 -24.5 129 q-52 -87 -120 -149 l-13 8 q44 88 79 207 q-3 -1 -10 -1 l-162 0 q-23 -27 -48 -53 q-25 -26 -52 -51 l73 0 l53 55 l98 -85 q-6 -6 -15 -8 q-9 -2 -24 -4 q-24 -14 -52.5 -31 q-28.5 -17 -57.5 -31 l32 -3 q-4 -21 -33 -25 l0 -41 q45 6 93 12.5 q48 6.5 96 13.5 l2 -14 q-38 -15 -85.5 -32 q-47.5 -17 -105.5 -37 l0 -149 q0 -39 -9.5 -66.5 q-9.5 -27.5 -40.5 -44 q-31 -16.5 -95 -22.5 q-2 26 -7 45.5 q-5 19.5 -16 31.5 q-12 13 -30.5 22 q-18.5 9 -54.5 15 l0 14 q0 0 16 -1 q16 -1 38 -2 q22 -1 42 -2 q20 -1 27 -1 q20 0 20 16 l0 108 q-31 -10 -65.5 -21 q-34.5 -11 -71.5 -22 q-8 -19 -27 -24 l-49 121 q34 3 89 9 q55 6 124 15 l0 94 l59 -5 q12 17 23.5 35.5 q11.5 18.5 21.5 34.5 l-101 0 q-50 -43 -106.5 -81 q-56.5 -38 -120.5 -69 l-10 11 q43 30 83 65.5 q40 35.5 77 73.5 l-96 0 l-9 29 l131 0 q23 25 44 51 q21 26 40 53 l-252 0 l-8 29 l166 0 l0 129 l-118 0 l-8 28 l126 0 l0 135 l148 -12 q-1 -11 -9 -18 q-8 -7 -28 -10 l0 -95 l3 0 l47 64 q0 0 17.5 -14.5 q17.5 -14.5 37.5 -33.5 q14 28 25.5 55 q11.5 27 21.5 52 l131 -63 q-4 -8 -13 -12 q-9 -4 -28 -1 q-26 -49 -60 -101 q-34 -52 -75 -103 l31 0 l47 62 q0 0 12.5 -10 q12.5 -10 30.5 -25 q18 -15 34 -31 q19 70 33 144.5 q14 74.5 21 149.5 l161 -38 q-5 -22 -39 -23 q-10 -43 -23 -82.5 q-13 -39.5 -27 -77.5 l116 0 l62 80 q0 0 19 -15.5 q19 -15.5 45.5 -37 q26.5 -21.5 46.5 -40.5 q-4 -16 -27 -16 Z" /><glyph glyph-name="cid20442" unicode="&#x6570;" d="M383 652 l-15 8 q10 29 20.5 72 q10.5 43 20.5 86 l122 -41 q-7 -19 -37 -18 q-25 -29 -54.5 -58 q-29.5 -29 -56.5 -49 ZM68 806 l10 6 q64 -17 94 -43 q30 -26 35 -52 q5 -26 -8 -44 q-13 -18 -35.5 -21 q-22.5 -3 -46.5 18 q-1 35 -16.5 72.5 q-15.5 37.5 -32.5 63.5 ZM387 268 l-124 0 q-15 -28 -31.5 -57.5 q-16.5 -29.5 -32.5 -55.5 q39 -1 71.5 -5.5 q32.5 -4.5 59.5 -9.5 q36 57 57 128 ZM442 352 l97 -85 q-8 -11 -39 -15 q-16 -40 -36.5 -76 q-20.5 -36 -46.5 -67 q41 -22 54 -47.5 q13 -25.5 6.5 -46.5 q-6.5 -21 -26 -31.5 q-19.5 -10.5 -44.5 -1.5 q-13 14 -30.5 27 q-17.5 13 -37.5 26 q-55 -43 -129 -74 q-74 -31 -168 -49 l-6 15 q149 51 238 143 q-48 23 -99 40.5 q-51 17.5 -95 25.5 l10 14 q14 23 31 54 q17 31 33 64 l-107 0 l-9 29 l130 0 q15 32 27 59 q12 27 19 46 l20 -7 l0 108 q-40 -38 -91 -70.5 q-51 -32.5 -107 -58.5 l-10 14 q56 44 98 101 q42 57 69 118 l-149 0 l-8 29 l198 0 l0 214 l141 -14 q-1 -10 -8.5 -16.5 q-7.5 -6.5 -25.5 -9.5 l0 -174 l84 0 l50 69 q0 0 15.5 -13.5 q15.5 -13.5 37 -32.5 q21.5 -19 38.5 -36 q-3 -16 -26 -16 l-199 0 l0 -16 q75 -11 114.5 -36 q39.5 -25 50.5 -53 q11 -28 1 -50 q-10 -22 -33 -29 q-23 -7 -52 11 q-10 32 -33 67.5 q-23 35.5 -48 63.5 l0 -145 q0 -4 -13.5 -11 q-13.5 -7 -33.5 -12.5 q-20 -5.5 -41 -5.5 l-7 0 l99 -34 q-3 -7 -11.5 -13 q-8.5 -6 -31.5 -4 q-5 -10 -11 -20.5 q-6 -10.5 -12 -22.5 l106 0 l57 55 ZM777 592 l-102 0 q-12 -30 -25 -58.5 q-13 -28.5 -28 -54.5 q16 -59 38 -113.5 q22 -54.5 50 -102.5 q30 75 46 157 q16 82 21 172 ZM959 592 l-55 0 q-12 -120 -41.5 -226 q-29.5 -106 -89.5 -193 q85 -98 210 -158 l-3 -10 q-80 -16 -102 -94 q-53 37 -94 83.5 q-41 46.5 -72 102.5 q-56 -58 -133.5 -104.5 q-77.5 -46.5 -181.5 -80.5 l-7 11 q98 53 167 119 q69 66 113 143 q-23 58 -39.5 123.5 q-16.5 65.5 -28.5 137.5 q-39 -63 -87 -114 l-13 8 q27 66 49 149.5 q22 83.5 37.5 175.5 q15.5 92 21.5 182 l162 -36 q-3 -10 -12 -16.5 q-9 -6.5 -26 -7.5 q-10 -43 -22 -85 q-12 -42 -26 -81 l127 0 l62 82 q0 0 19 -15.5 q19 -15.5 45.5 -37.5 q26.5 -22 46.5 -42 q-4 -16 -27 -16 Z" /><glyph glyph-name="cid20481" unicode="&#x2f42;&#x6587;" d="M384 840 l7 6 q78 -9 124.5 -31.5 q46.5 -22.5 67 -51 q20.5 -28.5 20.5 -55.5 q0 -27 -15.5 -45.5 q-15.5 -18.5 -40.5 -22 q-25 -3.5 -55 16.5 q-10 49 -41.5 99 q-31.5 50 -66.5 84 ZM658 593 l-390 0 q34 -117 94.5 -207 q60.5 -90 142.5 -156 q62 80 99.5 171 q37.5 91 53.5 192 ZM933 593 l-130 0 q-27 -123 -79 -229 q-52 -106 -137 -191 q84 -53 182.5 -88.5 q98.5 -35.5 204.5 -58.5 l-3 -12 q-91 -12 -123 -103 q-101 33 -187 79.5 q-86 46.5 -157 110.5 q-88 -65 -203 -113 q-115 -48 -264 -77 l-5 12 q134 44 236.5 104.5 q102.5 60.5 175.5 134.5 q-69 80 -118 186.5 q-49 106.5 -76 244.5 l-201 0 l-8 28 l724 0 l71 95 q0 0 13 -10.5 q13 -10.5 32.5 -27 q19.5 -16.5 41 -35 q21.5 -18.5 38.5 -34.5 q-4 -16 -28 -16 Z" /><glyph glyph-name="cid20570" unicode="&#x2f45;&#x65b9;" d="M385 846 l7 6 q76 -9 121 -31 q45 -22 64 -49.5 q19 -27.5 18.5 -54 q-0.5 -26.5 -16 -45 q-15.5 -18.5 -40.5 -21.5 q-25 -3 -54 17 q-10 48 -39 96 q-29 48 -61 82 ZM776 640 l68 87 q0 0 12.5 -9.5 q12.5 -9.5 32 -25 q19.5 -15.5 40.5 -33 q21 -17.5 38 -32.5 q-4 -16 -28 -16 l-482 0 q-3 -44 -7 -87 q-4 -43 -10 -84 l238 0 l63 61 l107 -92 q-5 -6 -15.5 -11 q-10.5 -5 -27.5 -7 q-10 -189 -32 -295 q-22 -106 -65 -141 q-26 -22 -59.5 -32 q-33.5 -10 -80.5 -10 q1 26 -3.5 47 q-4.5 21 -17.5 32 q-14 14 -42.5 25.5 q-28.5 11.5 -63.5 18.5 l1 12 q24 -1 53 -3 q29 -2 54.5 -3.5 q25.5 -1.5 36.5 -1.5 q26 0 38 10 q23 20 39 114.5 q16 94.5 24 246.5 l-253 0 q-20 -108 -63.5 -203 q-43.5 -95 -121 -171.5 q-77.5 -76.5 -201.5 -129.5 l-7 10 q86 65 140.5 143 q54.5 78 85 166.5 q30.5 88.5 43.5 185 q13 96.5 14 199.5 l-282 0 l-8 29 l742 0 Z" /><glyph glyph-name="cid20741" unicode="&#x6613;&#xf9e0;" d="M682 755 l-362 0 l0 -120 l362 0 l0 120 ZM320 482 l362 0 l0 125 l-362 0 l0 -125 ZM828 394 l107 -90 q-11 -14 -42 -18 q-17 -135 -48.5 -221.5 q-31.5 -86.5 -78.5 -118.5 q-55 -36 -139 -35 q0 25 -4 46 q-4 21 -15 33 q-13 14 -38 24.5 q-25 10.5 -58 17.5 l0 13 q22 -2 49.5 -4 q27.5 -2 51.5 -3.5 q24 -1.5 36 -1.5 q24 0 40 10 q25 17 47.5 87.5 q22.5 70.5 35.5 173.5 l-62 0 q-58 -140 -175 -240 q-117 -100 -302 -159 l-8 13 q131 66 218.5 166 q87.5 100 130.5 220 l-48 0 q-64 -103 -174.5 -181 q-110.5 -78 -250.5 -129 l-8 13 q95 56 172 135 q77 79 125 162 l-55 0 q-58 -47 -131.5 -88.5 q-73.5 -41.5 -156.5 -67.5 l-7 8 q72 47 134.5 113 q62.5 66 103.5 129 q-13 -4 -27.5 -7 q-14.5 -3 -29.5 -3 l-17 0 l0 441 l123 -49 l345 0 l55 60 l114 -87 q-4 -6 -14.5 -12 q-10.5 -6 -25.5 -9 l0 -303 q0 -3 -17 -10 q-17 -7 -40 -13 q-23 -6 -42 -6 l-20 0 l0 51 l-326 0 l121 -39 q-3 -9 -14 -14.5 q-11 -5.5 -35 -5.5 q-25 -30 -60 -60 l397 0 l63 59 Z" /><glyph glyph-name="cid20785" unicode="&#x662f;" d="M682 752 l-358 0 l0 -106 l358 0 l0 106 ZM324 510 l358 0 l0 108 l-358 0 l0 -108 ZM324 481 l0 -29 q0 -6 -16 -15 q-16 -9 -40 -16.5 q-24 -7.5 -50 -7.5 l-18 0 l0 419 l131 -52 l341 0 l56 62 l119 -89 q-4 -6 -14.5 -12.5 q-10.5 -6.5 -25.5 -9.5 l0 -273 q0 -3 -18 -9.5 q-18 -6.5 -42 -12.5 q-24 -6 -44 -6 l-21 0 l0 51 l-358 0 ZM571 191 l0 -158 q14 -1 29 -1 q15 0 31 0 q29 0 73.5 0 q44.5 0 95 0 q50.5 0 96 0.5 q45.5 0.5 75.5 1.5 l0 -12 q-28 -6 -41.5 -32.5 q-13.5 -26.5 -13.5 -59.5 l-287 0 q-89 0 -153 16.5 q-64 16.5 -107.5 59 q-43.5 42.5 -72.5 121.5 q-38 -64 -102.5 -120 q-64.5 -56 -164.5 -95 l-8 10 q71 53 113.5 119 q42.5 66 64 137 q21.5 71 27.5 135 l163 -31 q-3 -10 -11 -16.5 q-8 -6.5 -27 -6.5 q-7 -28 -17.5 -55 q-10.5 -27 -24.5 -54 q26 -42 59.5 -66 q33.5 -24 77.5 -36 l0 310 l-404 0 l-8 28 l757 0 l64 85 q0 0 19.5 -16 q19.5 -16 46 -38.5 q26.5 -22.5 47.5 -42.5 q-4 -16 -28 -16 l-369 0 l0 -138 l121 0 l67 90 q0 0 12.5 -10 q12.5 -10 31.5 -26 q19 -16 40 -33.5 q21 -17.5 38 -33.5 q-4 -16 -28 -16 l-282 0 Z" /><glyph glyph-name="cid20876" unicode="&#x666e;" d="M327 9 l343 0 l0 123 l-343 0 l0 -123 ZM670 276 l-343 0 l0 -115 l343 0 l0 115 ZM660 304 l54 60 l114 -86 q-4 -6 -14 -12.5 q-10 -6.5 -26 -9.5 l0 -311 q0 -3 -17 -10 q-17 -7 -39.5 -12.5 q-22.5 -5.5 -41.5 -5.5 l-20 0 l0 64 l-343 0 l0 -33 q0 -5 -14.5 -13.5 q-14.5 -8.5 -37 -15.5 q-22.5 -7 -46.5 -7 l-17 0 l0 441 l123 -49 l325 0 ZM450 661 l0 -248 l92 0 l0 248 l-92 0 ZM794 413 l61 78 q0 0 19 -15 q19 -15 45 -35.5 q26 -20.5 47 -39.5 q-4 -16 -28 -16 l-894 0 l-9 28 l307 0 l0 248 l-249 0 l-8 29 l263 0 q-4 2 -7 4 q-3 2 -7 4 q-6 38 -28 77.5 q-22 39.5 -45 65.5 l8 6 q71 -7 108.5 -28 q37.5 -21 49.5 -47 q12 -26 5 -48.5 q-7 -22.5 -27 -33.5 l149 0 q13 35 27.5 80.5 q14.5 45.5 23.5 81.5 l148 -42 q-3 -9 -12 -14.5 q-9 -5.5 -26 -4.5 q-25 -22 -59 -50 q-34 -28 -68 -51 l174 0 l60 74 q0 0 18.5 -14 q18.5 -14 44 -34.5 q25.5 -20.5 46.5 -38.5 q-4 -16 -28 -16 l-251 0 l0 -248 l142 0 ZM150 628 l9 6 q62 -16 96 -40.5 q34 -24.5 46 -50.5 q12 -26 8 -48.5 q-4 -22.5 -20 -36.5 q-16 -14 -38 -13.5 q-22 0.5 -45 20.5 q-1 43 -18 87.5 q-17 44.5 -38 75.5 ZM685 442 l-13 9 q16 33 36 85 q20 52 37 103 l136 -60 q-4 -8 -13 -13 q-9 -5 -26 -3 q-37 -34 -78.5 -66 q-41.5 -32 -78.5 -55 Z" /><glyph glyph-name="cid20893" unicode="&#x667a;" d="M522 560 l-178 0 q-3 -13 -7 -25.5 q-4 -12.5 -9 -23.5 q74 -5 114.5 -26.5 q40.5 -21.5 55 -48.5 q14.5 -27 8 -50 q-6.5 -23 -27.5 -33 q-21 -10 -51 4 q-16 32 -47 67 q-31 35 -64 60 q-29 -57 -91.5 -102.5 q-62.5 -45.5 -176.5 -80.5 l-10 14 q69 34 109.5 72 q40.5 38 61 81 q20.5 43 28.5 92 l-189 0 l-8 29 l201 0 q3 27 4 55.5 q1 28.5 2 58.5 l-39 0 q-50 -66 -115 -105 l-13 9 q26 45 46.5 109.5 q20.5 64.5 30.5 134.5 l141 -41 q-3 -9 -12 -15 q-9 -6 -26 -6 q-14 -30 -33 -58 l148 0 l55 75 q0 0 18 -14 q18 -14 42.5 -34.5 q24.5 -20.5 43.5 -38.5 q-4 -16 -28 -16 l-146 0 q-1 -31 -3.5 -59.5 q-2.5 -28.5 -7.5 -54.5 l40 0 l57 73 q0 0 17.5 -14 q17.5 -14 41.5 -34 q24 -20 43 -38 q-4 -16 -26 -16 ZM333 7 l353 0 l0 127 l-353 0 l0 -127 ZM686 282 l-353 0 l0 -119 l353 0 l0 119 ZM676 311 l54 59 l113 -86 q-4 -5 -14 -11.5 q-10 -6.5 -25 -9.5 l0 -317 q0 -4 -17 -11 q-17 -7 -39.5 -12.5 q-22.5 -5.5 -41.5 -5.5 l-20 0 l0 62 l-353 0 l0 -29 q0 -6 -14.5 -14.5 q-14.5 -8.5 -37 -15.5 q-22.5 -7 -47.5 -7 l-17 0 l0 446 l123 -48 l336 0 ZM667 474 l145 0 l0 236 l-145 0 l0 -236 ZM855 796 l109 -84 q-4 -6 -14.5 -12 q-10.5 -6 -26.5 -9 l0 -285 q0 -3 -15.5 -9.5 q-15.5 -6.5 -37 -12 q-21.5 -5.5 -40.5 -5.5 l-18 0 l0 66 l-145 0 l0 -51 q0 -5 -13.5 -13 q-13.5 -8 -35 -14.5 q-21.5 -6.5 -45.5 -6.5 l-16 0 l0 424 l114 -46 l131 0 l53 58 Z" /><glyph glyph-name="cid21139" unicode="&#x2f49;&#x6708;" d="M345 307 l329 0 l0 202 l-322 0 l0 -62 q0 -34 -1 -69.5 q-1 -35.5 -6 -70.5 ZM674 731 l-322 0 l0 -194 l322 0 l0 194 ZM719 824 l117 -91 q-4 -6 -14.5 -12 q-10.5 -6 -25.5 -9 l0 -658 q0 -41 -11 -71 q-11 -30 -46 -48 q-35 -18 -108 -25 q-3 30 -8.5 52 q-5.5 22 -19.5 35 q-14 14 -36.5 24.5 q-22.5 10.5 -66.5 18.5 l0 13 q0 0 19.5 -1 q19.5 -1 46.5 -3 q27 -2 51 -3 q24 -1 33 -1 q14 0 19 6 q5 6 5 17 l0 211 l-333 0 q-11 -70 -41.5 -137.5 q-30.5 -67.5 -89.5 -126.5 q-59 -59 -157 -105 l-9 8 q83 73 123 157.5 q40 84.5 53 178 q13 93.5 13 192.5 l0 362 l138 -48 l293 0 l55 64 Z" /><glyph glyph-name="cid21140" unicode="&#x6709;" d="M696 483 l-325 0 l0 -126 l325 0 l0 126 ZM371 200 l325 0 l0 128 l-325 0 l0 -128 ZM768 683 l70 87 q0 0 12.5 -9.5 q12.5 -9.5 32 -25 q19.5 -15.5 41 -33 q21.5 -17.5 39.5 -32.5 q-3 -16 -28 -16 l-486 0 q-19 -34 -41 -67.5 q-22 -33.5 -48 -65.5 l23 -9 l302 0 l56 64 l120 -92 q-5 -7 -17 -13.5 q-12 -6.5 -29 -9.5 l0 -409 q0 -40 -10 -69 q-10 -29 -43 -46.5 q-33 -17.5 -102 -23.5 q-2 29 -7.5 50.5 q-5.5 21.5 -17.5 34.5 q-11 14 -31 24 q-20 10 -58 17 l0 13 q0 0 16.5 -1 q16.5 -1 39.5 -2 q23 -1 43.5 -2 q20.5 -1 29.5 -1 q13 0 17 5 q4 5 4 15 l0 105 l-325 0 l0 -223 q0 -6 -26 -20.5 q-26 -14.5 -70 -14.5 l-22 0 l0 493 q-46 -43 -100.5 -80 q-54.5 -37 -116.5 -66 l-9 10 q98 75 170.5 176.5 q72.5 101.5 121.5 207.5 l-268 0 l-8 29 l288 0 q19 44 33.5 87 q14.5 43 24.5 83 l162 -49 q-2 -9 -10.5 -14.5 q-8.5 -5.5 -28.5 -5.5 q-10 -25 -21.5 -50 q-11.5 -25 -25.5 -51 l303 0 Z" /><glyph glyph-name="cid21208" unicode="&#x672f;" d="M618 813 l7 7 q70 -1 111 -16.5 q41 -15.5 59.5 -38 q18.5 -22.5 18.5 -45 q0 -22.5 -14 -39 q-14 -16.5 -36.5 -19.5 q-22.5 -3 -49.5 13 q-10 38 -38 76 q-28 38 -58 62 ZM947 567 l-371 0 q32 -119 94 -209.5 q62 -90.5 143 -156 q81 -65.5 169 -110.5 l-4 -11 q-38 -4 -69 -28.5 q-31 -24.5 -48 -67.5 q-79 65 -138.5 146.5 q-59.5 81.5 -100 189 q-40.5 107.5 -63.5 247.5 l-2 0 l0 -614 q0 -6 -15 -15.5 q-15 -9.5 -37 -17.5 q-22 -8 -45 -8 l-22 0 l0 463 q-67 -124 -169.5 -227 q-102.5 -103 -241.5 -178 l-10 11 q88 73 158 169 q70 96 120.5 203.5 q50.5 107.5 77.5 213.5 l-320 0 l-9 28 l394 0 l0 254 l156 -16 q-1 -10 -9 -17.5 q-8 -7.5 -28 -10.5 l0 -210 l222 0 l71 95 q0 0 13 -10.5 q13 -10.5 32.5 -27 q19.5 -16.5 41 -35 q21.5 -18.5 39.5 -34.5 q-4 -16 -29 -16 Z" /><glyph glyph-name="cid21224" unicode="&#x673a;" d="M292 578 l0 -78 q61 -18 94.5 -43 q33.5 -25 45.5 -51 q12 -26 8 -47.5 q-4 -21.5 -19 -34.5 q-15 -13 -36 -12 q-21 1 -43 21 q-1 36 -16 76 q-15 40 -34 71 l0 -536 q0 -5 -13.5 -13.5 q-13.5 -8.5 -33.5 -14.5 q-20 -6 -42 -6 l-23 0 l0 408 q-29 -47 -65 -90.5 q-36 -43.5 -79 -81.5 l-12 11 q54 86 88.5 197 q34.5 111 52.5 224 l-126 0 l-8 28 l149 0 l0 244 l149 -14 q-1 -11 -8.5 -18.5 q-7.5 -7.5 -28.5 -10.5 l0 -201 l19 0 l55 80 q0 0 16.5 -15.5 q16.5 -15.5 39 -37 q22.5 -21.5 39.5 -39.5 q-4 -16 -27 -16 l-142 0 ZM942 176 l4 -125 q20 -10 27 -20.5 q7 -10.5 7 -26.5 q0 -33 -30.5 -48.5 q-30.5 -15.5 -99.5 -15.5 l-44 0 q-56 0 -72 21.5 q-16 21.5 -16 73.5 l0 698 l-126 0 l0 -321 q0 -71 -7.5 -141.5 q-7.5 -70.5 -33 -136.5 q-25.5 -66 -79.5 -123.5 q-54 -57.5 -146 -102.5 l-10 8 q73 67 107.5 145 q34.5 78 45.5 166 q11 88 11 184 l0 397 l130 -47 l96 0 l57 67 l110 -91 q-5 -6 -14.5 -11 q-9.5 -5 -26.5 -7 l0 -652 q0 -10 2.5 -15 q2.5 -5 10.5 -5 l16 0 l18 0 q4 1 9 2.5 q5 1.5 9 7.5 q5 8 11 27.5 q6 19.5 12 44 q6 24.5 11 47.5 l11 0 Z" /><glyph glyph-name="cid21281" unicode="&#x6765;" d="M937 357 l-364 0 q43 -63 108 -115 q65 -52 141.5 -89 q76.5 -37 152.5 -56 l-2 -12 q-34 -7 -58.5 -34 q-24.5 -27 -35.5 -70 q-227 108 -323 367 l0 -395 q0 -6 -15 -16 q-15 -10 -37 -18 q-22 -8 -45 -8 l-23 0 l0 331 q-73 -89 -175 -160.5 q-102 -71.5 -228 -121.5 l-9 12 q76 48 141.5 110.5 q65.5 62.5 117 133.5 q51.5 71 85.5 141 l-322 0 l-9 27 l399 0 l0 267 l-347 0 l-8 28 l355 0 l0 170 l157 -15 q-1 -10 -9 -17.5 q-8 -7.5 -28 -10.5 l0 -127 l181 0 l68 85 q0 0 12.5 -9.5 q12.5 -9.5 31.5 -24.5 q19 -15 40 -31.5 q21 -16.5 39 -31.5 q-1 -8 -9 -12 q-8 -4 -19 -4 l-344 0 l0 -267 l213 0 l71 87 q0 0 12.5 -9.5 q12.5 -9.5 32 -24.5 q19.5 -15 41 -32 q21.5 -17 39.5 -32 q-4 -16 -28 -16 ZM190 631 l9 4 q69 -22 107 -52 q38 -30 52 -61 q14 -31 10 -57 q-4 -26 -21.5 -42 q-17.5 -16 -41.5 -15.5 q-24 0.5 -50 23.5 q-2 52 -22 105.5 q-20 53.5 -43 94.5 ZM616 403 l-12 8 q20 41 43.5 103.5 q23.5 62.5 42.5 123.5 l150 -59 q-9 -21 -41 -18 q-40 -47 -88.5 -88 q-48.5 -41 -94.5 -70 Z" /><glyph glyph-name="cid21328" unicode="&#x6784;" d="M290 577 l0 -88 q69 -24 101.5 -56 q32.5 -32 38 -62 q5.5 -30 -8 -51 q-13.5 -21 -37.5 -24 q-24 -3 -49 20 q-1 36 -14.5 75.5 q-13.5 39.5 -30.5 71.5 l0 -518 q0 -5 -13 -13.5 q-13 -8.5 -33 -15 q-20 -6.5 -41 -6.5 l-23 0 l0 409 q-29 -49 -65.5 -93 q-36.5 -44 -78.5 -84 l-13 11 q55 87 89.5 199 q34.5 112 53.5 225 l-127 0 l-8 29 l149 0 l0 245 l146 -14 q-1 -11 -8.5 -18.5 q-7.5 -7.5 -27.5 -10.5 l0 -202 l11 0 l52 76 q0 0 16.5 -14.5 q16.5 -14.5 38.5 -35.5 q22 -21 39 -39 q-4 -16 -26 -16 l-131 0 ZM628 384 l12 4 q67 -41 99 -84.5 q32 -43.5 38.5 -81 q6.5 -37.5 -5.5 -62 q-12 -24.5 -34.5 -28.5 q-22.5 -4 -47.5 20 q0 18 -2.5 36.5 q-2.5 18.5 -6.5 37.5 q-36 -17 -83.5 -38 q-47.5 -21 -100.5 -42 q-10 -18 -24 -24 l-54 118 q0 0 12 4 q12 4 18 10 q17 23 34.5 63 q17.5 40 34 87 q16.5 47 29 93 q12.5 46 17.5 80 l140 -60 q-3 -7 -11.5 -12.5 q-8.5 -5.5 -23.5 -4.5 q-21 -40 -51 -87.5 q-30 -47.5 -64 -93 q-34 -45.5 -67 -81.5 q37 2 86 6.5 q49 4.5 101 9.5 q-9 35 -21 68.5 q-12 33.5 -25 61.5 ZM872 725 l103 -91 q-6 -7 -16.5 -12 q-10.5 -5 -28.5 -7 q-4 -202 -12.5 -335.5 q-8.5 -133.5 -25 -209 q-16.5 -75.5 -45.5 -105.5 q-26 -28 -59.5 -40.5 q-33.5 -12.5 -79.5 -12.5 q0 26 -5 46.5 q-5 20.5 -16 31.5 q-13 14 -39 24.5 q-26 10.5 -60 17.5 l1 15 q22 -2 49 -4.5 q27 -2.5 50.5 -4 q23.5 -1.5 35.5 -1.5 q14 0 22 3.5 q8 3.5 16 10.5 q29 27 42 174.5 q13 147.5 18 408.5 l-268 0 q-64 -115 -146 -190 l-12 8 q23 50 44 115.5 q21 65.5 38 138 q17 72.5 27 143.5 l155 -41 q-5 -21 -39 -21 q-25 -68 -54 -125 l245 0 l60 63 Z" /><glyph glyph-name="cid21529" unicode="&#x6807;" d="M885 721 l-450 0 l-8 29 l318 0 l60 79 q0 0 18.5 -15 q18.5 -15 43.5 -36.5 q25 -21.5 45 -40.5 q-3 -16 -27 -16 ZM277 579 l0 -75 q66 -25 97 -56.5 q31 -31.5 35.5 -61 q4.5 -29.5 -9 -49.5 q-13.5 -20 -37 -23 q-23.5 -3 -47.5 20 q-1 34 -12 70.5 q-11 36.5 -27 67.5 l0 -526 q0 -5 -13.5 -13.5 q-13.5 -8.5 -33.5 -15 q-20 -6.5 -42 -6.5 l-22 0 l0 405 q-28 -48 -62.5 -91.5 q-34.5 -43.5 -75.5 -82.5 l-12 11 q52 87 84 199.5 q32 112.5 48 226.5 l-106 0 l-7 29 l131 0 l0 243 l148 -15 q-1 -11 -8.5 -18 q-7.5 -7 -28.5 -10 l0 -200 l5 0 l54 77 q0 0 16.5 -15 q16.5 -15 39.5 -36 q23 -21 40 -39 q-3 -16 -27 -16 l-128 0 ZM447 405 l142 -58 q-3 -8 -11 -13 q-8 -5 -27 -4 q-21 -50 -52.5 -106.5 q-31.5 -56.5 -74.5 -110 q-43 -53.5 -97 -95.5 l-9 10 q34 54 60 121 q26 67 43.5 134.5 q17.5 67.5 25.5 121.5 ZM942 483 l-234 0 l0 -436 q0 -37 -10.5 -65.5 q-10.5 -28.5 -42 -46 q-31.5 -17.5 -96.5 -22.5 q-1 26 -5.5 45 q-4.5 19 -15.5 31 q-10 12 -29 21.5 q-19 9.5 -57 15.5 l0 13 q0 0 15.5 -1 q15.5 -1 37 -2.5 q21.5 -1.5 40.5 -2.5 q19 -1 27 -1 q12 0 16 5 q4 5 4 13 l0 433 l-208 0 l-8 29 l412 0 l64 86 q0 0 12 -9.5 q12 -9.5 31 -25 q19 -15.5 39 -32.5 q20 -17 36 -32 q-1 -8 -9 -12 q-8 -4 -19 -4 ZM740 379 l13 5 q79 -47 126 -96.5 q47 -49.5 68 -96 q21 -46.5 21.5 -84 q0.5 -37.5 -14 -60 q-14.5 -22.5 -39 -24.5 q-24.5 -2 -52.5 23 q-5 54 -24.5 113 q-19.5 59 -46 116 q-26.5 57 -52.5 104 Z" /><glyph glyph-name="cid21530" unicode="&#x6808;" d="M803 386 l-140 -18 q9 -34 20.5 -66.5 q11.5 -32.5 25.5 -62.5 q26 33 49.5 70 q23.5 37 44.5 77 ZM967 197 l-21 -167 q28 -41 33 -63.5 q5 -22.5 -7 -35.5 q-19 -23 -50.5 -22.5 q-31.5 0.5 -65 15.5 q-33.5 15 -60.5 34 q-37 26 -67 56.5 q-30 30.5 -56 64.5 q-74 -49 -157.5 -84 q-83.5 -35 -177.5 -61 l-5 15 q83 38 157 87 q74 49 139 113 q-25 46 -44 97.5 q-19 51.5 -32 107.5 l-145 -18 l-6 17 q1 -26 -12.5 -42 q-13.5 -16 -33.5 -17 q-20 -1 -41 19 q-1 35 -13 74.5 q-12 39.5 -26 73.5 l0 -514 q0 -6 -13 -14.5 q-13 -8.5 -33 -15.5 q-20 -7 -40 -7 l-22 0 l0 408 q-57 -97 -141 -175 l-12 11 q36 58 63 128.5 q27 70.5 46.5 147 q19.5 76.5 30.5 152.5 l-116 0 l-8 28 l137 0 l0 242 l145 -15 q-1 -11 -8.5 -18 q-7.5 -7 -28.5 -10 l0 -199 l15 0 l57 85 q0 0 18 -16 q18 -16 41.5 -38.5 q23.5 -22.5 41.5 -42.5 q-3 -16 -27 -16 l-146 0 l0 -85 q64 -32 92.5 -67.5 q28.5 -35.5 32.5 -66.5 l145 19 q-7 37 -13 74.5 q-6 37.5 -10 77.5 l-117 -13 l-11 27 l125 14 q-6 68 -8.5 139.5 q-2.5 71.5 -2.5 146.5 l153 -15 q-1 -10 -8.5 -18 q-7.5 -8 -26.5 -11 q-1 -59 0 -116 q1 -57 5 -113 l109 12 l45 69 q-12 -4 -27 -2 q-15 2 -32 12 q-9 37 -34.5 75.5 q-25.5 38.5 -51.5 63.5 l8 6 q67 -4 106 -21 q39 -17 55.5 -39.5 q16.5 -22.5 15 -45 q-1.5 -22.5 -16.5 -36.5 q11 -6 31.5 -18.5 q20.5 -12.5 44 -26.5 q23.5 -14 42.5 -28 q-3 -18 -26 -20 l-267 -30 q4 -39 9.5 -76.5 q5.5 -37.5 13.5 -73.5 l128 17 l57 89 q0 0 22 -12.5 q22 -12.5 52.5 -30.5 q30.5 -18 54.5 -35 q-1 -8 -8 -13 q-7 -5 -16 -7 l-142 -18 l141 -76 q-5 -9 -14.5 -11.5 q-9.5 -2.5 -28.5 -0.5 q-63 -83 -137 -147 q20 -24 42.5 -45 q22.5 -21 49.5 -38 q13 -9 20.5 -8.5 q7.5 0.5 15.5 13.5 q12 20 31 57 q19 37 32 69 l10 -2 Z" /><glyph glyph-name="cid21606" unicode="&#x6838;" d="M561 847 l8 6 q68 -9 106 -29.5 q38 -20.5 53 -44.5 q15 -24 11.5 -47 q-3.5 -23 -20 -37.5 q-16.5 -14.5 -40.5 -15.5 q-24 -1 -50 18 q-5 39 -25.5 80 q-20.5 41 -42.5 70 ZM574 644 l-186 0 l-8 29 l429 0 l58 83 q0 0 18.5 -16 q18.5 -16 44 -38 q25.5 -22 44.5 -42 q-4 -16 -28 -16 l-305 0 l83 -27 q-3 -7 -11.5 -12.5 q-8.5 -5.5 -22.5 -5.5 q-34 -39 -85.5 -82.5 q-51.5 -43.5 -102.5 -77.5 q39 1 88 2.5 q49 1.5 101 2.5 q46 63 85 139 l131 -71 q-4 -7 -14 -10 q-10 -3 -28 0 q-105 -147 -235.5 -242 q-130.5 -95 -292.5 -154 l-8 15 q95 53 177.5 121.5 q82.5 68.5 152.5 157.5 q-38 -12 -82 -25.5 q-44 -13.5 -93 -27.5 q-15 -21 -31 -27 l-38 120 q0 0 11.5 3 q11.5 3 18.5 7 q23 17 47.5 51 q24.5 34 46.5 72.5 q22 38.5 35 70.5 ZM282 580 l0 -106 q65 -28 95.5 -61 q30.5 -33 35.5 -63.5 q5 -30.5 -7 -50.5 q-12 -20 -34 -23.5 q-22 -3.5 -45 18.5 q0 38 -14 79.5 q-14 41.5 -31 75.5 l0 -504 q0 -5 -13.5 -13.5 q-13.5 -8.5 -33.5 -15 q-20 -6.5 -41 -6.5 l-22 0 l0 403 q-29 -47 -64.5 -90.5 q-35.5 -43.5 -77.5 -82.5 l-12 12 q55 87 90 200.5 q35 113.5 52 227.5 l-120 0 l-8 29 l140 0 l0 242 l146 -14 q-1 -11 -8.5 -18.5 q-7.5 -7.5 -27.5 -10.5 l0 -199 l14 0 l50 68 q0 0 15 -13.5 q15 -13.5 36 -32 q21 -18.5 38 -35.5 q-4 -16 -27 -16 l-126 0 ZM311 -88 l-6 15 q108 49 204.5 113.5 q96.5 64.5 179 152.5 q82.5 88 148.5 207 l137 -76 q-11 -16 -45 -11 q-69 -93 -149 -162 q71 -21 112.5 -50.5 q41.5 -29.5 59.5 -60.5 q18 -31 16.5 -58 q-1.5 -27 -17 -44 q-15.5 -17 -40 -19 q-24.5 -2 -52.5 18 q-13 47 -44 97.5 q-31 50.5 -64 92.5 q-96 -78 -205 -129 q-109 -51 -235 -86 Z" /><glyph glyph-name="cid21608" unicode="&#x6839;" d="M285 577 l0 -80 q70 -23 103.5 -53.5 q33.5 -30.5 40.5 -60.5 q7 -30 -5.5 -51 q-12.5 -21 -35.5 -25 q-23 -4 -48 17 q-2 37 -18.5 77 q-16.5 40 -36.5 72 l0 -528 q0 -5 -13 -13.5 q-13 -8.5 -33 -15 q-20 -6.5 -41 -6.5 l-23 0 l0 404 q-28 -46 -62.5 -89.5 q-34.5 -43.5 -75.5 -81.5 l-12 11 q53 86 86.5 198 q33.5 112 49.5 225 l-120 0 l-8 29 l142 0 l0 245 l146 -14 q-1 -11 -8 -18.5 q-7 -7.5 -28 -10.5 l0 -202 l13 0 l51 75 q0 0 16.5 -14.5 q16.5 -14.5 39 -35 q22.5 -20.5 39.5 -38.5 q-4 -16 -27 -16 l-132 0 ZM558 573 l0 -152 l228 0 l0 152 l-228 0 ZM558 602 l228 0 l0 142 l-228 0 l0 -142 ZM858 360 l114 -79 q-9 -12 -36 -6 q-25 -19 -72 -48 q-47 -29 -99 -54 q93 -105 221 -149 l-2 -9 q-30 -8 -53.5 -34 q-23.5 -26 -33.5 -67 q-115 69 -178 185.5 q-63 116.5 -93 292.5 l-68 0 l0 -338 q32 8 66.5 16.5 q34.5 8.5 68.5 17.5 l3 -12 q-29 -22 -84.5 -61.5 q-55.5 -39.5 -123.5 -80.5 q-14 -17 -28 -23 l-51 109 q28 14 35.5 24.5 q7.5 10.5 7.5 29.5 l0 748 l119 -50 l205 0 l51 56 l107 -81 q-5 -6 -15.5 -11.5 q-10.5 -5.5 -25.5 -8.5 l0 -342 q0 -4 -14.5 -12 q-14.5 -8 -35 -14.5 q-20.5 -6.5 -39.5 -6.5 l-18 0 l0 40 l-142 0 q34 -109 101 -194 q22 27 44 57.5 q22 30.5 40 58 q18 27.5 29 46.5 Z" /><glyph glyph-name="cid23002" unicode="&#x6b27;" d="M736 519 l-3 -39 q10 -107 37 -191 q27 -84 78 -145.5 q51 -61.5 133 -103.5 l-1 -12 q-81 -18 -96 -119 q-53 44 -86 113 q-33 69 -51 157.5 q-18 88.5 -26 189.5 q-10 -72 -29.5 -139.5 q-19.5 -67.5 -56.5 -127.5 q-37 -60 -96.5 -109 q-59.5 -49 -148.5 -84 l-10 13 q39 23 70.5 51.5 q31.5 28.5 55.5 59.5 l-6 0 l-309 0 l-40 -56 l-123 66 q19 19 44 33 l0 726 l126 -61 l160 0 l59 76 q0 0 18 -14.5 q18 -14.5 43 -35 q25 -20.5 44 -38.5 q-3 -16 -28 -16 l-310 0 l0 -651 l176 0 l59 75 q0 0 17 -13 q17 -13 41 -32 q24 -19 45 -37 q47 70 68.5 154 q21.5 84 28.5 176.5 q7 92.5 8 188.5 l146 -34 q-3 -10 -11.5 -16 q-8.5 -6 -25.5 -5 ZM210 115 l-12 9 q35 58 61 129 q26 71 44 144 q-24 60 -53 116 q-29 56 -56 104 l15 6 q70 -57 118 -112 q8 42 12.5 81.5 q4.5 39.5 7.5 75.5 l141 -35 q-3 -9 -11 -14.5 q-8 -5.5 -28 -6.5 q-10 -43 -23.5 -91.5 q-13.5 -48.5 -31.5 -98.5 q42 -67 54.5 -122.5 q12.5 -55.5 3 -90.5 q-9.5 -35 -33 -43 q-23.5 -8 -53.5 19 q-6 52 -26 112 q-25 -50 -57 -96 q-32 -46 -72 -86 ZM886 703 l100 -95 q-6 -7 -14.5 -8.5 q-8.5 -1.5 -24.5 -3.5 q-15 -25 -36 -56 q-21 -31 -44 -60.5 q-23 -29.5 -45 -52.5 l-10 6 q8 38 16 90.5 q8 52.5 12 94.5 l-229 0 q-64 -139 -150 -232 l-14 7 q23 59 44.5 135 q21.5 76 39 159.5 q17.5 83.5 27.5 164.5 l158 -43 q-4 -10 -13 -16 q-9 -6 -26 -6 q-12 -37 -25.5 -72 q-13.5 -35 -27.5 -69 l206 0 l56 57 Z" /><glyph glyph-name="cid23311" unicode="&#x2e9f;&#x6bcd;" d="M384 697 l9 6 q73 -14 116 -39 q43 -25 61.5 -54 q18.5 -29 18.5 -56 q0 -27 -14.5 -45 q-14.5 -18 -38 -20.5 q-23.5 -2.5 -50.5 17.5 q-6 50 -36 102.5 q-30 52.5 -66 88.5 ZM370 390 l9 7 q75 -16 118.5 -43.5 q43.5 -27.5 62 -57.5 q18.5 -30 18 -57.5 q-0.5 -27.5 -16 -45.5 q-15.5 -18 -39 -20.5 q-23.5 -2.5 -50.5 18.5 q-6 53 -35.5 107.5 q-29.5 54.5 -66.5 91.5 ZM236 140 l418 0 q10 50 17 121.5 q7 71.5 13 165.5 l-406 0 q-10 -79 -21 -153.5 q-11 -74.5 -21 -133.5 ZM696 737 l-380 0 q-6 -56 -14.5 -129.5 q-8.5 -73.5 -19.5 -152.5 l403 0 q4 62 6.5 132.5 q2.5 70.5 4.5 149.5 ZM824 455 l57 83 q0 0 17.5 -16 q17.5 -16 41 -38 q23.5 -22 41.5 -41 q-3 -16 -27 -16 l-152 0 q-4 -90 -10.5 -161 q-6.5 -71 -14.5 -126 l22 0 l55 79 q0 0 17 -15 q17 -15 40.5 -36.5 q23.5 -21.5 40.5 -39.5 q-4 -16 -26 -16 l-154 0 q-21 -110 -56 -148 q-29 -32 -67.5 -42.5 q-38.5 -10.5 -92.5 -10.5 q0 25 -5 43 q-5 18 -19 30 q-15 14 -44.5 25 q-29.5 11 -69.5 18 l2 15 q26 -2 57 -5 q31 -3 58 -4.5 q27 -1.5 41 -1.5 q15 0 24 4 q9 4 19 12 q18 16 28 65 l-408 0 l-42 -52 l-110 63 q7 6 15.5 12.5 q8.5 6.5 18.5 11.5 q11 54 22.5 127 q11.5 73 21.5 153 l-132 0 l-8 28 l144 0 q13 103 23 202 q10 99 14 168 l138 -59 l340 0 l66 70 l110 -100 q-7 -7 -17.5 -12.5 q-10.5 -5.5 -29.5 -7.5 q-2 -73 -4.5 -138 q-2.5 -65 -4.5 -123 l20 0 Z" /><glyph glyph-name="cid23328" unicode="&#x2f50;&#x6bd4;" d="M340 485 l62 95 q0 0 11.5 -10.5 q11.5 -10.5 29 -27.5 q17.5 -17 36 -35.5 q18.5 -18.5 33.5 -33.5 q-3 -16 -27 -16 l-225 0 l0 -375 q53 16 115.5 35.5 q62.5 19.5 126.5 39.5 l4 -12 q-45 -31 -122 -83.5 q-77 -52.5 -175 -111.5 q-5 -13 -12.5 -22.5 q-7.5 -9.5 -15.5 -14.5 l-84 123 q32 20 40.5 31.5 q8.5 11.5 8.5 29.5 l0 738 l156 -15 q-2 -12 -11 -19.5 q-9 -7.5 -31 -11.5 l0 -304 l80 0 ZM929 232 l4 -156 q25 -10 33.5 -21.5 q8.5 -11.5 8.5 -27.5 q0 -26 -18.5 -42.5 q-18.5 -16.5 -64 -24.5 q-45.5 -8 -127.5 -8 l-93 0 q-51 0 -80 9.5 q-29 9.5 -41 34 q-12 24.5 -12 68.5 l0 767 l151 -15 q-1 -10 -8.5 -18 q-7.5 -8 -27.5 -11 l0 -330 q45 38 93.5 87.5 q48.5 49.5 90.5 100.5 l116 -110 q-7 -7 -17.5 -8.5 q-10.5 -1.5 -28.5 5.5 q-61 -37 -128 -66.5 q-67 -29.5 -126 -47.5 l0 -319 q0 -18 9.5 -25 q9.5 -7 34.5 -7 l77 0 q23 0 41 0 q18 0 28 1 q16 1 27 15 q8 15 21 57.5 q13 42.5 26 91.5 l11 0 Z" /><glyph glyph-name="cid23561" unicode="&#x6c5f;" d="M108 825 l8 7 q71 -5 113.5 -24 q42.5 -19 61 -43 q18.5 -24 18.5 -48 q0 -24 -14 -41 q-14 -17 -37.5 -20.5 q-23.5 -3.5 -51.5 13.5 q-12 42 -41 84.5 q-29 42.5 -57 71.5 ZM24 603 l8 6 q68 -3 109 -19 q41 -16 59.5 -39 q18.5 -23 18.5 -45.5 q0 -22.5 -13 -39 q-13 -16.5 -35 -20.5 q-22 -4 -49 11 q-11 39 -40 79.5 q-29 40.5 -58 66.5 ZM365 675 l15 -5 q-14 -36 -31 -82 q-17 -46 -34.5 -94 q-17.5 -48 -33.5 -92.5 q-16 -44.5 -27 -78 q-11 -33.5 -16 -49.5 q-8 -25 -13.5 -50.5 q-5.5 -25.5 -4.5 -45.5 q1 -26 11 -49.5 q10 -23.5 20 -53 q10 -29.5 9 -73.5 q-1 -38 -25 -61.5 q-24 -23.5 -62 -23.5 q-18 0 -33 12.5 q-15 12.5 -21 40.5 q9 53 10.5 99 q1.5 46 -4 76.5 q-5.5 30.5 -17.5 38.5 q-20 13 -54 16 l0 19 l48 0 q11 0 17 2.5 q6 2.5 14 17.5 q8 12 14.5 23 q6.5 11 18.5 33 q12 22 35 66 q23 44 62.5 119.5 q39.5 75.5 101.5 194.5 ZM800 15 l67 92 q0 0 12.5 -10 q12.5 -10 31.5 -26 q19 -16 40 -34 q21 -18 38 -34 q-2 -8 -10 -12 q-8 -4 -19 -4 l-667 0 l-8 28 l276 0 l0 691 l-223 0 l-8 28 l446 0 l65 89 q0 0 12 -10 q12 -10 30 -25.5 q18 -15.5 38.5 -33 q20.5 -17.5 36.5 -32.5 q-4 -16 -29 -16 l-246 0 l0 -691 l117 0 Z" /><glyph glyph-name="cid23739" unicode="&#x6cd5;" d="M112 829 l8 7 q70 -6 111.5 -24.5 q41.5 -18.5 59 -42.5 q17.5 -24 17 -47.5 q-0.5 -23.5 -15 -39.5 q-14.5 -16 -37.5 -18.5 q-23 -2.5 -50 14.5 q-10 41 -38 82 q-28 41 -55 69 ZM29 603 l8 6 q67 -4 106.5 -20.5 q39.5 -16.5 56.5 -39 q17 -22.5 16.5 -44.5 q-0.5 -22 -14 -37.5 q-13.5 -15.5 -36 -18.5 q-22.5 -3 -48.5 13 q-10 38 -36.5 77 q-26.5 39 -52.5 64 ZM345 712 l17 -4 q-13 -40 -29 -90.5 q-16 -50.5 -32.5 -103.5 q-16.5 -53 -31 -101.5 q-14.5 -48.5 -25.5 -85.5 q-11 -37 -15 -54 q-7 -27 -12 -53.5 q-5 -26.5 -4 -46.5 q1 -27 11 -51 q10 -24 19.5 -53.5 q9.5 -29.5 7.5 -74.5 q-1 -37 -24 -60.5 q-23 -23.5 -58 -23.5 q-18 0 -34 12 q-16 12 -21 41 q9 52 10.5 98 q1.5 46 -3.5 77 q-5 31 -18 39 q-10 8 -23 11.5 q-13 3.5 -30 4.5 l0 20 l47 0 q11 0 16.5 2.5 q5.5 2.5 13.5 18.5 q6 10 10.5 19.5 q4.5 9.5 12 25.5 q7.5 16 21 45 q13.5 29 35.5 78 q22 49 56 125 q34 76 83 185 ZM799 396 l66 88 q0 0 12.5 -9.5 q12.5 -9.5 31.5 -25 q19 -15.5 39.5 -33 q20.5 -17.5 37.5 -32.5 q-4 -16 -28 -16 l-380 0 l133 -61 q-3 -7 -12.5 -11.5 q-9.5 -4.5 -24.5 -3.5 q-30 -36 -73.5 -77 q-43.5 -41 -93.5 -80 q-50 -39 -98 -70 q72 3 173.5 9 q101.5 6 213.5 13 q-20 42 -44.5 81.5 q-24.5 39.5 -48.5 72.5 l10 6 q89 -35 142.5 -77.5 q53.5 -42.5 78 -85 q24.5 -42.5 26 -78.5 q1.5 -36 -14 -59 q-15.5 -23 -42 -25.5 q-26.5 -2.5 -57.5 21.5 q-5 29 -15 58 q-10 29 -24 59 q-72 -22 -177 -50.5 q-105 -28.5 -236 -58.5 q-12 -17 -25 -22 l-56 138 q0 0 14 4 q14 4 22 10 q25 18 53 52 q28 34 55.5 75.5 q27.5 41.5 50 83.5 q22.5 42 35.5 76 l-242 0 l-8 28 l266 0 l0 214 l-189 0 l-8 29 l197 0 l0 208 l155 -13 q-2 -10 -9.5 -17.5 q-7.5 -7.5 -27.5 -10.5 l0 -167 l80 0 l63 83 q0 0 19.5 -16 q19.5 -16 46.5 -38 q27 -22 49 -42 q-4 -16 -29 -16 l-229 0 l0 -214 l122 0 Z" /><glyph glyph-name="cid23846" unicode="&#x6d1b;&#xf915;" d="M107 822 l8 8 q69 -1 110.5 -17 q41.5 -16 60.5 -38 q19 -22 20 -45 q1 -23 -11.5 -40 q-12.5 -17 -35 -22 q-22.5 -5 -49.5 10 q-13 39 -43.5 79 q-30.5 40 -59.5 65 ZM25 612 l8 6 q66 -5 105 -22 q39 -17 55.5 -40 q16.5 -23 15.5 -45 q-1 -22 -15 -38 q-14 -16 -36 -18.5 q-22 -2.5 -48 14.5 q-7 39 -32.5 78.5 q-25.5 39.5 -52.5 64.5 ZM334 698 l17 -4 q-13 -39 -28.5 -88 q-15.5 -49 -31.5 -101 q-16 -52 -30 -99.5 q-14 -47.5 -24.5 -84 q-10.5 -36.5 -15.5 -53.5 q-6 -26 -11 -52 q-5 -26 -4 -46 q1 -26 11.5 -49 q10.5 -23 20 -52.5 q9.5 -29.5 8.5 -73.5 q-1 -37 -24 -60 q-23 -23 -60 -23 q-18 0 -33 12 q-15 12 -21 40 q9 52 11 96.5 q2 44.5 -3.5 74.5 q-5.5 30 -17.5 38 q-20 14 -52 16 l0 19 l45 0 q12 0 17 3 q5 3 14 18 q5 10 10 19.5 q5 9.5 12 25 q7 15.5 20 44 q13 28.5 34.5 77 q21.5 48.5 54.5 122.5 q33 74 81 181 ZM733 274 l55 62 q-40 19 -73.5 41.5 q-33.5 22.5 -62.5 47.5 q-47 -34 -101 -64 q-54 -30 -116 -55 l84 -32 l214 0 ZM509 13 l228 0 l0 232 l-228 0 l0 -232 ZM744 693 l-191 0 q-13 -21 -30 -42 q23 -35 51.5 -64.5 q28.5 -29.5 62.5 -55.5 q66 74 107 162 ZM811 783 l104 -95 q-7 -8 -16 -11 q-9 -3 -28 -5 q-60 -107 -150 -190 q110 -53 265 -75 l-2 -12 q-67 -23 -77 -104 q-32 9 -61.5 20 q-29.5 11 -55.5 23 l101 -78 q-4 -7 -12.5 -11.5 q-8.5 -4.5 -24.5 -7.5 l0 -294 q0 -4 -26 -14.5 q-26 -10.5 -71 -10.5 l-20 0 l0 66 l-228 0 l0 -45 q0 -5 -24.5 -16 q-24.5 -11 -67.5 -11 l-20 0 l0 380 q-33 -11 -67 -21.5 q-34 -10.5 -71 -18.5 l-7 14 q101 40 188 96 q87 56 156 124 q-26 32 -47.5 68.5 q-21.5 36.5 -39.5 76.5 q-41 -53 -93 -102 q-52 -49 -112 -84 l-9 10 q46 55 83.5 125 q37.5 70 64 142 q26.5 72 39.5 131 l160 -41 q-2 -8 -9 -14 q-7 -6 -25 -7 q-7 -16 -16.5 -33.5 q-9.5 -17.5 -20.5 -35.5 l174 0 l66 61 Z" /><glyph glyph-name="cid23884" unicode="&#x6d32;" d="M322 537 l14 0 q25 -81 23 -133.5 q-2 -52.5 -20 -79.5 q-18 -27 -41.5 -33.5 q-23.5 -6.5 -42 3 q-18.5 9.5 -23 31.5 q-4.5 22 17.5 51 q29 20 48.5 60 q19.5 40 23.5 101 ZM85 835 l9 6 q66 -10 104 -30 q38 -20 54 -44 q16 -24 14 -46.5 q-2 -22.5 -16 -37.5 q-14 -15 -36.5 -16.5 q-22.5 -1.5 -47.5 15.5 q-8 40 -32 81.5 q-24 41.5 -49 71.5 ZM26 615 l9 6 q63 -9 98.5 -28 q35.5 -19 50 -42 q14.5 -23 12 -44.5 q-2.5 -21.5 -17 -36 q-14.5 -14.5 -36 -16 q-21.5 -1.5 -45.5 16.5 q-4 38 -25 77.5 q-21 39.5 -46 66.5 ZM285 676 l17 -4 q-10 -37 -22 -83 q-12 -46 -25 -95 q-13 -49 -24 -94 q-11 -45 -19.5 -79 q-8.5 -34 -11.5 -51 q-5 -25 -9 -50 q-4 -25 -3 -45 q1 -26 11 -50 q10 -24 19.5 -54.5 q9.5 -30.5 7.5 -75.5 q-1 -37 -22.5 -59.5 q-21.5 -22.5 -56.5 -22.5 q-16 0 -31 12 q-15 12 -20 40 q9 52 11 98 q2 46 -3 77 q-5 31 -17 39 q-10 8 -22 11.5 q-12 3.5 -28 4.5 l0 19 l43 0 q11 0 16 2.5 q5 2.5 12 18.5 q6 11 11 22 q5 11 14 33 q9 22 26.5 66.5 q17.5 44.5 48 121.5 q30.5 77 77.5 198 ZM384 828 l140 -14 q-1 -10 -8.5 -17.5 q-7.5 -7.5 -27.5 -10.5 l0 -410 q0 -101 -24 -188 q-24 -87 -81.5 -156 q-57.5 -69 -159.5 -119 l-9 10 q67 58 103.5 127 q36.5 69 51.5 150.5 q15 81.5 15 175.5 l0 452 ZM827 828 l136 -14 q-2 -9 -8 -15.5 q-6 -6.5 -23 -8.5 l0 -828 q0 -5 -13 -14.5 q-13 -9.5 -32.5 -16.5 q-19.5 -7 -37.5 -7 l-22 0 l0 402 q-13 -18 -35 -19 q-22 -1 -45 22 q4 50 -10.5 106 q-14.5 56 -33.5 99 l0 -533 q0 -5 -12.5 -13.5 q-12.5 -8.5 -30.5 -14.5 q-18 -6 -36 -6 l-20 0 l0 366 q-13 -19 -35 -21.5 q-22 -2.5 -43 20.5 q6 50 -4.5 104 q-10.5 54 -27.5 95 l12 5 q39 -25 63 -51 q24 -26 35 -51 l0 374 l129 -13 q-1 -9 -7.5 -15.5 q-6.5 -6.5 -22.5 -8.5 l0 -231 l10 4 q46 -26 73.5 -55 q27.5 -29 40.5 -56 l0 395 Z" /><glyph glyph-name="cid23921" unicode="&#x6d4b;" d="M88 830 l8 7 q67 -7 106 -26 q39 -19 55 -43 q16 -24 14.5 -46.5 q-1.5 -22.5 -16 -38 q-14.5 -15.5 -37.5 -17.5 q-23 -2 -49 15 q-8 40 -32.5 80.5 q-24.5 40.5 -48.5 68.5 ZM25 601 l8 7 q63 -7 100 -24.5 q37 -17.5 52 -40 q15 -22.5 13 -43.5 q-2 -21 -16 -35.5 q-14 -14.5 -35.5 -16.5 q-21.5 -2 -46.5 15 q-7 36 -29.5 74.5 q-22.5 38.5 -45.5 63.5 ZM273 657 l17 -4 q-8 -35 -17.5 -79.5 q-9.5 -44.5 -20 -92 q-10.5 -47.5 -19.5 -90.5 q-9 -43 -15.5 -76 q-6.5 -33 -9.5 -48 q-4 -25 -7 -49.5 q-3 -24.5 -2 -44.5 q1 -26 11 -50.5 q10 -24.5 19.5 -55 q9.5 -30.5 7.5 -76.5 q-1 -37 -23 -59.5 q-22 -22.5 -57 -22.5 q-16 0 -31 11.5 q-15 11.5 -20 39.5 q10 53 11.5 99 q1.5 46 -3.5 77.5 q-5 31.5 -16 39.5 q-10 8 -22 11.5 q-12 3.5 -28 4.5 l0 19 l43 0 q11 0 15.5 2.5 q4.5 2.5 11.5 18.5 q5 11 10 21.5 q5 10.5 13 32 q8 21.5 23.5 64 q15.5 42.5 41.5 116.5 q26 74 67 191 ZM436 667 l129 -27 q-2 -10 -10.5 -16.5 q-8.5 -6.5 -25.5 -6.5 q-2 -126 -5 -229 q-3 -103 -21 -185 q67 -22 106.5 -51 q39.5 -29 57 -59.5 q17.5 -30.5 17 -57 q-0.5 -26.5 -14 -43.5 q-13.5 -17 -35 -19 q-21.5 -2 -46.5 17 q-9 47 -35.5 97.5 q-26.5 50.5 -55.5 91.5 q-23 -90 -77 -155.5 q-54 -65.5 -160 -110.5 l-13 16 q74 51 113.5 117 q39.5 66 55.5 153.5 q16 87.5 18 203 q2 115.5 2 264.5 ZM566 769 l47 55 l92 -73 q-5 -6 -14.5 -11 q-9.5 -5 -26.5 -7 l0 -479 q0 -4 -21.5 -15 q-21.5 -11 -56.5 -11 l-16 0 l0 513 l-175 0 l0 -512 q0 -5 -20 -15 q-20 -10 -55 -10 l-15 0 l0 606 l102 -41 l159 0 ZM792 684 l0 -502 q0 -7 -21.5 -16.5 q-21.5 -9.5 -44.5 -9.5 l-16 0 l0 566 l115 -12 q-2 -10 -9 -16.5 q-7 -6.5 -24 -9.5 ZM835 831 l133 -13 q-2 -11 -10.5 -18 q-8.5 -7 -26.5 -10 l0 -752 q0 -36 -8 -62.5 q-8 -26.5 -33.5 -42 q-25.5 -15.5 -80.5 -21.5 q-1 24 -5.5 42.5 q-4.5 18.5 -14.5 31.5 q-9 13 -25.5 21 q-16.5 8 -46.5 13 l0 16 q0 0 12.5 -1 q12.5 -1 30.5 -2.5 q18 -1.5 34 -2.5 q16 -1 22 -1 q11 0 15 4 q4 4 4 14 l0 784 Z" /><glyph glyph-name="cid23983" unicode="&#x6d77;" d="M95 833 l8 6 q68 -6 107.5 -24.5 q39.5 -18.5 56 -42 q16.5 -23.5 14.5 -45.5 q-2 -22 -16.5 -37.5 q-14.5 -15.5 -38 -18 q-23.5 -2.5 -49.5 15.5 q-8 40 -32.5 79.5 q-24.5 39.5 -49.5 66.5 ZM24 600 l8 7 q64 -5 101.5 -21.5 q37.5 -16.5 52.5 -38 q15 -21.5 13 -42.5 q-2 -21 -16 -35.5 q-14 -14.5 -36.5 -16.5 q-22.5 -2 -47.5 15 q-7 35 -29.5 71.5 q-22.5 36.5 -45.5 60.5 ZM305 688 l15 -3 q-10 -38 -23 -86 q-13 -48 -26.5 -98.5 q-13.5 -50.5 -25.5 -97 q-12 -46.5 -20.5 -81.5 q-8.5 -35 -12.5 -52 q-5 -25 -9.5 -50 q-4.5 -25 -3.5 -45 q1 -27 11 -51 q10 -24 19.5 -54.5 q9.5 -30.5 7.5 -75.5 q-1 -37 -23 -60.5 q-22 -23.5 -58 -23.5 q-16 0 -31.5 12 q-15.5 12 -20.5 41 q10 52 11.5 98 q1.5 46 -3.5 77.5 q-5 31.5 -17 38.5 q-10 8 -22.5 11.5 q-12.5 3.5 -29.5 4.5 l0 20 l45 0 q11 0 16 2.5 q5 2.5 12 18.5 q6 11 11.5 22.5 q5.5 11.5 15 34.5 q9.5 23 28.5 68.5 q19 45.5 51 124.5 q32 79 83 204 ZM536 519 l10 6 q64 -13 96.5 -36 q32.5 -23 40 -47 q7.5 -24 -2.5 -42 q-10 -18 -30.5 -23 q-20.5 -5 -44.5 12 q-7 33 -28 69 q-21 36 -41 61 ZM523 300 l9 6 q67 -15 99.5 -40 q32.5 -25 39.5 -51 q7 -26 -4.5 -45 q-11.5 -19 -33 -23 q-21.5 -4 -45.5 15 q-4 35 -23.5 73.5 q-19.5 38.5 -41.5 64.5 ZM434 124 l298 0 q6 36 10.5 85.5 q4.5 49.5 8.5 114.5 l-285 0 q-8 -55 -16 -106.5 q-8 -51.5 -16 -93.5 ZM759 559 l-261 0 q-11 -88 -28 -207 l282 0 q2 45 4 96.5 q2 51.5 3 110.5 ZM960 324 l-102 0 q-3 -62 -7 -111.5 q-4 -49.5 -9 -88.5 l44 72 q0 0 14 -14 q14 -14 33.5 -34 q19.5 -20 33.5 -37 q-4 -16 -26 -16 l-104 0 q-9 -56 -22 -89.5 q-13 -33.5 -31 -51.5 q-25 -25 -57.5 -34 q-32.5 -9 -71.5 -9 q1 23 -2 39.5 q-3 16.5 -13 26.5 q-9 13 -27.5 21.5 q-18.5 8.5 -45.5 14.5 l1 15 q23 -3 52.5 -4.5 q29.5 -1.5 44.5 -1.5 q23 0 35 12 q16 14 26 61 l-289 0 l-41 -50 l-105 63 q7 5 16 11.5 q9 6.5 19 11.5 q8 38 16.5 88 q8.5 50 15.5 105 l-98 0 l-8 28 l110 0 q8 53 14.5 106.5 q6.5 53.5 10.5 100.5 q-24 -26 -50 -49 q-26 -23 -55 -42 l-10 8 q35 45 64.5 107.5 q29.5 62.5 52 131.5 q22.5 69 34.5 132 l157 -43 q-3 -8 -10.5 -11.5 q-7.5 -3.5 -26.5 -0.5 q-16 -37 -39 -75 l292 0 l61 82 q0 0 19 -15.5 q19 -15.5 44.5 -37.5 q25.5 -22 45.5 -41 q-3 -16 -27 -16 l-452 0 q-10 -16 -21 -32 q-11 -16 -22 -31 l81 -39 l224 0 l58 60 l102 -88 q-6 -6 -16.5 -11 q-10.5 -5 -27.5 -7 q-1 -52 -2.5 -97.5 q-1.5 -45.5 -3.5 -86.5 l45 74 q0 0 14.5 -15 q14.5 -15 34 -36.5 q19.5 -21.5 33.5 -39.5 q-3 -16 -26 -16 Z" /><glyph glyph-name="cid24191" unicode="&#x6df1;" d="M106 831 l8 6 q67 -12 105 -34 q38 -22 53 -47.5 q15 -25.5 11.5 -48 q-3.5 -22.5 -19.5 -36.5 q-16 -14 -40 -14 q-24 0 -49 20 q-5 41 -25.5 82.5 q-20.5 41.5 -43.5 71.5 ZM27 602 l8 6 q66 -8 103.5 -27 q37.5 -19 53 -42 q15.5 -23 13.5 -45 q-2 -22 -17 -36.5 q-15 -14.5 -37.5 -16 q-22.5 -1.5 -47.5 16.5 q-6 38 -28.5 77.5 q-22.5 39.5 -47.5 66.5 ZM284 611 l15 -3 q-10 -39 -23.5 -91 q-13.5 -52 -27 -103.5 q-13.5 -51.5 -23.5 -92.5 q-10 -41 -13 -58 q-5 -23 -8.5 -46.5 q-3.5 -23.5 -2.5 -42.5 q1 -27 11.5 -51.5 q10.5 -24.5 20 -54.5 q9.5 -30 7.5 -74 q-1 -38 -24.5 -61 q-23.5 -23 -58.5 -23 q-16 0 -32 12 q-16 12 -22 40 q10 53 12 99 q2 46 -3 77.5 q-5 31.5 -17 39.5 q-19 12 -50 15 l0 19 l44 0 q11 0 16 2.5 q5 2.5 13 18.5 q6 10 11 20 q5 10 14 29 q9 19 25 57 q16 38 44 103.5 q28 65.5 72 168.5 ZM932 352 l-242 0 q33 -59 80 -109.5 q47 -50.5 102.5 -88.5 q55.5 -38 111.5 -62 l-3 -11 q-33 -7 -57.5 -32.5 q-24.5 -25.5 -37.5 -69.5 q-76 59 -128 149.5 q-52 90.5 -84 208.5 l0 -393 q0 -5 -14 -13 q-14 -8 -35.5 -14.5 q-21.5 -6.5 -42.5 -6.5 l-22 0 l0 298 q-55 -75 -129.5 -137 q-74.5 -62 -163.5 -110 l-10 12 q56 49 102.5 111 q46.5 62 82.5 131 q36 69 59 137 l-203 0 l-8 28 l270 0 l0 154 l149 -14 q-2 -10 -9 -16.5 q-7 -6.5 -26 -9.5 l0 -114 l112 0 l59 79 q-23 -3 -49 11 q-13 38 -39 78 q-26 40 -57.5 76.5 q-31.5 36.5 -61.5 63.5 l9 7 q53 -9 92 -23 q39 -14 67 -31 q4 23 8 51.5 q4 28.5 8 52.5 l-409 0 q12 -55 3 -88.5 q-9 -33.5 -29 -47.5 q-20 -14 -41.5 -12 q-21.5 2 -37 16.5 q-15.5 14.5 -15.5 39 q0 24.5 24 55.5 q25 14 39.5 45.5 q14.5 31.5 15.5 81.5 l12 0 q7 -16 12.5 -32 q5.5 -16 9.5 -30 l409 0 l58 59 l101 -98 q-9 -11 -38 -12 q-21 -19 -52 -46 q-31 -27 -58 -48 q46 -33 59.5 -69.5 q13.5 -36.5 3 -63.5 q-10.5 -27 -37.5 -34 q8 -6 26.5 -21.5 q18.5 -15.5 41.5 -35 q23 -19.5 41 -36.5 q-4 -16 -28 -16 ZM502 712 l125 -95 q-6 -7 -17 -10 q-11 -3 -28 2 q-119 -124 -266 -191 l-10 10 q31 33 66 78.5 q35 45.5 69 98.5 q34 53 61 107 Z" /><glyph glyph-name="cid24283" unicode="&#x6e29;" d="M728 748 l-264 0 l0 -117 l264 0 l0 117 ZM464 479 l264 0 l0 125 l-264 0 l0 -125 ZM464 450 l0 -44 q0 -6 -24 -17 q-24 -11 -65 -11 l-19 0 l0 444 l118 -45 l250 0 l53 61 l103 -79 q-9 -14 -39 -19 l0 -325 q0 -4 -25 -15 q-25 -11 -68 -11 l-20 0 l0 61 l-264 0 ZM103 836 l8 7 q66 -10 104.5 -30.5 q38.5 -20.5 54.5 -45 q16 -24.5 14.5 -47 q-1.5 -22.5 -16 -37.5 q-14.5 -15 -37 -16.5 q-22.5 -1.5 -47.5 15.5 q-8 41 -32.5 83 q-24.5 42 -48.5 71 ZM28 614 l9 6 q63 -9 99 -28.5 q36 -19.5 50.5 -42.5 q14.5 -23 12.5 -45 q-2 -22 -16 -36 q-14 -14 -35.5 -15.5 q-21.5 -1.5 -45.5 16.5 q-5 38 -26.5 78 q-21.5 40 -47.5 67 ZM313 674 l16 -4 q-12 -37 -27.5 -83.5 q-15.5 -46.5 -32 -95.5 q-16.5 -49 -31 -93.5 q-14.5 -44.5 -25 -78.5 q-10.5 -34 -14.5 -50 q-7 -25 -11.5 -49.5 q-4.5 -24.5 -4.5 -43.5 q1 -26 11 -50.5 q10 -24.5 19 -55 q9 -30.5 7 -75.5 q-1 -37 -22.5 -59.5 q-21.5 -22.5 -56.5 -22.5 q-16 0 -30 12.5 q-14 12.5 -19 40.5 q9 54 10.5 99.5 q1.5 45.5 -4 76.5 q-5.5 31 -17.5 39 q-10 7 -22.5 10.5 q-12.5 3.5 -28.5 4.5 l0 20 l45 0 q11 0 16.5 2.5 q5.5 2.5 13.5 18.5 q7 11 12.5 22 q5.5 11 16.5 33 q11 22 31.5 66 q20.5 44 56 120 q35.5 76 91.5 196 ZM412 293 l0 -314 l62 0 l0 314 l-62 0 ZM623 -21 l0 314 l-62 0 l0 -314 l62 0 ZM772 293 l-63 0 l0 -314 l63 0 l0 314 ZM879 -17 l39 69 q0 0 13.5 -14.5 q13.5 -14.5 31 -34.5 q17.5 -20 29.5 -37 q-4 -16 -26 -16 l-735 0 l-8 29 l86 0 l0 388 l113 -45 l339 0 l48 60 l116 -79 q-6 -8 -16 -13 q-10 -5 -30 -8 l0 -299 Z" /><glyph glyph-name="cid24463" unicode="&#x6e90;" d="M87 833 l8 6 q68 -6 107.5 -24.5 q39.5 -18.5 55.5 -42 q16 -23.5 14.5 -46 q-1.5 -22.5 -16.5 -38 q-15 -15.5 -38 -18 q-23 -2.5 -49 15.5 q-8 40 -32.5 79.5 q-24.5 39.5 -49.5 67.5 ZM24 600 l8 7 q64 -5 101.5 -21.5 q37.5 -16.5 52.5 -38 q15 -21.5 13 -42.5 q-2 -21 -16 -35.5 q-14 -14.5 -36.5 -16.5 q-22.5 -2 -47.5 15 q-7 35 -29.5 71.5 q-22.5 36.5 -45.5 60.5 ZM299 688 l15 -5 q-10 -37 -22 -85 q-12 -48 -24.5 -98 q-12.5 -50 -23.5 -96.5 q-11 -46.5 -19.5 -81.5 q-8.5 -35 -11.5 -52 q-6 -26 -9.5 -51.5 q-3.5 -25.5 -2.5 -43.5 q1 -27 11.5 -51.5 q10.5 -24.5 19.5 -54.5 q9 -30 7 -75 q-1 -37 -23 -60.5 q-22 -23.5 -57 -23.5 q-17 0 -32.5 12 q-15.5 12 -20.5 41 q9 52 11 98 q2 46 -3 77.5 q-5 31.5 -17 38.5 q-10 8 -22.5 11.5 q-12.5 3.5 -28.5 4.5 l0 20 l44 0 q11 0 16 2.5 q5 2.5 12 18.5 q6 11 11 22.5 q5 11.5 14.5 34.5 q9.5 23 27.5 68.5 q18 45.5 48.5 124.5 q30.5 79 79.5 204 ZM503 241 l125 -58 q-3 -8 -11 -11.5 q-8 -3.5 -25 -2.5 q-34 -52 -88 -110.5 q-54 -58.5 -122 -98.5 l-10 11 q31 38 57 86 q26 48 45 96.5 q19 48.5 29 87.5 ZM770 217 l11 6 q82 -31 124 -70 q42 -39 53.5 -75.5 q11.5 -36.5 1 -62 q-10.5 -25.5 -34.5 -32 q-24 -6.5 -53 16.5 q-6 36 -22.5 75 q-16.5 39 -37.5 76 q-21 37 -42 66 ZM807 582 l-219 0 l0 -117 l219 0 l0 117 ZM588 326 l219 0 l0 110 l-219 0 l0 -110 ZM802 761 l61 81 q0 0 19 -15.5 q19 -15.5 45.5 -37 q26.5 -21.5 46.5 -40.5 q-3 -16 -27 -16 l-272 0 l103 -24 q-7 -22 -37 -23 q-18 -19 -39 -39 q-21 -20 -43 -36 l139 0 l49 52 l103 -78 q-8 -12 -36 -18 l0 -280 q0 -3 -15 -9.5 q-15 -6.5 -35.5 -12 q-20.5 -5.5 -38.5 -5.5 l-18 0 l0 37 l-52 0 l0 -247 q0 -38 -9.5 -67.5 q-9.5 -29.5 -38.5 -48 q-29 -18.5 -88 -23.5 q-1 27 -5 47 q-4 20 -13 33 q-8 13 -25 22 q-17 9 -49 15 l0 13 q0 0 12.5 -1 q12.5 -1 30.5 -1.5 q18 -0.5 34 -1.5 q16 -1 23 -1 q18 0 18 17 l0 244 l-57 0 l0 -15 q0 -4 -13 -12 q-13 -8 -33 -14.5 q-20 -6.5 -42 -6.5 l-15 0 l0 406 l108 -44 l27 0 q4 25 7 57 q3 32 4 65 l-197 0 l0 -211 q0 -69 -4.5 -148.5 q-4.5 -79.5 -23 -161.5 q-18.5 -82 -57.5 -158.5 q-39 -76.5 -108 -139.5 l-12 7 q44 90 64 192 q20 102 25.5 206.5 q5.5 104.5 5.5 202.5 l0 286 l127 -47 l351 0 Z" /><glyph glyph-name="cid25534" unicode="&#x70b9;" d="M187 168 l13 0 q22 -66 16 -116.5 q-6 -50.5 -29 -83.5 q-23 -33 -52 -48 q-28 -14 -58.5 -7 q-30.5 7 -39.5 35 q-8 27 6 47 q14 20 36 31 q25 9 49.5 29 q24.5 20 41 49 q16.5 29 17.5 64 ZM332 156 l12 4 q54 -33 80.5 -68.5 q26.5 -35.5 32.5 -67.5 q6 -32 -3.5 -56.5 q-9.5 -24.5 -28 -37 q-18.5 -12.5 -41 -8.5 q-22.5 4 -43.5 29 q10 52 6 107 q-4 55 -15 98 ZM509 158 l10 5 q71 -23 111 -53.5 q40 -30.5 56.5 -62.5 q16.5 -32 14.5 -60 q-2 -28 -18 -45 q-16 -17 -39.5 -18 q-23.5 -1 -49.5 20 q-4 55 -29 113 q-25 58 -56 101 ZM297 275 l412 0 l0 207 l-412 0 l0 -207 ZM730 187 l-21 0 l0 59 l-412 0 l0 -33 q0 -5 -15.5 -14 q-15.5 -9 -38.5 -16 q-23 -7 -48 -7 l-17 0 l0 384 l127 -50 l126 0 l0 341 l167 -12 q-1 -13 -10 -21 q-9 -8 -33 -13 l0 -119 l196 0 l64 87 q0 0 19.5 -16.5 q19.5 -16.5 46.5 -39.5 q27 -23 48 -43 q-4 -16 -29 -16 l-345 0 l0 -148 l144 0 l56 61 l117 -88 q-5 -6 -15.5 -12 q-10.5 -6 -25.5 -10 l0 -242 q0 -3 -17 -11 q-17 -8 -40 -14.5 q-23 -6.5 -44 -6.5 ZM714 162 l9 7 q84 -20 134.5 -50.5 q50.5 -30.5 75 -64.5 q24.5 -34 27.5 -64.5 q3 -30.5 -10.5 -51 q-13.5 -20.5 -37 -24.5 q-23.5 -4 -52.5 15 q-10 41 -34 83.5 q-24 42.5 -53.5 81.5 q-29.5 39 -58.5 68 Z" /><glyph glyph-name="cid25984" unicode="&#x719f;" d="M210 849 l8 6 q58 -2 90.5 -15.5 q32.5 -13.5 44.5 -32 q12 -18.5 8 -37 q-4 -18.5 -19 -31 q-15 -12.5 -36.5 -13 q-21.5 -0.5 -44.5 15.5 q-3 29 -18.5 58.5 q-15.5 29.5 -32.5 48.5 ZM521 697 l-471 0 l-8 29 l364 0 l51 68 q0 0 15.5 -13 q15.5 -13 37 -32 q21.5 -19 38.5 -36 q-4 -16 -27 -16 ZM206 537 l157 0 l0 79 l-157 0 l0 -79 ZM343 302 l0 -64 q0 -33 -8.5 -56 q-8.5 -23 -34.5 -35.5 q-26 -12.5 -81 -17.5 q11 -56 0.5 -99 q-10.5 -43 -34 -70.5 q-23.5 -27.5 -51.5 -39.5 q-28 -13 -57 -4.5 q-29 8.5 -38 36.5 q-6 26 8.5 45 q14.5 19 37.5 29 q24 7 49 23 q25 16 44 39 q19 23 25 51 l12 0 q-1 15 -4 27.5 q-3 12.5 -11 20.5 q-9 8 -23 15.5 q-14 7.5 -43 11.5 l0 14 q0 0 11.5 -1 q11.5 -1 27.5 -2 q16 -1 31 -2 q15 -1 21 -1 q15 0 15 16 l0 40 q-28 -7 -59 -13.5 q-31 -6.5 -64 -14.5 q-7 -19 -26 -22 l-44 101 q31 2 80.5 4.5 q49.5 2.5 112.5 6.5 l0 51 l63 -6 q10 9 19.5 19 q9.5 10 17.5 20 l-245 0 l-9 29 l267 0 l35 32 l-7 0 l-18 0 l0 24 l-157 0 l0 -7 q0 -5 -22.5 -16 q-22.5 -11 -60.5 -11 l-18 0 l0 213 l113 -44 l137 0 l45 47 l96 -70 q-4 -4 -12 -9 q-8 -5 -19 -7 l0 -94 q0 -3 -13.5 -9 q-13.5 -6 -30.5 -11 l78 -69 q-10 -10 -40 -11 q-22 -7 -50.5 -15 q-28.5 -8 -57.5 -15 l25 -2 q-3 -19 -33 -25 l0 -6 l157 11 l1 -15 q-31 -9 -71 -19.5 q-40 -10.5 -87 -22.5 ZM321 127 l12 4 q65 -35 91.5 -73 q26.5 -38 26.5 -70.5 q0 -32.5 -18.5 -52 q-18.5 -19.5 -44.5 -19 q-26 0.5 -50 29.5 q6 46 0 94 q-6 48 -17 87 ZM501 130 l9 6 q66 -20 104 -47.5 q38 -27.5 52.5 -56.5 q14.5 -29 11.5 -54 q-3 -25 -18.5 -40.5 q-15.5 -15.5 -38 -15.5 q-22.5 0 -47.5 21 q-4 48 -26 99 q-22 51 -47 88 ZM695 141 l9 7 q83 -14 134.5 -40 q51.5 -26 77 -57 q25.5 -31 29.5 -60 q4 -29 -8 -50 q-12 -21 -35.5 -26 q-23.5 -5 -52.5 12 q-12 37 -36.5 76.5 q-24.5 39.5 -55.5 75.5 q-31 36 -62 62 ZM952 367 l-5 -119 q17 -21 22 -38.5 q5 -17.5 0 -31.5 q-10 -29 -35.5 -36.5 q-25.5 -7.5 -57.5 3.5 q-42 19 -66.5 65 q-24.5 46 -35 112 q-10.5 66 -12.5 144.5 q-2 78.5 -1 163.5 l-64 0 q-3 -52 -9 -100.5 q-6 -48.5 -18 -92.5 q48 -37 64 -73.5 q16 -36.5 9 -64 q-7 -27.5 -29.5 -36.5 q-22.5 -9 -53.5 9 q-5 16 -13 32.5 q-8 16.5 -18 32.5 q-32 -58 -86.5 -105.5 q-54.5 -47.5 -140.5 -87.5 l-11 15 q76 56 117.5 121 q41.5 65 60.5 142 q-39 48 -78 84 l10 8 q45 -12 81 -27 q5 33 7.5 69 q2.5 36 3.5 74 l-92 0 l-9 29 l102 0 q1 45 1 92.5 q0 47.5 0 98.5 l141 -13 q-1 -10 -9 -17.5 q-8 -7.5 -25 -9.5 q-1 -40 -1.5 -77.5 q-0.5 -37.5 -2.5 -73.5 l52 0 l53 56 l102 -80 q-4 -5 -14 -9.5 q-10 -4.5 -24 -6.5 q-3 -47 -4.5 -103.5 q-1.5 -56.5 2 -109.5 q3.5 -53 12 -90.5 q8.5 -37.5 24.5 -46.5 q9 -5 15 10 q8 18 13.5 40 q5.5 22 11.5 48 l11 0 Z" /><glyph glyph-name="cid26348" unicode="&#x7248;" d="M805 498 l-179 0 q14 -81 39 -147.5 q25 -66.5 59 -120.5 q29 63 49 130.5 q20 67.5 32 137.5 ZM857 587 l103 -91 q-8 -13 -40 -16 q-20 -87 -53 -169.5 q-33 -82.5 -85 -155.5 q42 -46 93 -81 q51 -35 109 -62 l-2 -10 q-74 -9 -105 -88 q-48 35 -86.5 76 q-38.5 41 -67.5 91 q-49 -52 -112 -95 q-63 -43 -143 -77 l-9 13 q73 46 128.5 105.5 q55.5 59.5 97.5 129.5 q-29 67 -47.5 151 q-18.5 84 -29.5 190 l-24 0 l0 -54 q0 -66 -6 -138 q-6 -72 -26.5 -142.5 q-20.5 -70.5 -64 -135 q-43.5 -64.5 -118.5 -117.5 l-11 8 q55 75 80 161.5 q25 86.5 32.5 178.5 q7.5 92 7.5 184 l0 75 q-6 -10 -23 -10 l-270 0 l0 -146 l75 0 l52 57 l107 -82 q-5 -6 -16 -12 q-11 -6 -26 -9 l0 -343 q0 -4 -14.5 -12.5 q-14.5 -8.5 -35 -15.5 q-20.5 -7 -39.5 -7 l-18 0 l0 396 l-85 0 q-2 -129 -34.5 -235.5 q-32.5 -106.5 -116.5 -186.5 l-12 9 q38 91 48.5 197 q10.5 106 10.5 233 l0 468 l139 -13 q-1 -10 -8.5 -18 q-7.5 -8 -26.5 -11 l0 -240 l66 0 l0 307 l139 -12 q-1 -10 -8 -17 q-7 -7 -25 -10 l0 -268 l45 74 q0 0 13 -14 q13 -14 31 -34 q18 -20 32 -37 l0 250 l98 -35 q65 20 142 49 q77 29 150 60 l95 -116 q-14 -14 -41 -2 q-51 -8 -111 -13 q-60 -5 -119 -7 q-59 -2 -108 -2 l0 -184 l215 0 l58 61 Z" /><glyph glyph-name="cid26732" unicode="&#x732e;" d="M809 790 l10 6 q69 -18 101.5 -46 q32.5 -28 37.5 -56.5 q5 -28.5 -8.5 -48.5 q-13.5 -20 -38 -23.5 q-24.5 -3.5 -49.5 19.5 q1 39 -15.5 80 q-16.5 41 -37.5 69 ZM187 534 l12 5 q47 -26 67 -54 q20 -28 21.5 -52 q1.5 -24 -10 -39 q-11.5 -15 -29 -16 q-17.5 -1 -34.5 17 q2 35 -7 73 q-9 38 -20 66 ZM356 223 l34 50 q0 0 17.5 -16 q17.5 -16 34.5 -34 l0 115 q-3 -1 -6 -1.5 q-3 -0.5 -7 -0.5 l-84 0 l0 -113 l11 0 ZM951 522 l-162 0 q10 -128 36 -225 q26 -97 67.5 -169 q41.5 -72 97.5 -126 l-4 -10 q-33 -2 -61.5 -23 q-28.5 -21 -45.5 -58 q-36 62 -57.5 131.5 q-21.5 69.5 -32 156 q-10.5 86.5 -14.5 197.5 q-11 -99 -38.5 -186.5 q-27.5 -87.5 -82 -162.5 q-54.5 -75 -145.5 -137 l-11 15 q69 80 105 172.5 q36 92.5 50.5 198.5 q14.5 106 17.5 226 l-103 0 l-5 18 q-4 -1 -9.5 -3 q-5.5 -2 -12.5 -3 l0 -475 q0 -35 -7 -60 q-7 -25 -30.5 -39 q-23.5 -14 -72.5 -19 q-1 23 -3.5 41.5 q-2.5 18.5 -7.5 28.5 q-5 11 -15 18.5 q-10 7.5 -29 11.5 l0 15 q0 0 10.5 -0.5 q10.5 -0.5 22.5 -1.5 q12 -1 18 -1 q15 0 15 16 l0 127 q-3 -1 -6 -1.5 q-3 -0.5 -7 -0.5 l-84 0 l0 -185 q0 -3 -20 -12 q-20 -9 -54 -9 l-15 0 l0 206 l-81 0 l-8 29 l89 0 l0 113 l-80 0 l-8 28 l131 0 q9 39 16.5 88.5 q7.5 49.5 11.5 89.5 l110 -26 q-2 -9 -10.5 -15.5 q-8.5 -6.5 -25.5 -6.5 q-14 -28 -35 -63.5 q-21 -35.5 -44 -66.5 l36 0 l33 48 q0 0 17 -15.5 q17 -15.5 34 -32.5 l0 185 l-275 0 l0 -594 q0 -6 -21 -18.5 q-21 -12.5 -58 -12.5 l-17 0 l0 697 l110 -44 l65 0 l0 95 l-197 0 l-8 28 l205 0 l0 150 l148 -12 q-1 -10 -8.5 -17.5 q-7.5 -7.5 -27.5 -11.5 l0 -109 l52 0 l62 80 q0 0 19.5 -15 q19.5 -15 45.5 -36.5 q26 -21.5 47 -40.5 q-4 -16 -28 -16 l-198 0 l0 -95 l74 0 l46 53 l102 -77 l-3 -3 l94 0 q2 70 1 144.5 q-1 74.5 -1 153.5 l153 -14 q-1 -11 -9.5 -18.5 q-8.5 -7.5 -26.5 -10.5 q-1 -67 -1 -131 q0 -64 -2 -124 l39 0 l54 75 q0 0 17.5 -14.5 q17.5 -14.5 41 -34.5 q23.5 -20 41.5 -38 q-3 -16 -27 -16 Z" /><glyph glyph-name="cid26963" unicode="&#x73b0;" d="M541 744 l0 -489 q0 -6 -23.5 -17.5 q-23.5 -11.5 -65.5 -11.5 l-19 0 l0 591 l119 -46 l245 0 l55 63 l103 -81 q-5 -6 -14.5 -11 q-9.5 -5 -26.5 -8 l0 -467 q0 -5 -25.5 -17 q-25.5 -12 -68.5 -12 l-19 0 l0 506 l-260 0 ZM405 220 l3 -10 q-47 -34 -122.5 -84 q-75.5 -50 -183.5 -113 q-4 -20 -25 -29 l-61 132 q21 5 54.5 13.5 q33.5 8.5 76.5 19.5 l0 282 l-104 0 l-8 28 l112 0 l0 261 l-116 0 l-8 29 l234 0 l59 78 q0 0 17.5 -15 q17.5 -15 42 -36 q24.5 -21 43.5 -40 q-4 -16 -27 -16 l-131 0 l0 -261 l22 0 l44 72 q0 0 13.5 -14 q13.5 -14 32 -33.5 q18.5 -19.5 32.5 -36.5 q-4 -16 -26 -16 l-118 0 l0 -251 q35 9 71 19.5 q36 10.5 73 20.5 ZM943 173 l3 -134 q19 -8 24.5 -18 q5.5 -10 5.5 -24 q0 -30 -33 -46 q-33 -16 -121 -16 l-66 0 q-39 0 -59 7.5 q-20 7.5 -27 26.5 q-7 19 -7 51 l0 165 q-28 -58 -78 -107.5 q-50 -49.5 -129 -90.5 q-79 -41 -194 -74 l-9 16 q115 48 185 105 q70 57 107 124.5 q37 67.5 51 146 q14 78.5 15.5 171 q1.5 92.5 1.5 199.5 l147 -14 q-2 -10 -10 -17.5 q-8 -7.5 -25 -9.5 q-2 -85 -4.5 -161.5 q-2.5 -76.5 -13.5 -143.5 l83 -9 q-2 -19 -29 -24 l0 -249 q0 -9 4 -12.5 q4 -3.5 19 -3.5 l48 0 l43 0 q13 1 19 13 q6 13 16 49.5 q10 36.5 21 79.5 l12 0 Z" /><glyph glyph-name="cid27082" unicode="&#x7403;" d="M382 278 l4 -11 q-46 -42 -116.5 -99.5 q-70.5 -57.5 -167.5 -125.5 q-3 -22 -23 -30 l-59 127 q21 6 52.5 17 q31.5 11 68.5 24 l0 256 l-94 0 l-8 29 l102 0 l0 247 l-101 0 l-8 29 l211 0 l55 80 q0 0 17 -15.5 q17 -15.5 40 -37 q23 -21.5 41 -40.5 q-4 -16 -27 -16 l-117 0 l0 -247 l8 0 l47 74 q0 0 14.5 -14.5 q14.5 -14.5 34 -34.5 q19.5 -20 33.5 -38 q-3 -16 -26 -16 l-111 0 l0 -213 q32 13 65 27 q33 14 65 28 ZM366 546 l10 4 q63 -25 97 -55 q34 -30 45.5 -59.5 q11.5 -29.5 6.5 -54 q-5 -24.5 -22 -38.5 q-17 -14 -39.5 -12 q-22.5 2 -45.5 24 q0 49 -16 100 q-16 51 -36 91 ZM832 570 l124 -86 q-5 -7 -12.5 -8.5 q-7.5 -1.5 -22.5 0.5 q-34 -27 -79 -58.5 q-45 -31.5 -85 -60.5 q43 -89 101.5 -143 q58.5 -54 124.5 -90 l-3 -10 q-36 -9 -62.5 -39.5 q-26.5 -30.5 -38.5 -74.5 q-57 58 -96 127 q-39 69 -63.5 164.5 q-24.5 95.5 -38.5 231.5 l0 -480 q0 -39 -10 -66.5 q-10 -27.5 -41.5 -43.5 q-31.5 -16 -97.5 -21 q-2 25 -6.5 44 q-4.5 19 -16.5 31 q-12 12 -30.5 21 q-18.5 9 -56.5 15 l0 14 q0 0 15.5 -1 q15.5 -1 37.5 -2.5 q22 -1.5 41.5 -2.5 q19.5 -1 27.5 -1 q13 0 17.5 4 q4.5 4 4.5 14 l0 196 q-36 -40 -83.5 -89.5 q-47.5 -49.5 -109.5 -107.5 q-2 -23 -18 -33 l-86 121 q26 11 71.5 34 q45.5 23 104 53.5 q58.5 30.5 121.5 64.5 l0 324 l-236 0 l-8 29 l244 0 l0 206 l150 -15 q-1 -10 -8.5 -17 q-7.5 -7 -26.5 -10 l0 -164 l120 0 l32 43 q-13 3 -25 10 q-7 31 -30 63 q-23 32 -49 51 l8 7 q60 1 95.5 -11.5 q35.5 -12.5 50.5 -31.5 q15 -19 14 -38.5 q-1 -19.5 -13 -33.5 q17 -14 41 -34.5 q24 -20.5 43 -37.5 q-4 -16 -28 -16 l-256 0 q10 -66 24.5 -121 q14.5 -55 33.5 -101 q24 43 47.5 90.5 q23.5 47.5 42.5 90.5 Z" /><glyph glyph-name="cid27549" unicode="&#x74ef;" d="M635 424 l12 5 q52 -36 75 -71.5 q23 -35.5 25.5 -65 q2.5 -29.5 -9.5 -47.5 q-12 -18 -31 -20 q-19 -2 -38 19 q1 44 -9.5 93.5 q-10.5 49.5 -24.5 86.5 ZM191 617 l15 5 q63 -59 108 -119 q8 42 12.5 81.5 q4.5 39.5 7.5 74.5 l137 -34 q-3 -9 -11 -14 q-8 -5 -28 -6 q-10 -44 -23.5 -94.5 q-13.5 -50.5 -31.5 -101.5 q39 -72 50.5 -130 q11.5 -58 2 -94.5 q-9.5 -36.5 -32.5 -45 q-23 -8.5 -53 19.5 q-2 29 -8 60 q-6 31 -14 62 q-24 -49 -53.5 -94 q-29.5 -45 -67.5 -84 l-12 9 q34 59 58.5 129.5 q24.5 70.5 42.5 143.5 q-21 62 -47 121.5 q-26 59.5 -52 110.5 ZM313 33 l53 73 q0 0 17 -14 q17 -14 39.5 -34 q22.5 -20 40.5 -38 q11 8 25 33 q14 25 18 56 q3 17 6.5 57.5 q3.5 40.5 7.5 96.5 q4 56 8.5 120.5 q4.5 64.5 8.5 128.5 q4 64 7 121 q3 57 5 97 l-66 0 l1 -1 q-4 -16 -28 -16 l-276 0 l0 -680 l133 0 ZM944 161 l-2 -123 q24 -9 31.5 -16 q7.5 -7 7.5 -22 q0 -29 -22 -47.5 q-22 -18.5 -71 -18.5 l-36 0 q-52 0 -73 23.5 q-21 23.5 -21 77.5 q0 33 1.5 91.5 q1.5 58.5 4.5 155 q3 96.5 7 244.5 l-133 0 q-5 -82 -11.5 -168.5 q-6.5 -86.5 -12.5 -163 q-6 -76.5 -11 -129.5 q31 11 65 24 q34 13 68 26 l4 -12 q-28 -25 -79 -70.5 q-51 -45.5 -116 -95.5 q-8 -20 -20 -27 l-63 107 q-6 -13 -26 -13 l-250 0 l-30 -41 l-111 53 q12 15 28 27 l0 757 l120 -59 l130 0 l58 74 q0 0 16.5 -13 q16.5 -13 40 -32.5 q23.5 -19.5 42.5 -37.5 l-7 26 l327 0 l60 78 q0 0 18.5 -15 q18.5 -15 44 -35.5 q25.5 -20.5 45.5 -39.5 q-4 -16 -27 -16 l-290 0 l-11 -175 l122 0 l42 55 l104 -78 q-11 -12 -38 -17 q-7 -211 -11 -323.5 q-4 -112.5 -3 -146.5 q0 -12 2 -15 q2 -3 9 -3 l20 0 q6 0 9 2 q3 2 6 9 q8 21 15.5 55 q7.5 34 14.5 68 l12 0 Z" /><glyph glyph-name="cid27668" unicode="&#x2f63;&#x751f;" d="M767 -10 l72 91 q0 0 13 -10 q13 -10 33.5 -26 q20.5 -16 43 -34 q22.5 -18 41.5 -34 q-4 -16 -29 -16 l-902 0 l-8 29 l401 0 l0 300 l-275 0 l-8 29 l283 0 l0 256 l-177 0 q-94 -155 -222 -245 l-11 9 q39 57 74.5 133.5 q35.5 76.5 65 164.5 q29.5 88 46.5 178 l168 -50 q-5 -21 -39 -21 q-15 -38 -31 -73.5 q-16 -35.5 -35 -67.5 l161 0 l0 242 l166 -16 q-2 -11 -9.5 -18.5 q-7.5 -7.5 -27.5 -10.5 l0 -197 l158 0 l69 85 q0 0 21.5 -15.5 q21.5 -15.5 51 -38 q29.5 -22.5 53.5 -43.5 q-4 -16 -30 -16 l-323 0 l0 -256 l125 0 l70 87 q0 0 13 -9.5 q13 -9.5 33 -25 q20 -15.5 42 -33 q22 -17.5 40 -32.5 q-4 -16 -27 -16 l-296 0 l0 -300 l206 0 Z" /><glyph glyph-name="cid27680" unicode="&#x2f64;&#x7528;" d="M558 296 l201 0 l0 213 l-201 0 l0 -213 ZM255 296 l187 0 l0 213 l-179 0 l0 -47 q0 -40 -1.5 -82 q-1.5 -42 -6.5 -84 ZM442 743 l-179 0 l0 -205 l179 0 l0 205 ZM759 743 l-201 0 l0 -205 l201 0 l0 205 ZM804 837 l117 -93 q-5 -7 -16.5 -13.5 q-11.5 -6.5 -28.5 -10.5 l0 -662 q0 -40 -10 -68 q-10 -28 -41.5 -45 q-31.5 -17 -98.5 -23 q-2 27 -6.5 47.5 q-4.5 20.5 -15.5 33.5 q-11 13 -30 22.5 q-19 9.5 -55 16.5 l0 14 q0 0 15 -1 q15 -1 36.5 -2.5 q21.5 -1.5 40.5 -2.5 q19 -1 26 -1 q13 0 17.5 5.5 q4.5 5.5 4.5 15.5 l0 198 l-201 0 l0 -312 q0 -5 -25 -18.5 q-25 -13.5 -70 -13.5 l-21 0 l0 344 l-191 0 q-9 -64 -32 -126.5 q-23 -62.5 -66 -119 q-43 -56.5 -112 -103.5 l-11 8 q54 76 78.5 164 q24.5 88 31.5 182 q7 94 7 188 l0 358 l134 -48 l467 0 l56 66 Z" /><glyph glyph-name="cid27694" unicode="&#x7531;" d="M555 32 l211 0 l0 271 l-211 0 l0 -271 ZM230 303 l0 -271 l205 0 l0 271 l-205 0 ZM435 585 l-205 0 l0 -254 l205 0 l0 254 ZM766 585 l-211 0 l0 -254 l211 0 l0 254 ZM813 681 l122 -96 q-14 -19 -50 -26 l0 -606 q-1 -4 -17 -12.5 q-16 -8.5 -39 -15.5 q-23 -7 -45 -7 l-18 0 l0 85 l-536 0 l0 -50 q0 -7 -14.5 -17 q-14.5 -10 -37 -17.5 q-22.5 -7.5 -47.5 -7.5 l-18 0 l0 754 l126 -51 l196 0 l0 226 l157 -15 q-1 -10 -9 -17.5 q-8 -7.5 -28 -10.5 l0 -183 l199 0 l59 67 Z" /><glyph glyph-name="cid27733" unicode="&#x754c;" d="M281 601 l0 -128 l163 0 l0 128 l-163 0 ZM444 759 l-163 0 l0 -129 l163 0 l0 129 ZM724 759 l-165 0 l0 -129 l165 0 l0 129 ZM559 473 l165 0 l0 128 l-165 0 l0 -128 ZM467 445 l111 -34 q-1 -9 -11 -14.5 q-10 -5.5 -36 -7.5 q51 -23 123 -38.5 q72 -15.5 155.5 -22 q83.5 -6.5 167.5 -4.5 l0 -16 q-34 -13 -49.5 -45 q-15.5 -32 -18.5 -63 q-48 8 -92 19.5 q-44 11.5 -85 26.5 q-8 -8 -27 -11 l0 -296 q0 -4 -14.5 -10.5 q-14.5 -6.5 -36.5 -11.5 q-22 -5 -44 -5 l-21 0 l0 361 l97 -8 q-101 43 -169 114 q-31 -26 -77 -53.5 q-46 -27.5 -105 -53.5 l106 -10 q-1 -10 -7.5 -16.5 q-6.5 -6.5 -23.5 -8.5 l0 -83 q-1 -38 -15 -75 q-14 -37 -50 -69.5 q-36 -32.5 -102 -58.5 q-66 -26 -171 -43 l-6 11 q97 30 146 68 q49 38 66.5 81 q17.5 43 17.5 87 l0 100 q-60 -24 -128 -43.5 q-68 -19.5 -139 -30.5 l-3 13 q83 27 159 67.5 q76 40.5 136 88.5 q60 48 94 95 l-134 0 l0 -27 q0 -6 -14.5 -15 q-14.5 -9 -37.5 -16 q-23 -7 -47 -7 l-17 0 l0 457 l124 -49 l425 0 l54 60 l114 -87 q-4 -6 -14.5 -12 q-10.5 -6 -25.5 -9 l0 -318 q0 -4 -17 -11 q-17 -7 -39.5 -12.5 q-22.5 -5.5 -41.5 -5.5 l-20 0 l0 52 l-257 0 Z" /><glyph glyph-name="cid27771" unicode="&#x7565;&#xf976;" d="M769 273 l46 54 q-36 21 -66.5 45.5 q-30.5 24.5 -56.5 52.5 q-38 -34 -82.5 -63.5 q-44.5 -29.5 -95.5 -55.5 l86 -33 l169 0 ZM588 20 l184 0 l0 225 l-184 0 l0 -225 ZM417 484 l0 -198 q68 40 125 90 q57 50 103 107 q-21 31 -38.5 64.5 q-17.5 33.5 -32.5 69.5 q-35 -41 -74.5 -74 q-39.5 -33 -82.5 -59 ZM279 136 l48 0 l0 289 l-48 0 l0 -289 ZM156 425 l0 -289 l46 0 l0 289 l-46 0 ZM202 731 l-46 0 l0 -277 l46 0 l0 277 ZM327 731 l-48 0 l0 -277 l48 0 l0 277 ZM764 692 l-134 0 q-9 -14 -18.5 -27 q-9.5 -13 -19.5 -26 q36 -58 91 -104 q50 74 81 157 ZM822 777 l97 -86 q-5 -8 -14 -10.5 q-9 -2.5 -27 -4.5 q-23 -51 -54.5 -99 q-31.5 -48 -70.5 -92 q99 -59 238 -89 l-2 -11 q-67 -21 -79 -103 q-17 7 -33 14 q-16 7 -31 14 l71 -54 q-5 -6 -13.5 -11 q-8.5 -5 -25.5 -8 l0 -292 q0 -4 -23 -14 q-23 -10 -64 -10 l-19 0 l0 71 l-184 0 l0 -54 q0 -5 -22 -15.5 q-22 -10.5 -62 -10.5 l-18 0 l0 381 q-16 -7 -33.5 -14.5 q-17.5 -7.5 -35.5 -13.5 l0 -190 q0 -4 -12.5 -11 q-12.5 -7 -29.5 -13 q-17 -6 -33 -6 l-15 0 l0 63 l-171 0 l0 -53 q0 -8 -21 -21 q-21 -13 -52 -13 l-15 0 l0 781 l93 -42 l157 0 l45 50 l92 -74 q-4 -5 -14 -10.5 q-10 -5.5 -24 -7.5 l0 -210 q50 63 93.5 153 q43.5 90 68.5 190 l140 -50 q-4 -9 -13.5 -14.5 q-9.5 -5.5 -26.5 -4.5 q-7 -16 -15.5 -31.5 q-8.5 -15.5 -16.5 -30.5 l115 0 l60 57 Z" /><glyph glyph-name="cid28344" unicode="&#x7684;" d="M181 88 l152 0 l0 263 l-152 0 l0 -263 ZM333 628 l-152 0 l0 -248 l152 0 l0 248 ZM376 717 l109 -86 q-12 -15 -42 -21 l0 -596 q0 -4 -15.5 -12 q-15.5 -8 -36.5 -14.5 q-21 -6.5 -41 -6.5 l-17 0 l0 79 l-152 0 l0 -74 q0 -10 -27 -24 q-27 -14 -63 -14 l-18 0 l0 756 l112 -47 l6 0 q5 41 11 94 q6 53 10 95 l162 -39 q-6 -24 -41 -24 q-19 -26 -46 -61.5 q-27 -35.5 -51 -64.5 l87 0 l53 60 ZM866 725 l107 -94 q-6 -7 -16.5 -12 q-10.5 -5 -27.5 -7 q-3 -201 -10.5 -333.5 q-7.5 -132.5 -22.5 -207.5 q-15 -75 -43 -104 q-51 -54 -146 -54 q0 29 -4.5 49.5 q-4.5 20.5 -17.5 32.5 q-13 14 -41 25.5 q-28 11.5 -65 18.5 l1 14 q24 -2 52.5 -4 q28.5 -2 53 -3.5 q24.5 -1.5 37.5 -1.5 q14 0 22 3 q8 3 15 10 q28 26 38.5 172 q10.5 146 15.5 402 l-186 0 q-73 -129 -169 -210 l-13 8 q28 51 54 119.5 q26 68.5 47 145.5 q21 77 34 153 l158 -46 q-6 -20 -39 -20 q-13 -32 -26.5 -62 q-13.5 -30 -29.5 -59 l159 0 l63 65 ZM523 450 l8 6 q73 -21 115 -51 q42 -30 58.5 -62 q16.5 -32 14 -59.5 q-2.5 -27.5 -18.5 -44.5 q-16 -17 -40.5 -17.5 q-24.5 -0.5 -51.5 21.5 q-4 53 -29.5 109.5 q-25.5 56.5 -55.5 97.5 Z" /><glyph glyph-name="cid28520" unicode="&#x2f6c;&#x76ee;" d="M300 35 l405 0 l0 220 l-405 0 l0 -220 ZM705 499 l-405 0 l0 -215 l405 0 l0 215 ZM705 738 l-405 0 l0 -211 l405 0 l0 211 ZM755 836 l121 -98 q-12 -17 -44 -23 l0 -753 q0 -5 -17.5 -14.5 q-17.5 -9.5 -42 -17 q-24.5 -7.5 -48.5 -7.5 l-19 0 l0 84 l-405 0 l0 -48 q0 -8 -14.5 -19 q-14.5 -11 -38 -19 q-23.5 -8 -50.5 -8 l-21 0 l0 907 l132 -54 l386 0 l61 70 Z" /><glyph glyph-name="cid28536" unicode="&#x76f8;" d="M427 574 l-129 0 l0 -89 q72 -23 107 -54 q35 -31 42 -61 q7 -30 -5 -51 q-12 -21 -35.5 -24.5 q-23.5 -3.5 -48.5 18.5 q-4 37 -22 77 q-18 40 -38 72 l0 -518 q0 -5 -14 -13 q-14 -8 -34.5 -14 q-20.5 -6 -42.5 -6 l-23 0 l0 416 q-63 -102 -153 -183 l-13 11 q56 86 94 197 q38 111 58 222 l-121 0 l-8 28 l143 0 l0 245 l151 -15 q-2 -11 -9.5 -18 q-7.5 -7 -27.5 -10 l0 -202 l16 0 l51 78 q0 0 15.5 -15 q15.5 -15 36.5 -36 q21 -21 37 -39 q-4 -16 -27 -16 ZM580 48 l222 0 l0 216 l-222 0 l0 -216 ZM802 500 l-222 0 l0 -207 l222 0 l0 207 ZM802 734 l-222 0 l0 -205 l222 0 l0 205 ZM849 825 l111 -90 q-5 -6 -15 -11.5 q-10 -5.5 -26 -9.5 l0 -755 q0 -4 -16 -13 q-16 -9 -38.5 -16.5 q-22.5 -7.5 -44.5 -7.5 l-18 0 l0 98 l-222 0 l0 -58 q0 -8 -13 -18.5 q-13 -10.5 -35 -18.5 q-22 -8 -48 -8 l-19 0 l0 896 l120 -51 l207 0 l57 63 Z" /><glyph glyph-name="cid28946" unicode="&#x77e5;" d="M376 414 l59 81 q0 0 18.5 -15.5 q18.5 -15.5 43.5 -37 q25 -21.5 45 -40.5 q-4 -16 -28 -16 l-181 0 q-3 -51 -15 -105 q70 -27 111 -59.5 q41 -32.5 58.5 -65 q17.5 -32.5 16.5 -60.5 q-1 -28 -16 -45 q-15 -17 -38 -18 q-23 -1 -50 19 q-9 48 -35 100 q-26 52 -55 96 q-16 -62 -48.5 -123 q-32.5 -61 -87 -116 q-54.5 -55 -136.5 -100 l-10 10 q71 71 111 149.5 q40 78.5 58 159 q18 80.5 22 158.5 l-176 0 l-8 28 l186 0 q1 17 1 33.5 q0 16.5 0 32.5 l0 156 l-33 0 q-62 -104 -148 -169 l-12 8 q38 71 68 169.5 q30 98.5 43 203.5 l158 -42 q-3 -9 -12.5 -15.5 q-9.5 -6.5 -26.5 -6.5 q-11 -32 -24.5 -61.5 q-13.5 -29.5 -28.5 -57.5 l142 0 l60 75 q0 0 19 -14 q19 -14 45 -34 q26 -20 48 -40 q-3 -16 -27 -16 l-156 0 l0 -156 q0 -16 -0.5 -32.5 q-0.5 -16.5 -1.5 -33.5 l41 0 ZM657 79 l153 0 l0 607 l-153 0 l0 -607 ZM857 777 l111 -89 q-12 -15 -41 -21 l0 -671 q0 -4 -16 -12.5 q-16 -8.5 -38.5 -15.5 q-22.5 -7 -43.5 -7 l-19 0 l0 90 l-153 0 l0 -63 q0 -7 -13 -17 q-13 -10 -35 -18 q-22 -8 -48 -8 l-19 0 l0 821 l119 -51 l139 0 l57 62 Z" /><glyph glyph-name="cid29021" unicode="&#x7814;" d="M628 420 l99 0 l0 308 l-99 0 l0 -308 ZM300 443 l-86 0 l0 -320 l86 0 l0 320 ZM845 420 l51 82 q0 0 16.5 -16 q16.5 -16 38.5 -38 q22 -22 38 -41 q-3 -16 -26 -16 l-122 0 l0 -446 q0 -6 -24.5 -19 q-24.5 -13 -68.5 -13 l-21 0 l0 478 l-99 0 q-1 -69 -11.5 -136.5 q-10.5 -67.5 -39.5 -130.5 q-29 -63 -86 -117.5 q-57 -54.5 -152 -97.5 l-9 9 q80 65 119.5 139.5 q39.5 74.5 53.5 158.5 q14 84 15 175 l-96 0 l-8 29 l104 0 l0 308 l-79 0 l-1 2 l-162 0 q-10 -67 -26.5 -130 q-16.5 -63 -39.5 -121 l17 -7 l63 0 l50 52 l99 -77 q-4 -4 -12.5 -9.5 q-8.5 -5.5 -20.5 -7.5 l0 -379 q0 -3 -15 -10 q-15 -7 -35 -12.5 q-20 -5.5 -38 -5.5 l-18 0 l0 72 l-86 0 l0 -93 q0 -6 -22.5 -19 q-22.5 -13 -62.5 -13 l-17 0 l0 328 q-18 -25 -37.5 -49 q-19.5 -24 -41.5 -47 l-13 10 q39 71 65.5 156 q26.5 85 43.5 177.5 q17 92.5 27 184.5 l-115 0 l-8 29 l264 0 l61 77 q0 0 15.5 -12 q15.5 -12 38 -30.5 q22.5 -18.5 42.5 -36.5 l341 0 l60 80 q0 0 18.5 -15.5 q18.5 -15.5 44 -37 q25.5 -21.5 45.5 -40.5 q-4 -16 -28 -16 l-94 0 l0 -308 l4 0 Z" /><glyph glyph-name="cid29519" unicode="&#x2f70;&#x793a;" d="M841 710 l-685 0 l-8 29 l528 0 l69 85 q0 0 12.5 -9.5 q12.5 -9.5 32 -24.5 q19.5 -15 41 -32 q21.5 -17 39.5 -32 q-4 -16 -29 -16 ZM222 388 l148 -66 q-4 -7 -12 -12 q-8 -5 -27 -3 q-30 -50 -74 -104 q-44 -54 -99.5 -103.5 q-55.5 -49.5 -122.5 -86.5 l-9 10 q47 51 85.5 115.5 q38.5 64.5 67 130 q28.5 65.5 43.5 119.5 ZM657 361 l10 7 q99 -34 159.5 -77.5 q60.5 -43.5 90.5 -87 q30 -43.5 35 -81.5 q5 -38 -9 -62.5 q-14 -24.5 -40 -29 q-26 -4.5 -58 18.5 q-13 53 -43 109 q-30 56 -68 109 q-38 53 -77 94 ZM768 505 l71 89 q0 0 13 -10 q13 -10 33 -25.5 q20 -15.5 42 -33.5 q22 -18 40 -33 q-4 -16 -29 -16 l-373 0 l0 -415 q0 -41 -11 -73 q-11 -32 -46 -51.5 q-35 -19.5 -106 -25.5 q-1 29 -7 51.5 q-6 22.5 -20 36.5 q-13 14 -35 24 q-22 10 -67 17 l0 13 q0 0 19 -1 q19 -1 45.5 -2.5 q26.5 -1.5 50.5 -2.5 q24 -1 33 -1 q23 0 23 19 l0 411 l-402 0 l-9 29 l735 0 Z" /><glyph glyph-name="cid29831" unicode="&#x79d1;" d="M484 737 l8 7 q70 -10 111 -31.5 q41 -21.5 58.5 -47.5 q17.5 -26 17 -50 q-0.5 -24 -15 -40.5 q-14.5 -16.5 -37 -18.5 q-22.5 -2 -48.5 17 q-7 43 -34.5 88.5 q-27.5 45.5 -59.5 75.5 ZM465 490 l7 7 q71 -7 112.5 -27 q41.5 -20 60 -45 q18.5 -25 18 -49 q-0.5 -24 -14.5 -40.5 q-14 -16.5 -37 -19.5 q-23 -3 -49 15 q-8 42 -36.5 86.5 q-28.5 44.5 -60.5 72.5 ZM312 508 l0 -56 q70 -23 104.5 -53.5 q34.5 -30.5 41.5 -60 q7 -29.5 -5.5 -50 q-12.5 -20.5 -35.5 -24.5 q-23 -4 -48 17 q-5 35 -21.5 72.5 q-16.5 37.5 -35.5 68.5 l0 -479 q0 -5 -25.5 -19 q-25.5 -14 -67.5 -14 l-21 0 l0 371 q-70 -101 -168 -176 l-12 11 q40 52 71.5 116.5 q31.5 64.5 55.5 135.5 q24 71 39 140 l-136 0 l-8 28 l158 0 l0 157 q-40 -5 -81 -9.5 q-41 -4.5 -80 -6.5 l-4 13 q55 19 113 46.5 q58 27.5 109.5 57 q51.5 29.5 84.5 54.5 l128 -113 q-9 -7 -25.5 -8.5 q-16.5 -1.5 -40.5 6.5 q-39 -10 -90 -21 l0 -176 l16 0 l53 78 q0 0 17 -15 q17 -15 39.5 -36 q22.5 -21 40.5 -39 q-4 -16 -27 -16 l-139 0 ZM847 266 l47 93 q0 0 17 -13 q17 -13 39.5 -31 q22.5 -18 40.5 -34 q0 -7 -6.5 -12.5 q-6.5 -5.5 -15.5 -7.5 l-130 -25 l0 -283 q0 -6 -14 -15 q-14 -9 -35 -16 q-21 -7 -43 -7 l-22 0 l0 299 l-319 -61 l-14 27 l333 63 l0 582 l150 -15 q-1 -10 -8.5 -18 q-7.5 -8 -27.5 -11 l0 -517 l8 2 Z" /></font>
</defs>
</svg>
